G04 start of page 2 for group 2 layer_idx 8 *
G04 Title: (unknown), top_mask *
G04 Creator: pcb-rnd 3.1.4-dev *
G04 CreationDate: 2024-02-11 13:06:30 UTC *
G04 For: STEM4ukraine *
G04 Format: Gerber/RS-274X *
G04 PCB-Dimensions: 393701 393701 *
G04 PCB-Coordinate-Origin: lower left *
%MOIN*%
%FSLAX25Y25*%
%LNTOP_MASK_NONE_2*%
%ADD69C,0.0080*%
%ADD68C,0.0887*%
%ADD67C,0.1595*%
%ADD66C,0.0696*%
%ADD65C,0.0860*%
%ADD64C,0.0710*%
%ADD63C,0.0001*%
G54D63*G36*
X32214Y281109D02*X39314D01*
Y274009D01*
X32214D01*
Y281109D01*
G37*
G54D64*X45764Y277559D03*
G54D63*G36*
X117721Y368164D02*X110621D01*
Y375264D01*
X117721D01*
Y368164D01*
G37*
G54D64*X104171Y371714D03*
G54D63*G36*
X161806Y375264D02*X168906D01*
Y368164D01*
X161806D01*
Y375264D01*
G37*
G54D64*X175356Y371714D03*
G54D63*G36*
X211306Y339300D02*X218406D01*
Y332200D01*
X211306D01*
Y339300D01*
G37*
G54D64*X224856Y335750D03*
G54D63*G36*
X247314Y274009D02*X240214D01*
Y281109D01*
X247314D01*
Y274009D01*
G37*
G54D64*X233764Y277559D03*
G54D63*G36*
X211306Y222918D02*X218406D01*
Y215818D01*
X211306D01*
Y222918D01*
G37*
G54D64*X224856Y219368D03*
G54D63*G36*
X282700Y140001D02*X291300D01*
Y131401D01*
X282700D01*
Y140001D01*
G37*
G54D65*X317000Y135701D03*
X338000D03*
G54D63*G36*
X372300Y140001D02*Y131401D01*
X363700D01*
Y140001D01*
X372300D01*
G37*
G54D65*X378000Y135701D03*
X348000D03*
X358000D03*
X287000Y125701D03*
X317000D03*
X287000Y115701D03*
Y105701D03*
X317000Y115701D03*
Y105701D03*
G54D63*G36*
X333700Y101401D02*Y110001D01*
X342300D01*
Y101401D01*
X333700D01*
G37*
G54D65*X368000Y105701D03*
G54D63*G36*
X343700Y101401D02*Y110001D01*
X352300D01*
Y101401D01*
X343700D01*
G37*
G36*
X353700D02*Y110001D01*
X362300D01*
Y101401D01*
X353700D01*
G37*
G36*
X56121Y210818D02*Y217918D01*
X63221D01*
Y210818D01*
X56121D01*
G37*
G54D64*X59671Y224368D03*
G54D66*X377795Y82559D03*
X352205D03*
G54D63*G36*
X373700Y101401D02*Y110001D01*
X382300D01*
Y101401D01*
X373700D01*
G37*
G36*
X372300Y98001D02*Y89401D01*
X363700D01*
Y98001D01*
X372300D01*
G37*
G54D65*X378000Y93701D03*
G54D63*G36*
X381273Y61365D02*X374317D01*
Y68320D01*
X381273D01*
Y61365D01*
G37*
G54D66*X352205Y64843D03*
G54D65*X370000Y33701D02*X375157D01*
G54D67*X328740Y21654D03*
G54D63*G36*
X340858Y38001D02*X354658D01*
Y29401D01*
X340858D01*
Y38001D01*
G37*
G54D68*X300118Y30512D03*
X309961D03*
G54D65*X292000Y80701D03*
X312000D03*
G54D63*G36*
X305700Y48401D02*Y57001D01*
X314300D01*
Y48401D01*
X305700D01*
G37*
G54D65*X300000Y52701D03*
G54D67*X281339Y21654D03*
G54D68*X300118Y17913D03*
X309961D03*
G54D63*G36*
X56500Y204401D02*X50000Y213401D01*
X42000Y226401D01*
X36000Y239901D01*
X32000Y254901D01*
X30500Y268901D01*
X30000Y284401D01*
X32000Y297401D01*
X33500Y302901D01*
X46000Y295901D01*
Y290901D01*
X47000Y285901D01*
X52000Y280401D01*
X58500Y261401D01*
X56500Y258901D01*
X56000Y253901D01*
X57000Y248901D01*
X60000Y244901D01*
X68000Y215901D01*
X70000Y207401D01*
X69500Y201901D01*
X65500Y195401D01*
X56500Y204401D01*
G37*
G36*
X102587Y289116D02*X102228Y286185D01*
X99297Y286545D01*
X99657Y289475D01*
X102587Y289116D01*
G37*
G36*
X132171Y302482D02*X130477Y300063D01*
X128059Y301757D01*
X129752Y304176D01*
X132171Y302482D01*
G37*
G36*
X119437Y299734D02*X118574Y296910D01*
X115750Y297773D01*
X116613Y300597D01*
X119437Y299734D01*
G37*
G36*
X113466Y297020D02*X112852Y294132D01*
X109964Y294745D01*
X110578Y297634D01*
X113466Y297020D01*
G37*
G36*
X144746Y303169D02*X142848Y300907D01*
X140587Y302805D01*
X142484Y305067D01*
X144746Y303169D01*
G37*
G36*
X138509Y303140D02*X136611Y300878D01*
X134349Y302776D01*
X136247Y305038D01*
X138509Y303140D01*
G37*
G36*
X125978Y301504D02*X124591Y298897D01*
X121984Y300283D01*
X123370Y302890D01*
X125978Y301504D01*
G37*
G36*
X151108Y302581D02*X149020Y300493D01*
X146932Y302581D01*
X149020Y304669D01*
X151108Y302581D01*
G37*
G36*
X162524Y292377D02*X159893Y291036D01*
X158553Y293667D01*
X161183Y295008D01*
X162524Y292377D01*
G37*
G36*
X155637Y299841D02*X153543Y298819D01*
Y301575D01*
X155118Y302362D01*
X155637Y299841D01*
G37*
G36*
X167642Y289227D02*X165011Y287887D01*
X163671Y290518D01*
X166302Y291858D01*
X167642Y289227D01*
G37*
G36*
X167589Y288900D02*X164765Y288037D01*
X163901Y290861D01*
X166725Y291724D01*
X167589Y288900D01*
G37*
G36*
X171810Y284257D02*X168879Y283897D01*
X168519Y286828D01*
X171450Y287188D01*
X171810Y284257D01*
G37*
G36*
X172835Y279921D02*X171260Y278740D01*
X170169Y280265D01*
X171654Y281102D01*
X172835Y279921D01*
G37*
G36*
X172222Y263026D02*X171862Y260095D01*
X168931Y260455D01*
X169291Y263386D01*
X172222Y263026D01*
G37*
G36*
X171779Y267163D02*X169685Y266142D01*
X168988Y268060D01*
X170866Y269291D01*
X171779Y267163D01*
G37*
G36*
X175816Y257226D02*X175456Y254295D01*
X172525Y254655D01*
X172885Y257586D01*
X175816Y257226D01*
G37*
G36*
X178346Y250787D02*X177559Y248819D01*
X175984Y249606D01*
X176378Y251575D01*
X178346Y250787D01*
G37*
G36*
X179134Y245276D02*X178740Y243307D01*
X177165Y244094D01*
X177559Y246063D01*
X179134Y245276D01*
G37*
G36*
X171260Y220472D02*X169517Y219987D01*
X169227Y221632D01*
X171194Y221696D01*
X171260Y220472D01*
G37*
G36*
X68500Y358401D02*X76000Y364901D01*
X89500Y373901D01*
X106000Y381901D01*
X123500Y386401D01*
X139000Y387901D01*
X154000Y386901D01*
X169500Y383901D01*
X186000Y378401D01*
X199000Y371901D01*
X210500Y364401D01*
X222000Y352901D01*
X232500Y340401D01*
X241500Y324901D01*
X249000Y305401D01*
X251500Y286901D01*
Y274901D01*
X250500Y260401D01*
X247000Y245901D01*
X240500Y229401D01*
X231500Y215901D01*
X223000Y205401D01*
X206000Y216901D01*
X188500Y227401D01*
X191000Y246901D01*
X193000Y268401D01*
Y288901D01*
X190000Y300401D01*
X184500Y313901D01*
X174500Y325901D01*
X161000Y334901D01*
X149000Y338901D01*
X135500D01*
X122500Y334401D01*
X112500Y328401D01*
X104000Y318901D01*
Y324401D01*
X102500Y329901D01*
X100000Y335901D01*
X97000Y340401D01*
X91500Y345901D01*
X81500Y350401D01*
X72000Y352401D01*
X62500Y351901D01*
X68500Y358401D01*
G37*
G36*
X167622Y209698D02*X165738Y209126D01*
X165032Y210640D01*
X166916Y211211D01*
X167622Y209698D01*
G37*
G36*
X169291Y214961D02*X167706Y214244D01*
X167000Y215758D01*
X168504Y216535D01*
X169291Y214961D01*
G37*
G36*
X173622Y224409D02*X172164Y224674D01*
X172454Y226319D01*
X174325Y225706D01*
X173622Y224409D01*
G37*
G36*
X177546Y230256D02*X177165Y228740D01*
X175965Y228392D01*
X175675Y229643D01*
X177546Y230256D01*
G37*
G36*
X171654Y274016D02*X170866Y273228D01*
X170472Y274409D01*
X171260Y275197D01*
X171654Y274016D01*
G37*
G36*
X142994Y200169D02*X141732Y198819D01*
X140551Y200000D01*
X141732Y201575D01*
X142994Y200169D01*
G37*
G36*
X149606Y199606D02*X148425Y198425D01*
X146850Y199606D01*
X148031Y200787D01*
X149606Y199606D01*
G37*
G36*
X155512Y200000D02*X154724Y198819D01*
X153543Y199606D01*
X154331Y200787D01*
X155512Y200000D01*
G37*
G36*
X161024Y201181D02*X160236Y200394D01*
X159055Y200787D01*
X159843Y201575D01*
X161024Y201181D01*
G37*
G36*
X165748Y205118D02*X164173Y203937D01*
X162992Y205118D01*
X164567Y206299D01*
X165748Y205118D01*
G37*
G36*
X136536Y206961D02*X135758Y209158D01*
X129435Y216483D01*
X132000Y219901D01*
X133000Y225401D01*
X135500Y227901D01*
X142500D01*
X148000Y229401D01*
X135500Y231401D01*
X129000Y235901D01*
X121500Y243901D01*
X116500Y251401D01*
X111500Y261901D01*
X107000Y266901D01*
X105000Y273401D01*
X104274Y281635D01*
X111500Y288401D01*
X121000Y292901D01*
X129000Y294901D01*
X137500Y295901D01*
X145500Y294901D01*
X153500Y291901D01*
X161000Y285901D01*
X166000Y278401D01*
X165500Y272401D01*
X166000Y264401D01*
X169500Y256901D01*
X167000Y238401D01*
X166000Y227901D01*
X165000Y216901D01*
X162500Y210901D01*
X161000Y203901D01*
X158500Y202901D01*
X151500Y202401D01*
X143000Y203901D01*
X136500Y206901D01*
X136536Y206961D01*
G37*
G36*
X173000Y129901D02*X170500Y130901D01*
X167000D01*
X163500Y128901D01*
X162000Y126401D01*
X159500Y124401D01*
X156500Y123901D01*
X156000Y127901D01*
X157500Y130901D01*
X162000Y134901D01*
X166000Y134401D01*
X174500Y131401D01*
X178500Y129401D01*
X181500Y127401D01*
X186500Y124901D01*
X190000Y122401D01*
X191500Y119401D01*
X193500Y118401D01*
X197998Y116897D01*
X200000Y113901D01*
X202000Y109401D01*
X202157Y103289D01*
X196500Y97401D01*
X192500Y95401D01*
X187000Y94401D01*
X181500Y101901D01*
X176000Y101401D01*
X170500Y97401D01*
X167500Y98401D01*
Y100401D01*
X167000Y103401D01*
Y105901D01*
X168000Y107401D01*
X165000Y108901D01*
Y111901D01*
X166500Y113901D01*
X163500Y115401D01*
Y118401D01*
X166000Y119401D01*
X171000D01*
X174000Y121213D01*
Y128901D01*
X173000Y129901D01*
G37*
G36*
X107859Y293521D02*X107499Y290590D01*
X104568Y290950D01*
X104928Y293881D01*
X107859Y293521D01*
G37*
G36*
X63780Y77559D02*X62992Y76772D01*
X62598Y77953D01*
X63386Y78740D01*
X63780Y77559D01*
G37*
G36*
X64961Y82283D02*X63780Y81496D01*
X63392Y82746D01*
X64567Y83465D01*
X64961Y82283D01*
G37*
G36*
X66535Y87008D02*X65354Y86220D01*
X64967Y87470D01*
X66142Y88189D01*
X66535Y87008D01*
G37*
G36*
X68110Y91339D02*X66929Y90551D01*
X66541Y91801D01*
X67717Y92520D01*
X68110Y91339D01*
G37*
G36*
X70079Y95669D02*X68898Y95276D01*
X68904Y96525D01*
X70079Y96850D01*
Y95669D01*
G37*
G36*
X62992Y72441D02*X62205Y71654D01*
X61817Y72903D01*
X62598Y73622D01*
X62992Y72441D01*
G37*
G36*
X85000Y91901D02*X87500Y93401D01*
X91500Y93901D01*
X94000Y92401D01*
X94500Y89901D01*
X94000Y87901D01*
X96000Y88401D01*
X97500Y86901D01*
Y83901D01*
X96278Y82123D01*
X98500Y81901D01*
X100000Y80401D01*
X99000Y76401D01*
X98068Y74372D01*
X92000Y70401D01*
X87500Y73401D01*
X84500Y72901D01*
X82500Y70401D01*
Y63401D01*
X78000D01*
X72000Y65901D01*
X68000Y71401D01*
X67500Y78901D01*
X69000Y87401D01*
X74000Y97401D01*
X80000Y103901D01*
X86000Y108901D01*
X89000Y109401D01*
X92000Y107901D01*
X95500Y105901D01*
X97000Y104901D01*
X96500Y102401D01*
X95000Y100901D01*
X90500D01*
X87500Y101401D01*
X86000Y102901D01*
X81500D01*
X80500Y101401D01*
Y92401D01*
X80799Y91922D01*
X85000Y91901D01*
G37*
G36*
X63386Y62598D02*X62205Y61417D01*
X61024Y62598D01*
X62205Y63780D01*
X63386Y62598D01*
G37*
G36*
X62992Y68110D02*X62205Y66929D01*
X61417Y68110D01*
X62205Y69291D01*
X62992Y68110D01*
G37*
G36*
X72835Y99213D02*X71654Y98819D01*
X71660Y100068D01*
X72835Y100787D01*
Y99213D01*
G37*
G36*
X231496Y95276D02*X229856Y92640D01*
X227594Y94538D01*
X229492Y96799D01*
X231496Y95276D01*
G37*
G36*
X230315Y102756D02*X229134Y100394D01*
X226413Y101624D01*
X227953Y103937D01*
X230315Y102756D01*
G37*
G36*
X232542Y88209D02*X230644Y85947D01*
X228382Y87845D01*
X230280Y90107D01*
X232542Y88209D01*
G37*
G36*
X232935Y81516D02*X231037Y79254D01*
X228775Y81152D01*
X230673Y83414D01*
X232935Y81516D01*
G37*
G36*
Y74823D02*X231037Y72561D01*
X228775Y74459D01*
X230673Y76721D01*
X232935Y74823D01*
G37*
G36*
X233329Y68130D02*X231431Y65868D01*
X229169Y67766D01*
X231067Y70028D01*
X233329Y68130D01*
G37*
G36*
X227165Y108661D02*X225984Y106693D01*
X223622Y107480D01*
X224409Y109449D01*
X227165Y108661D01*
G37*
G36*
X233329Y61043D02*X231431Y58781D01*
X229169Y60679D01*
X231067Y62941D01*
X233329Y61043D01*
G37*
G36*
Y46476D02*X231431Y44214D01*
X229169Y46112D01*
X231067Y48374D01*
X233329Y46476D01*
G37*
G36*
X64138Y34595D02*X62598Y33071D01*
X60988Y34595D01*
X62598Y36220D01*
X64138Y34595D01*
G37*
G36*
Y40107D02*X62598Y38583D01*
X60988Y40107D01*
X62598Y41732D01*
X64138Y40107D01*
G37*
G36*
Y45618D02*X62598Y44094D01*
X60988Y45618D01*
X62598Y47244D01*
X64138Y45618D01*
G37*
G36*
X233329Y54350D02*X231431Y52088D01*
X229169Y53986D01*
X231067Y56248D01*
X233329Y54350D01*
G37*
G36*
Y38996D02*X231431Y36734D01*
X229169Y38632D01*
X231067Y40894D01*
X233329Y38996D01*
G37*
G36*
X233858Y31102D02*X231890D01*
X229563Y31152D01*
X231461Y33414D01*
X233858Y31102D01*
G37*
G36*
X64138Y51524D02*X62598Y50000D01*
X60988Y51524D01*
X62598Y53150D01*
X64138Y51524D01*
G37*
G36*
X63780Y57087D02*X62598Y55512D01*
X60988Y57036D01*
X62598Y58268D01*
X63780Y57087D01*
G37*
G54D69*X227542Y157482D02*X227044Y157560D01*
X227333Y156730D02*X226900Y156805D01*
X227282Y155609D02*X225561Y155459D01*
X225360Y157753D02*X225788Y157791D01*
X225561Y155459D02*X225360Y157753D01*
X228046Y155676D02*X229002Y155760D01*
X230907Y157776D02*X231383Y157940D01*
X229767Y155827D02*X230723Y155911D01*
X225293Y158518D02*X225721Y158556D01*
X224863Y154627D02*X227419Y154851D01*
X229069Y154995D02*X229210Y153381D01*
X228197Y154919D02*X229069Y154995D01*
X229834Y155062D02*X229975Y153448D01*
X229834Y155062D02*X230706Y155138D01*
X231242Y157073D02*X231656Y157221D01*
X232580Y158385D02*X233008Y158422D01*
X232513Y159150D02*X232941Y159187D01*
X233008Y158422D02*X233209Y156128D01*
X227965Y165500D02*X228384Y162118D01*
X226447Y159620D02*X225938Y162066D01*
X113778Y306884D02*X114279Y305343D01*
X112946Y306613D02*X113778Y306884D01*
X227344Y159066D02*X226689Y162219D01*
X225293Y158518D02*X224797Y164193D01*
X223893Y165717D02*X224863Y154627D01*
X114943Y310007D02*X115370Y310274D01*
X115428Y309397D02*X115798Y309634D01*
X116436Y310976D02*X116845Y311109D01*
X116199Y311706D02*X116608Y311839D01*
X114508Y307121D02*X115009Y305580D01*
X114271Y307851D02*X115184Y308148D01*
X115914Y308385D02*X117557Y308919D01*
X114508Y307121D02*X115341Y307391D01*
X116845Y311109D02*X117557Y308919D01*
X116151Y307655D02*X118524Y308426D01*
X110088Y316851D02*X111509Y313670D01*
X111185Y317201D02*X112120Y313924D01*
X114506Y311542D02*X113877Y314701D01*
X111730Y308963D02*X111228Y308927D01*
X115115Y312402D02*X114628Y314853D01*
X114848Y317257D02*X116608Y311839D01*
X115084Y319013D02*X118524Y308426D01*
X111255Y309623D02*X109891Y312328D01*
X110264Y309877D02*X109209Y311992D01*
X109365Y308793D02*X107632Y313751D01*
X106414Y315027D02*X109753Y305685D01*
X109590Y308212D02*X110000Y308326D01*
X109365Y308793D02*X109776Y308907D01*
X111696Y308184D02*X111258Y308159D01*
X111912Y306925D02*X110262Y306469D01*
X109590Y308212D01*
X109753Y305685D02*X112203Y306363D01*
X112628Y307317D02*X113541Y307614D01*
X229097Y165599D02*X229272Y162195D01*
X230826Y159370D02*X230924Y162590D01*
X231613Y160072D02*X231690Y162569D01*
X232445Y164862D02*X232941Y159187D01*
X233070Y166520D02*X234040Y155430D01*
X231488Y155977D02*X233209Y156128D01*
X231555Y155213D02*X234040Y155430D01*
X230723Y155911D02*G75*G03X230520Y156813I-3442J-301D01*G01*
X229210Y153380D02*G75*G02X228199Y154919I2278J2597D01*G01*
X228046Y155676D02*G75*G02X228090Y156601I3442J301D01*G01*
X229290Y156863D02*G75*G03X228331Y157351I-1205J-1183D01*G01*
X229002Y155760D02*G75*G03X228088Y156601I-918J-80D01*G01*
X229767Y155827D02*G75*G02X230521Y156814I918J80D01*G01*
X229242Y152402D02*G75*G02X227419Y154851I2246J3575D01*G01*
X229721Y151946D02*G75*G03X229242Y152402I-1273J-859D01*G01*
X229722Y151946D02*G75*G02X230115Y152478I1403J-624D01*G01*
X229293Y156863D02*G75*G02X230152Y157510I1392J-956D01*G01*
X230115Y152478D02*G75*G03X231485Y155207I-2833J3131D01*G01*
X231488Y155977D02*G75*G03X231242Y157073I-4206J-368D01*G01*
X229976Y153448D02*G75*G03X230704Y155139I-2695J2162D01*G01*
X227538Y157483D02*G75*G03X228385Y162118I-7102J3692D01*G01*
X227965Y165500D02*G75*G02X228383Y167254I2271J386D01*G01*
X229097Y165599D02*G75*G03X228381Y167254I-2303J-14D01*G01*
X228331Y157351D02*G75*G03X229057Y159551I-7894J3825D01*G01*
X230152Y157510D02*G75*G02X229055Y159550I7110J5138D01*G01*
X230910Y157778D02*G75*G02X229271Y162195I6353J4870D01*G01*
X232444Y164864D02*G75*G03X231691Y162569I3289J-2350D01*G01*
X231383Y157940D02*G75*G03X230826Y159368I-321J698D01*G01*
X231656Y157221D02*G75*G03X232577Y158385I-593J1416D01*G01*
X232510Y159149D02*G75*G03X231613Y160071I-1448J-511D01*G01*
X233070Y166520D02*G75*G03X230924Y162590I2662J-4006D01*G01*
X224797Y164195D02*G75*G02X225937Y162065I-2831J-2885D01*G01*
X225724Y158555D02*G75*G02X226448Y159619I1515J-252D01*G01*
X223893Y165717D02*G75*G02X226689Y162219I-1926J-4407D01*G01*
X227282Y155609D02*G75*G02X227333Y156730I4206J368D01*G01*
X226900Y156805D02*G75*G02X225791Y157792I338J1498D01*G01*
X115914Y308385D02*G75*G03X115428Y309397I-4016J-1305D01*G01*
X115184Y308148D02*G75*G03X114783Y308981I-3286J-1068D01*G01*
X112628Y307317D02*G75*G02X112463Y308228I3286J1068D01*G01*
X113573Y308753D02*G75*G03X112530Y309013I-908J-1424D01*G01*
X114271Y307851D02*G75*G02X114784Y308982I876J285D01*G01*
X114530Y304396D02*G75*G02X112202Y306372I1384J3989D01*G01*
X115010Y305580D02*G75*G03X115339Y307391I-3112J1500D01*G01*
X114278Y305342D02*G75*G02X112948Y306614I1636J3043D01*G01*
X113541Y307614D02*G75*G03X112461Y308228I-876J-285D01*G01*
X113576Y308754D02*G75*G02X114267Y309577I1572J-618D01*G01*
X115798Y309634D02*G75*G03X116434Y310976I-896J1247D01*G01*
X115370Y310274D02*G75*G03X114506Y311539I-469J608D01*G01*
X116197Y311705D02*G75*G03X115115Y312401I-1296J-824D01*G01*
X227044Y157560D02*G75*G02X227345Y159063I195J743D01*G01*
X115363Y304666D02*G75*G03X116084Y307633I-3465J2414D01*G01*
X115099Y304059D02*G75*G03X114530Y304396I-1047J-1123D01*G01*
X115100Y304060D02*G75*G02X115363Y304666I1507J-293D01*G01*
X114548Y310488D02*G75*G02X111960Y314414I5094J6174D01*G01*
X114846Y317258D02*G75*G03X114629Y314853I3733J-1550D01*G01*
X115084Y319013D02*G75*G03X113877Y314701I3495J-3304D01*G01*
X110107Y316811D02*G75*G02X110120Y318614I2125J887D01*G01*
X111188Y317162D02*G75*G03X110118Y318614I-2241J-532D01*G01*
X111727Y308964D02*G75*G03X111510Y313670I-7750J2000D01*G01*
X112529Y309013D02*G75*G03X112741Y311320I-8552J1951D01*G01*
X114268Y309578D02*G75*G02X112740Y311319I5772J6605D01*G01*
X111898Y307080D02*G75*G02X111696Y308184I4016J1305D01*G01*
X111166Y308163D02*X111037Y308167D01*
X110909Y308179D01*
X110782Y308201D01*
X110659Y308230D01*
X110538Y308268D01*
X110423Y308313D01*
X110312Y308367D01*
X110207Y308427D01*
X110109Y308494D01*
X110019Y308568D01*
X109937Y308648D01*
X109863Y308732D01*
X110907Y308679D02*X110841Y308682D01*
X110776Y308691D01*
X110711Y308704D01*
X110649Y308721D01*
X110588Y308743D01*
X110530Y308768D01*
X110475Y308798D01*
X110423Y308831D01*
X110375Y308868D01*
X110332Y308908D01*
X110292Y308950D01*
X110258Y308996D01*
X110228Y309043D01*
X110204Y309092D01*
X110185Y309143D01*
X110172Y309195D01*
X110164Y309248D01*
X110162Y309301D01*
X110166Y309354D01*
X110176Y309406D01*
X110191Y309458D01*
X110211Y309508D01*
X110237Y309557D01*
X110268Y309604D01*
X110304Y309649D01*
X110345Y309690D01*
X110390Y309729D01*
X110439Y309765D01*
X110492Y309797D01*
X110548Y309825D01*
X110607Y309850D01*
X110668Y309870D01*
X110732Y309886D01*
X110796Y309897D01*
X110862Y309904D01*
X107645Y313065D02*X107936Y312908D01*
X108209Y312732D01*
X108461Y312538D01*
X108692Y312327D01*
X108898Y312101D01*
X109080Y311861D01*
X109235Y311610D01*
X109558Y309191D02*X109555Y309297D01*
X109564Y309403D01*
X109585Y309508D01*
X109616Y309611D01*
X109659Y309712D01*
X109712Y309809D01*
X109776Y309902D01*
X109849Y309990D01*
X109932Y310073D01*
X110023Y310150D01*
X106422Y314088D02*X106800Y314019D01*
X107170Y313925D01*
X107529Y313808D01*
X107876Y313668D01*
X108207Y313506D01*
X108520Y313324D01*
X108815Y313121D01*
X109088Y312901D01*
X109338Y312663D01*
X109563Y312410D01*
X109762Y312144D01*
X109933Y311865D01*
M02*
