G04 start of page 2 for group 1 layer_idx 6 *
G04 Title: (unknown), top_silk *
G04 Creator: pcb-rnd 3.1.4-dev *
G04 CreationDate: 2024-02-11 13:06:30 UTC *
G04 For: STEM4ukraine *
G04 Format: Gerber/RS-274X *
G04 PCB-Dimensions: 393701 393701 *
G04 PCB-Coordinate-Origin: lower left *
%MOIN*%
%FSLAX25Y25*%
%LNTOP_SILK_NONE_1*%
%ADD57C,0.0350*%
%ADD56C,0.0070*%
%ADD55C,0.0160*%
%ADD54C,0.0250*%
%ADD53C,0.0300*%
%ADD52C,0.0197*%
%ADD51C,0.0150*%
%ADD50C,0.0100*%
%ADD49C,0.0110*%
%ADD48C,0.0200*%
%ADD47C,0.0210*%
%ADD46C,0.0001*%
G54D46*G36*
X57500Y316901D02*X55500Y324401D01*
X54500Y329401D01*
X62000Y333401D01*
X70000Y334901D01*
X77500Y334401D01*
X81245Y332942D01*
X82000Y324401D01*
X81000Y311401D01*
X77000Y325901D01*
X72000Y326901D01*
X65000Y325401D01*
X60000Y322901D01*
X64000Y308401D01*
X63000Y308901D01*
X57500Y316901D01*
G37*
G36*
X90616Y324143D02*X90387Y329975D01*
X94000Y331901D01*
X98000Y329901D01*
X102000Y326901D01*
X103000Y324401D01*
X97500Y318901D01*
X90500Y323901D01*
X90616Y324143D01*
G37*
G36*
X41000Y335401D02*X43500Y332401D01*
X44000Y329401D01*
X46500Y321901D01*
X44500Y318401D01*
X44000Y310401D01*
X45500Y302401D01*
X48500Y296901D01*
X46000Y295901D01*
X33000Y303401D01*
X28000Y309901D01*
X27000Y317901D01*
X29000Y325901D01*
X40500Y335401D01*
X41000D01*
G37*
G36*
X129500Y216401D02*X120500Y225901D01*
X117000Y224901D01*
X115500Y228401D01*
X116500Y230401D01*
X112500Y244401D01*
X106500Y263401D01*
X99500Y267901D01*
X99000Y281401D01*
X104274Y281635D01*
X104000Y274901D01*
X106500Y268401D01*
X111500Y262901D01*
X115000Y254901D01*
X121500Y243401D01*
X130000Y234901D01*
X140000Y230401D01*
X147500Y229901D01*
X143500Y227901D01*
X137000Y229401D01*
X133500Y226401D01*
X133000Y221901D01*
X129435Y216483D01*
X129500Y216401D01*
G37*
G36*
X106000Y168401D02*X108000Y170401D01*
X110000Y171901D01*
X112500Y172901D01*
X115500Y173401D01*
X118000Y172401D01*
X120000Y170401D01*
X122500D01*
X127500Y169401D01*
X128000Y167401D01*
X120500Y159401D01*
X119500Y159901D01*
Y161401D01*
X118000Y161901D01*
Y164901D01*
X117000Y165901D01*
X115000D01*
X113000Y164901D01*
X106000Y167901D01*
Y168401D01*
G37*
G36*
X110000Y222401D02*X118500Y195401D01*
X110000Y185901D01*
X109500Y188401D01*
X111500Y189901D01*
X112000Y190901D01*
Y196401D01*
X111000Y200901D01*
X109500Y204901D01*
X111500Y206401D01*
X108000Y213901D01*
X106000Y218901D01*
X105500Y223401D01*
X110000Y222401D01*
G37*
G36*
X122500Y286401D02*X129000Y289401D01*
X135000Y290901D01*
X143000D01*
X147500Y289901D01*
Y288901D01*
X141000D01*
X136500Y288401D01*
X132500Y286901D01*
X129000Y284901D01*
X126500Y282401D01*
X122500Y286401D01*
G37*
G36*
X119000Y277901D02*X117500Y278401D01*
X115500Y278901D01*
X113000D01*
X110500Y278401D01*
X107500Y276901D01*
X105000Y274901D01*
Y277901D01*
X106000Y279901D01*
X110000Y281401D01*
X113000Y282401D01*
X118000Y284401D01*
X118500Y283901D01*
Y279901D01*
X119500Y277901D01*
X119000D01*
G37*
G36*
X77500Y208901D02*X76000D01*
X75500Y205901D01*
X72500Y203901D01*
X72000Y198401D01*
X71000Y191901D01*
X72000Y183901D01*
X74500Y172901D01*
X77000Y160401D01*
X80500Y149401D01*
X84000Y129901D01*
Y123401D01*
X86500D01*
X89000Y121401D01*
X93000Y118901D01*
X97500Y118401D01*
X97000Y117901D01*
X96500Y115401D01*
X93000Y112901D01*
X90000Y109401D01*
X87887Y109573D01*
X82000Y105901D01*
X78000Y102401D01*
X76000Y99901D01*
X74500Y101401D01*
X72500Y101901D01*
X69000Y102901D01*
X65500D01*
X61500Y102401D01*
X57000Y105901D01*
X50500Y107901D01*
X45000Y113901D01*
X52500Y110901D01*
X56500D01*
X59500Y112401D01*
X62500Y116901D01*
X69500Y112901D01*
X78000Y110901D01*
X76500Y116401D01*
X75000Y122901D01*
X75500Y130901D01*
X74500Y141401D01*
X70500Y165401D01*
X69000Y171901D01*
X65500Y174401D01*
X66000Y178901D01*
X67000Y183401D01*
X68500Y190401D01*
X70500Y196901D01*
Y202901D01*
X70000Y210901D01*
X75000Y216901D01*
X77500Y208901D01*
G37*
G36*
X152500Y131901D02*X150500Y128401D01*
X149000Y126901D01*
X149500Y123901D01*
X151500Y122901D01*
Y119901D01*
X150000Y117401D01*
X147500Y120401D01*
X144000Y123901D01*
X138000Y126401D01*
X141500Y133401D01*
X152500Y131901D01*
G37*
G36*
X91000Y132901D02*X97000Y129401D01*
X88000Y124401D01*
X83500Y127901D01*
X84000Y128901D01*
X91000Y132901D01*
G37*
G36*
X74000Y97401D02*X72500Y94901D01*
X70000Y89901D01*
X68500Y84401D01*
X67500Y76901D01*
X68000Y70901D01*
X69500Y68401D01*
X71500Y66401D01*
X74000Y64901D01*
X82000Y62401D01*
Y56401D01*
X83000Y48401D01*
X85500Y40401D01*
X89500Y30401D01*
X78500D01*
X76000Y33901D01*
X74000Y37401D01*
X72000Y41401D01*
X71500D01*
X72500Y37901D01*
X74500Y34401D01*
X77000Y30401D01*
X75000D01*
X72000Y32401D01*
X70000Y34901D01*
X70500Y31901D01*
X72500Y30401D01*
X65500Y29901D01*
X66000Y37401D01*
X65500Y49401D01*
X65000Y58901D01*
X64500Y60901D01*
X64000Y65401D01*
X63500Y70901D01*
X64000Y75901D01*
X65500Y82901D01*
X68000Y89401D01*
X70500Y94901D01*
X73000Y97901D01*
X74000Y97401D01*
G37*
G36*
X153500Y117901D02*X152500Y121401D01*
Y124901D01*
X153000Y129401D01*
Y131901D01*
X151500Y135401D01*
X154000Y136401D01*
X155500Y133401D01*
X160000Y136401D01*
X164500Y139901D01*
X171000Y146401D01*
X168500Y138901D01*
Y136401D01*
X170500Y135401D01*
X177000D01*
X178000Y140901D01*
X182000Y149901D01*
X192000Y167401D01*
X195500Y171401D01*
X188500Y158401D01*
X185000Y145401D01*
X184000Y133901D01*
X185000Y130901D01*
X189500Y127401D01*
X193000D01*
X196500Y132401D01*
Y142401D01*
X201500Y154401D01*
X199000Y134401D01*
X198000Y125401D01*
X199000Y123401D01*
X203500Y117901D01*
X199000Y118901D01*
Y115901D01*
X195500Y117901D01*
X192290Y119049D01*
X187500Y124401D01*
X182500Y127401D01*
X180500D01*
X176500Y130901D01*
X172000Y132401D01*
X167000Y134401D01*
X164000Y134901D01*
X162000D01*
X158152Y131232D01*
X156500Y128901D01*
X156000Y126901D01*
X156500Y123901D01*
X159000Y124401D01*
X162000Y126401D01*
X163500Y128401D01*
X165000Y127901D01*
X165205Y121901D01*
X167500Y119606D01*
X164500Y119401D01*
X163000Y118401D01*
Y116401D01*
X164000Y114901D01*
X166000Y113901D01*
X165000Y112401D01*
X164500Y111901D01*
Y109401D01*
X165500Y108401D01*
X167000Y107901D01*
X166500Y104901D01*
X167000Y102901D01*
X167500Y101901D01*
X167000Y100901D01*
Y98401D01*
X164000Y99901D01*
X165000Y102401D01*
X164346Y104261D01*
X158500Y108901D01*
X153500Y117901D01*
G37*
G36*
X150000Y158901D02*X153500Y160401D01*
X160000Y165901D01*
X162500Y166401D01*
X158500Y161401D01*
X152500Y155401D01*
X151000Y153401D01*
Y147401D01*
X149000Y147901D01*
X147000Y156401D01*
X147500Y158901D01*
X150000D01*
G37*
G36*
X113000Y41401D02*X118000Y47401D01*
X132000Y56901D01*
X147000Y60901D01*
X157500Y61901D01*
X171000Y59401D01*
X180000Y55401D01*
X184500Y50901D01*
X187500Y46901D01*
X188500Y40401D01*
X187802Y34230D01*
X195000Y42401D01*
X200000Y51401D01*
X203500Y59401D01*
X199000Y52401D01*
X192500Y44401D01*
X190000Y49401D01*
X196000Y57901D01*
X197000Y67901D01*
X195500Y76901D01*
X193000Y79401D01*
X190500Y87901D01*
X187420Y93820D01*
X194500Y96401D01*
X202500Y102901D01*
X204500Y102401D01*
X202500Y89401D01*
X203000Y85401D01*
X207500Y76901D01*
X211000Y77901D01*
Y70401D01*
X213500Y59401D01*
X218000Y49901D01*
X224000Y41901D01*
X226000Y39901D01*
Y29401D01*
X110500Y29901D01*
X113000Y41401D01*
G37*
G36*
X223500Y44401D02*X224000Y49401D01*
X220000Y54401D01*
X217000Y62401D01*
X213500Y72401D01*
X212000Y78401D01*
X214000Y79401D01*
X216500Y73401D01*
X220500Y66901D01*
X225000Y64901D01*
X226000Y64401D01*
X225500Y39901D01*
X223000Y41401D01*
X222500Y41901D01*
X223500Y44401D01*
G37*
G36*
X217500Y81901D02*X219000Y77901D01*
X220500Y74901D01*
X223500Y69901D01*
X223000Y69401D01*
X221500D01*
X220000Y70901D01*
X218500Y72901D01*
X215500Y80401D01*
X217500Y81901D01*
G37*
G36*
X221000Y82401D02*X221500Y81401D01*
X222500Y80401D01*
X224500Y79401D01*
X226000Y78901D01*
Y75901D01*
X224500Y76401D01*
X221500Y79401D01*
X220500Y80901D01*
X220000Y82401D01*
Y83401D01*
X220500Y83901D01*
X221000Y82401D01*
G37*
G36*
X226000Y70901D02*X224500Y71901D01*
X223000Y73401D01*
X221500Y75401D01*
X220000Y77901D01*
X219000Y80401D01*
X218500Y82901D01*
X219000Y83401D01*
X220000Y80901D01*
X220500Y79401D01*
X221500Y77401D01*
X222500Y75901D01*
X224000Y74401D01*
X226000Y73401D01*
Y70901D01*
G37*
G36*
X58000Y103401D02*X53000Y97901D01*
X46000Y84901D01*
X45500Y86401D01*
X50702Y102126D01*
X58000Y103401D01*
G37*
G36*
X147000Y160401D02*X144344Y169445D01*
X145000Y172401D01*
X147000Y172901D01*
X150500Y174401D01*
X153000Y177401D01*
X159000Y183401D01*
X166500Y192401D01*
X167500D01*
X160000Y180901D01*
X155000Y171901D01*
X153500D01*
X152000Y171401D01*
X148000Y165401D01*
Y163901D01*
X149000Y162901D01*
X147000Y159901D01*
Y160401D01*
G37*
G36*
X170000Y170401D02*X166000Y162401D01*
X162500Y156401D01*
X159000Y150901D01*
X154500Y144901D01*
X154000Y143901D01*
X153500Y142401D01*
Y139901D01*
X154000Y137901D01*
Y135401D01*
X152500Y135901D01*
X150000Y146401D01*
X155000Y150901D01*
X162500Y159401D01*
X168000Y168401D01*
X173000Y178901D01*
X173500D01*
X170000Y170401D01*
G37*
G36*
X171000Y212401D02*X170500Y208901D01*
Y206401D01*
X169500Y202901D01*
X167500Y199401D01*
X165500Y198901D01*
X163000Y196401D01*
X161000Y192901D01*
X159500Y189901D01*
X159000Y186401D01*
X157500Y183401D01*
X157000Y185901D01*
X159500Y197401D01*
X161500Y199901D01*
X162500Y200401D01*
X164500Y201901D01*
X166000Y203901D01*
X167000Y205401D01*
X169000Y209401D01*
X170000Y212901D01*
X170500Y215901D01*
X171500Y216401D01*
X171000Y212401D01*
G37*
G36*
X173500Y251901D02*X175500Y249401D01*
X177000Y245401D01*
X177500Y242401D01*
Y236401D01*
X177000Y233901D01*
X176500Y230901D01*
X173000Y227901D01*
X170500Y224901D01*
X168500Y222401D01*
X166000Y217401D01*
X165000Y216901D01*
X168500Y244401D01*
X169500D01*
X167500Y225901D01*
X168500Y225401D01*
X170500Y227901D01*
X172000Y229401D01*
X174500Y232901D01*
X176000Y235401D01*
X176500Y238401D01*
Y241401D01*
X176000Y243401D01*
Y241901D01*
X175500Y237901D01*
X174500Y235401D01*
X173000Y232401D01*
X171500Y230401D01*
Y253901D01*
X173500Y251901D01*
G37*
G36*
X173000Y292901D02*X174000Y286401D01*
X174500Y283401D01*
Y279901D01*
X174000Y273401D01*
Y269901D01*
X173000D01*
X172000Y270401D01*
X170500Y270901D01*
X171000Y272401D01*
X172000Y274401D01*
X172500Y275901D01*
X173000Y279401D01*
Y285401D01*
X171500Y288401D01*
X171000Y291401D01*
X173000Y292901D01*
G37*
G36*
X202500Y186901D02*X205500Y188401D01*
X210000Y190401D01*
X214000Y191901D01*
X218000Y192401D01*
X214500Y189901D01*
X209000Y185901D01*
X208000Y186901D01*
X205500D01*
X203000Y185901D01*
X202500Y186901D01*
G37*
G36*
X187500Y230401D02*X189500Y239901D01*
X191000Y238901D01*
X190000Y228401D01*
X192500Y224901D01*
X222000Y205901D01*
X221500Y203901D01*
X213000Y209401D01*
X203500Y215401D01*
X201000Y216901D01*
X198000Y218401D01*
X196000Y219901D01*
X194500Y220901D01*
X192500Y221401D01*
X190500Y220901D01*
X189000Y219401D01*
X187500Y216901D01*
X186500Y214401D01*
X186000Y211901D01*
X185000Y209401D01*
X184500D01*
Y210401D01*
X185500Y213401D01*
X186000Y216901D01*
X187000Y223401D01*
X187500Y229401D01*
Y230401D01*
G37*
G36*
X265000Y29901D02*X243000D01*
Y32901D01*
X245000Y34401D01*
X247000Y36901D01*
X249000Y45401D01*
X252500Y48901D01*
X256000Y37401D01*
X261000Y52901D01*
X262500Y90401D01*
X265000Y91401D01*
Y29901D01*
G37*
G36*
X231000Y192401D02*X234500Y191401D01*
X239500Y189901D01*
X244000Y188401D01*
X246000Y180401D01*
X243500D01*
X242500Y183401D01*
X240000Y185401D01*
X232000Y190401D01*
X227000Y191901D01*
Y192901D01*
X231000Y192401D01*
G37*
G36*
X125000Y334901D02*X118000Y331401D01*
X109000Y324401D01*
X102500Y315901D01*
X95641Y301862D01*
X96000Y317401D01*
X104000Y324401D01*
X108500Y327901D01*
X113500Y331401D01*
X119000Y333901D01*
X124500Y335901D01*
X125000Y334901D01*
G37*
G36*
X13500Y40901D02*X15000Y36401D01*
X17500Y33401D01*
X16000Y38401D01*
X15000Y49401D01*
X15500Y56401D01*
X16500Y47401D01*
X18000Y40901D01*
X19500Y36901D01*
X21000Y33401D01*
X21500Y34401D01*
X21000Y45401D01*
X20500Y57401D01*
X21000Y67401D01*
Y81901D01*
X22000D01*
X23000Y60401D01*
X23500Y54401D01*
X24500Y45901D01*
X26500Y46401D01*
X25000Y54401D01*
X24500Y63401D01*
X27000Y50901D01*
X29500Y40401D01*
X32000Y33901D01*
X33000Y34401D01*
X34000Y39401D01*
Y45901D01*
X35000Y46901D01*
X35500Y57901D01*
X37500Y71401D01*
X38500Y70901D01*
X37000Y49401D01*
X39500Y37401D01*
X42500Y29901D01*
X11000D01*
Y50401D01*
X13500Y40901D01*
G37*
G36*
X32000Y120401D02*X30500Y118401D01*
X26500Y112901D01*
X23500Y108401D01*
X21000Y103401D01*
X19000Y97901D01*
X17500Y91901D01*
X16500Y84401D01*
Y70901D01*
X17500Y67401D01*
X18500Y64901D01*
X19000Y58901D01*
Y46901D01*
X18000D01*
X17500Y53901D01*
X17000Y58901D01*
X16000Y63401D01*
X15000Y66401D01*
X14000D01*
X13500Y62901D01*
Y58401D01*
X13000Y54401D01*
X11500Y52401D01*
X11000Y51901D01*
Y88401D01*
X11500Y96901D01*
X14500Y102901D01*
X18000Y108901D01*
X21500Y112901D01*
X25500Y116401D01*
X28500Y118901D01*
X31000Y120401D01*
X31500D01*
X32000D01*
G37*
G36*
X33000Y114401D02*Y113401D01*
X32500Y112401D01*
X31500Y109901D01*
X31000Y106901D01*
Y105401D01*
X32500Y104901D01*
X33000Y107901D01*
X34000Y110901D01*
X35000Y113401D01*
X36000Y115401D01*
X36500D01*
X35500Y112401D01*
X34500Y106901D01*
X34000Y101401D01*
X33000Y82401D01*
X30000Y70901D01*
X29500Y63401D01*
X30000Y60901D01*
X31500Y53901D01*
X32000Y51401D01*
Y41901D01*
X31500Y41401D01*
X31000Y41901D01*
X30500Y52401D01*
X29500Y56901D01*
X28500Y59401D01*
X27500Y63401D01*
X26500Y68901D01*
X26000Y73401D01*
Y80901D01*
X27000Y94401D01*
X28500Y102401D01*
X30000Y108901D01*
X32000Y113401D01*
X32500Y113901D01*
X33000Y114401D01*
G37*
G54D47*X64000Y351901D02*X72000D01*
G54D48*X90500Y311401D02*Y328901D01*
X60320Y322618D02*X64530Y307469D01*
X81000Y310901D02*X77000Y325901D01*
G54D47*X58000Y261901D02*X52000Y280901D01*
G54D48*X33500Y303401D02*X46049Y296398D01*
X44000Y328901D02*X50500Y312401D01*
X98500Y263401D02*Y267401D01*
X96645Y281204D02*X96500Y275901D01*
X113577Y271426D02*X116423Y272375D01*
G54D47*X147278Y319144D02*X151442Y314966D01*
G54D48*X138000Y281901D02*X140923Y282375D01*
G54D49*X156800Y303601D02*X160200Y301001D01*
X163300Y299101D01*
G54D48*X95500Y302901D02*X96000Y319401D01*
X95939Y317401D02*X103500Y324901D01*
X40805Y336229D02*X28500Y325401D01*
G54D49*X121000Y275901D02*X125000Y258901D01*
X129000Y273901D02*X127000Y282901D01*
X126000Y253901D02*X127000Y252901D01*
G54D47*X117000Y223901D02*X125000Y195901D01*
G54D49*X133000Y247901D02*X135000D01*
X127000Y252901D02*X128500Y252401D01*
X130000Y252901D01*
G54D48*X120000Y225901D02*X115625Y224862D01*
X135758Y209158D02*X120000Y225901D01*
G54D49*X130000Y252901D02*X131500Y254401D01*
X133500Y255901D01*
X134500Y256401D01*
X132500Y255151D02*X134000Y255401D01*
X137000Y249901D02*X141000D01*
G54D48*X137000Y204601D02*X148400Y202701D01*
G54D49*X134500Y256401D02*X136000D01*
G54D48*X98500Y263401D02*X107000Y234401D01*
X106420Y263466D02*X116500Y230901D01*
X107000Y234401D02*X115000Y229401D01*
X60206Y244089D02*X70000Y210401D01*
X64500Y257901D02*X76500Y218401D01*
X65162Y194774D02*X70000Y202401D01*
G54D49*X80500Y211901D02*X84000D01*
G54D48*X76500Y202901D02*X83000D01*
X76500D02*X76000Y208401D01*
X82000D01*
G54D49*X83500Y200901D02*Y202901D01*
X93000Y209901D02*X96000Y198901D01*
X90000Y215401D02*X90159Y215024D01*
X83500Y200901D02*X85500D01*
G54D48*X81000Y208401D02*X77500Y219401D01*
G54D49*X103000Y211901D02*X106500Y200901D01*
X106000Y202901D02*X112000Y206401D01*
X103375Y210776D02*X109000Y214401D01*
X103841Y218777D02*X104000Y218401D01*
X96000Y198901D02*X106500Y200901D01*
X93000Y209901D02*X103000Y211901D01*
G54D47*X119000Y195901D02*X135000Y192901D01*
X127487Y215389D02*X143000Y169901D01*
X119000Y195901D02*X109000Y184901D01*
G54D48*X135758Y209158D02*X143000Y180901D01*
G54D47*X119000Y195901D02*X130000Y161901D01*
X126000Y159901D02*X121000Y154901D01*
X130000Y161901D02*X126359Y157901D01*
X120000Y158901D02*X124000Y142901D01*
G54D49*X134500Y154401D02*X131000D01*
X132500Y143901D02*X135812D01*
X131500Y146901D02*X132500Y147901D01*
X135062D01*
G54D47*X131545Y129053D02*X126000Y159901D01*
G54D49*X136000Y142901D02*X134500Y150901D01*
X136000Y133901D02*X133500Y143901D01*
X131000Y145901D02*X131500Y146901D01*
G54D47*X136000Y133901D02*X132000Y127901D01*
G54D49*X131000Y145901D02*X131500Y142901D01*
X132500Y143901D01*
Y147901D02*X129524Y161377D01*
G54D47*X113000Y159901D02*X120000Y158901D01*
X115000Y141901D02*X124000Y142901D01*
G54D49*X141500Y142351D02*X136000Y142901D01*
X134625Y139401D02*X141500Y138901D01*
Y142351D01*
Y138901D02*X142000Y135901D01*
X143000Y133026D01*
X134500Y150901D02*X138500D01*
X138000Y153901D01*
X134500Y154401D01*
G54D47*X109000Y184901D02*X111000Y176901D01*
G54D49*X105500D02*X111125Y176401D01*
G54D48*X104000Y169901D02*X102500Y175401D01*
X103500Y167401D02*X101500Y174401D01*
G54D49*X98500Y163401D02*X102000Y150901D01*
X97000Y148901D02*X102000Y150901D01*
G54D48*X112000Y141401D02*X107500Y158901D01*
G54D47*X99000Y129901D02*X105000Y135901D01*
X109000Y131901D01*
G54D49*X105761Y146945D02*X105440Y144818D01*
G54D48*X111000Y140401D02*X104000Y167401D01*
G54D47*X109000Y131901D02*X103000Y125901D01*
X99000Y129901D01*
G54D48*X93500Y113401D02*X96500Y115401D01*
X97062Y117846D01*
G54D49*X79500Y91901D02*X83714Y91893D01*
X91524Y94508D02*X93000Y93401D01*
G54D48*X90500Y109901D02*X93500Y113401D01*
G54D49*X79000Y82901D02*X85000Y83901D01*
X90000Y85901D02*X92385Y87085D01*
X94000Y87901D02*X92500Y87142D01*
X97736Y84783D02*X97692Y84709D01*
X73000Y82901D02*X79000D01*
X73000Y75901D02*X77000Y74901D01*
X81000Y74401D01*
G54D47*X84355Y71754D02*X86565Y73466D01*
G54D49*X85000Y83901D02*X90000Y85901D01*
X81000Y74401D02*X83000D01*
X86500Y75901D01*
X91000Y77901D01*
X76000Y92401D02*X79500Y91901D01*
X96000Y81901D02*X97736Y84783D01*
X98500Y81901D02*X96278Y82123D01*
X91000Y77901D02*X96278Y82123D01*
X63900Y88301D02*X65200Y91901D01*
X66700Y95501D01*
X68700Y98801D01*
X70500Y101001D01*
X67500Y74901D02*Y75901D01*
X61100Y76501D02*X62400Y82601D01*
X63900Y88301D01*
X70500Y101001D02*X71800Y102701D01*
X91000Y132401D02*X87203Y160084D01*
X83000Y166901D02*X89094Y161495D01*
X84000Y128401D02*X80500Y150901D01*
X72000Y183901D02*X77000Y174401D01*
X83000Y166901D01*
X70500Y190901D02*X79000Y200401D01*
X96500Y129401D02*X89000Y161901D01*
X94964Y161936D02*X98500Y151901D01*
X95000Y150401D01*
X93219Y143620D02*X96500Y146401D01*
X96771Y146630D02*X97000Y148901D01*
G54D48*X92500Y181401D02*Y179401D01*
G54D47*X132000Y127901D02*X136957Y126729D01*
X124000Y123901D02*X132729Y123957D01*
X109923Y138631D02*X90000Y211901D01*
X113000Y104901D02*Y119901D01*
X120000Y106901D02*X124000Y123901D01*
X130000Y161901D02*X147000Y157901D01*
G54D48*X143000Y169901D02*X144344Y169445D01*
X147500Y157783D01*
G54D47*X133000Y107901D02*X144000D01*
X146000Y113901D02*X135000D01*
X146121Y108779D02*X147000Y112901D01*
X11000Y86901D02*Y29901D01*
X51932Y62898D02*X52000Y75901D01*
X50702Y102126D02*X59171Y103987D01*
G54D49*X59300Y54901D02*X59400Y60601D01*
X59000Y29901D02*X59100Y39801D01*
Y43601D01*
X59300Y54901D01*
X59400Y60601D02*X59800Y66201D01*
X60300Y71201D01*
X61100Y76501D01*
G54D48*X59000Y14701D02*X74000D01*
G54D47*X147000Y157901D02*X153000Y135901D01*
G54D48*X147155Y159056D02*X155500Y173401D01*
X160000Y180401D01*
G54D47*X184135Y174122D02*X186903Y183247D01*
G54D49*X177000Y168901D02*X178000Y172401D01*
X179000Y176401D01*
X179500Y177901D01*
X180500Y179901D01*
X182500Y182901D01*
X171500Y157901D02*X173500Y161401D01*
X175500Y165401D01*
X177000Y168901D01*
X171500Y168401D02*X173500Y171901D01*
X175500Y175901D01*
X178000Y181401D01*
X162000Y146901D02*X167000Y151901D01*
X169500Y154901D01*
X171500Y157901D01*
X182500Y182901D02*X183500Y183901D01*
G54D47*X153000Y135901D02*X151000D01*
X152000Y131901D01*
G54D49*X162000Y134901D02*X158152Y131232D01*
X186500Y111401D02*X181500Y107901D01*
X169000Y113901D02*X167500D01*
X178500Y122901D02*X176500Y121901D01*
X174500Y121401D01*
X170500Y119901D02*X174500Y121401D01*
X165500Y114401D02*X168000Y113901D01*
X165500Y119401D02*X170500Y119901D01*
X165205Y121901D02*X167500Y119606D01*
X174000Y126901D02*Y121213D01*
X165205Y130150D02*Y121901D01*
X156000Y126401D02*X156500Y123901D01*
G54D47*X94000Y68901D02*X99000Y54901D01*
X152000Y131901D02*X136000Y133901D01*
G54D49*X181500Y107901D02*X179500Y107401D01*
X181500Y101901D02*X187500Y105401D01*
X207500Y77401D02*X203000Y85901D01*
Y87901D01*
X201884Y102913D02*X204331Y102756D01*
G54D48*X187802Y34230D02*X193000Y40401D01*
X190000Y49401D01*
X191177Y50684D01*
G54D49*X197998Y116897D02*X200000Y118110D01*
X179500Y107401D02*X168500D01*
X166386Y108115D01*
X169500Y101401D02*X176000D01*
X181500Y101901D01*
G54D48*X163577Y100455D02*X163244Y99955D01*
G54D47*X263357Y112757D02*X248000Y172901D01*
G54D48*X252000Y116901D02*X250500Y125901D01*
G54D49*X247500Y142901D02*X250500Y128401D01*
G54D48*X257600Y118401D02*X254900Y133301D01*
G54D49*X250300Y154101D02*X253700Y140601D01*
X255400Y133001D01*
G54D48*X253000Y105901D02*X252000Y116901D01*
G54D49*X250500Y128401D02*X252600Y114901D01*
G54D48*X259500Y106701D02*X257600Y118401D01*
G54D49*X231100Y105801D02*X229800Y108501D01*
X252891Y141783D02*X260500Y93401D01*
G54D48*X225500Y97401D02*X225000Y100401D01*
G54D49*X233500Y95201D02*X232300Y101201D01*
X231100Y105801D01*
X229800Y108501D02*X228600Y110601D01*
G54D48*X261900Y91201D02*X259500Y106701D01*
G54D50*X282000Y140701D02*Y100701D01*
G54D48*X226000Y78901D02*Y89901D01*
X225500Y97401D01*
G54D49*X235500Y79001D02*X234600Y88501D01*
X233500Y95201D01*
G54D48*X225000Y41401D02*Y47901D01*
G54D49*X236700Y51301D02*X236300Y65901D01*
X235500Y79001D01*
G54D47*X265000Y30901D02*Y93901D01*
G54D48*X225500Y29901D02*Y39901D01*
X225000Y41401D01*
Y47901D02*X226000Y78901D01*
G54D49*X236800Y29901D02*X236700Y51301D01*
G54D48*X225000Y100401D02*X224000Y102901D01*
G54D51*X300000Y80701D02*X292000D01*
X312000D02*X304000D01*
X300000Y85701D02*Y75701D01*
X304000Y85701D02*Y75701D01*
G54D48*X224000Y102901D02*X223000Y104901D01*
G54D50*X322000Y100701D02*X282000D01*
Y140701D02*X297000D01*
X322000Y100701D02*Y140701D01*
X307000D02*X322000D01*
X338000Y105701D02*Y113201D01*
Y128201D02*Y135701D01*
X335500Y113201D02*Y128201D01*
Y113201D02*X340500D01*
X375500D02*X380500D01*
X345500D02*X350500D01*
X355500D02*X360500D01*
X340500Y128201D02*Y113201D01*
X348000Y128201D02*Y135701D01*
X350500Y128201D02*X345500D01*
X348000Y105701D02*Y113201D01*
X345500D02*Y128201D01*
X350500D02*Y113201D01*
X358000Y105701D02*Y113201D01*
X355500D02*Y128201D01*
X358000D02*Y135701D01*
X360500Y128201D02*Y113201D01*
Y128201D02*X355500D01*
X340500D02*X335500D01*
X370500D02*X365500D01*
X368000Y135701D02*Y128201D01*
X370500D02*Y113201D01*
X365500D02*Y128201D01*
X378000D02*Y135701D01*
X375500Y113201D02*Y128201D01*
X368000Y113201D02*Y105701D01*
X365500Y113201D02*X370500D01*
X378000Y105701D02*Y113201D01*
X380500Y128201D02*Y113201D01*
Y128201D02*X375500D01*
G54D47*X63000Y176901D02*X69000Y171901D01*
G54D49*X75021Y64465D02*X81000Y62901D01*
G54D47*X11000Y29901D02*X265000D01*
G54D50*X376417Y65433D02*Y85118D01*
X357126Y64843D02*Y70748D01*
Y76654D02*Y82559D01*
X355157Y70748D02*X357126Y76654D01*
X373268Y62283D02*X353583D01*
X376417Y85118D02*X353583D01*
X376417Y65433D02*X373268Y62283D01*
X353583D02*Y85118D01*
G54D48*X20319Y120256D02*X14643Y109353D01*
X152500Y176901D02*X156500Y183901D01*
G54D49*X182133Y212167D02*X180055Y201160D01*
G54D48*X169768Y256584D02*X164945Y215669D01*
X156500Y183901D02*X159500Y197901D01*
G54D49*X179500Y184901D02*X181000Y188901D01*
G54D48*X160000Y180401D02*X166000Y189901D01*
X168200Y193501D01*
G54D49*X178000Y181401D02*X179500Y184901D01*
X181000Y188901D02*X182500Y193401D01*
X184500Y200401D01*
X186000Y202901D01*
X187500Y204901D01*
X189000Y206401D01*
G54D52*X274682Y367037D02*Y252864D01*
X282556Y292234D02*Y350659D01*
Y292234D02*X286965D01*
X282556Y284360D02*X286965D01*
G54D47*X248000Y172901D02*X244048Y187889D01*
X220000Y179901D02*X221000Y185901D01*
G54D52*X282556Y260738D02*Y284360D01*
X295332Y302458D02*X292320Y327903D01*
X304001Y295997D02*X300129Y328803D01*
X301802Y272146D02*X297447Y273296D01*
X304603Y279635D02*X299588Y280883D01*
X300272Y260738D02*X282556D01*
X325863D02*X335706D01*
X308146D02*X317989D01*
X343580Y252864D02*X369170D01*
X325863D02*X334839D01*
X343580Y260738D02*X361296D01*
X309013Y252864D02*X317989D01*
X361296Y350659D02*Y292234D01*
X348520Y302458D02*X351532Y327903D01*
X339851Y295997D02*X343723Y328803D01*
X369170Y367037D02*Y252864D01*
X361296Y284360D02*Y260738D01*
X356887Y292234D02*X361296D01*
X356887Y284360D02*X361296D01*
X327754Y361183D02*X326493Y326250D01*
X325863Y252864D02*Y236250D01*
X316098Y361183D02*X317359Y326250D01*
X317989Y252864D02*Y236250D01*
X342050Y272146D02*X346405Y273296D01*
X339249Y279635D02*X344264Y280883D01*
G54D48*X169337Y275016D02*X168500Y270901D01*
G54D49*X163300Y299101D02*X171600Y294401D01*
X156900Y298501D02*X163700Y295501D01*
X167100Y293301D01*
X170000Y291001D01*
X171700Y289401D01*
G54D48*X168500Y270901D02*X168000Y268901D01*
X167000Y265401D01*
Y262901D01*
G54D52*X274682Y252864D02*X300994Y252866D01*
G54D47*X27000Y314901D02*G75*G02X64000Y351901I37000J0D01*G01*
X27000Y314901D02*G75*G03X33603Y303583I13000J0D01*G01*
G54D48*X44000Y310401D02*G75*G02X46080Y321750I32000J0D01*G01*
X44000Y328901D02*G75*G03X40805Y336229I-10000J0D01*G01*
X55776Y303723D02*G75*G02X50458Y312381I33724J26677D01*G01*
G54D47*X76000Y323901D02*G75*G03X61339Y321117I0J-40000D01*G01*
G54D48*X55000Y329401D02*G75*G03X64530Y307469I30000J0D01*G01*
X70000Y334901D02*G75*G03X55168Y329479I0J-23000D01*G01*
X77005Y325924D02*G75*G03X60320Y322618I-4505J-21023D01*G01*
G54D47*X104000Y319901D02*G75*G03X72000Y351901I-32000J0D01*G01*
G54D48*X70000Y334901D02*G75*G02X81226Y333079I0J-35500D01*G01*
X82000Y323901D02*G75*G03X81245Y332942I-54500J0D01*G01*
X93734Y331785D02*G75*G02X103495Y325397I-4734J-17884D01*G01*
X93734Y331785D02*G75*G03X90387Y329975I0J-4000D01*G01*
G54D49*X64478Y308289D02*G75*G03X80033Y311351I4022J20611D01*G01*
X95000Y306901D02*G75*G02X91000Y310901I0J4000D01*G01*
G54D48*X82000Y323901D02*G75*G02X81246Y310930I-112000J0D01*G01*
X95799Y317200D02*G75*G03X90479Y321366I-19799J-19799D01*G01*
X97771Y319214D02*G75*G03X90616Y324143I-19271J-20313D01*G01*
G54D47*X79000Y306901D02*G75*G03X49116Y284145I0J-31000D01*G01*
X79000Y306901D02*G75*G02X95641Y301862I0J-30000D01*G01*
X79000Y304901D02*G75*G03X50516Y284054I0J-29884D01*G01*
X79000Y304901D02*G75*G02X95469Y299545I0J-28000D01*G01*
X80000Y303901D02*G75*G03X51439Y283081I0J-30000D01*G01*
X46049Y296398D02*G75*G03X52737Y278637I22951J-1497D01*G01*
X80000Y302901D02*G75*G03X51348Y281793I0J-30000D01*G01*
G54D48*X56000Y254901D02*G75*G02X58490Y260911I8500J0D01*G01*
X58512Y260872D02*G75*G02X64500Y257401I1988J-3471D01*G01*
X56000Y254901D02*G75*G03X60206Y244089I16000J0D01*G01*
G54D50*X55499Y223540D02*G75*G03X55499Y215196I4172J-4172D01*G01*
X54085Y224954D02*G75*G03X54085Y213782I5586J-5586D01*G01*
X36592Y273387D02*G75*G03X44936Y273387I4172J4172D01*G01*
X44936Y281731D02*G75*G03X36592Y281731I-4172J-4172D01*G01*
X35178Y271973D02*G75*G03X46350Y271973I5586J5586D01*G01*
G54D53*X33544Y303599D02*G75*G03X64766Y195652I106456J-27698D01*G01*
G54D48*X69640Y202372D02*G75*G03X69535Y209909I-17140J3529D01*G01*
G54D50*X63843Y215196D02*G75*G03X63843Y223540I-4172J4172D01*G01*
X65257Y213782D02*G75*G03X65257Y224954I-5586J5586D01*G01*
X46350Y283145D02*G75*G03X35178Y283145I-5586J-5586D01*G01*
G54D49*X90000Y215401D02*G75*G02X91659Y218377I3500J0D01*G01*
X94500Y212901D02*G75*G02X90159Y215024I0J5500D01*G01*
X84391Y212679D02*G75*G02X86024Y219614I6109J2221D01*G01*
X85838Y201142D02*G75*G03X83779Y212144I-10338J3759D01*G01*
G54D47*X90000Y268901D02*G75*G03X58645Y248049I0J-34000D01*G01*
X80000Y302901D02*G75*G02X95217Y297147I0J-23000D01*G01*
G54D48*X93500Y302401D02*G75*G03X96645Y281204I73000J0D01*G01*
X96500Y275901D02*G75*G03X100091Y267552I11500J0D01*G01*
G54D47*X102000Y228901D02*G75*G03X69633Y209827I0J-37000D01*G01*
G54D49*X99500Y220901D02*G75*G02X103841Y218777I0J-5500D01*G01*
X99500Y220901D02*G75*G03X91653Y218386I0J-13500D01*G01*
X94500Y212901D02*G75*G03X102347Y215415I0J13500D01*G01*
X104000Y218401D02*G75*G02X102341Y215424I-3500J0D01*G01*
G54D47*X50000Y295901D02*G75*G02X52455Y307150I27000J0D01*G01*
G54D48*X44000Y310401D02*G75*G03X49917Y295789I21000J0D01*G01*
G54D47*X144000Y338901D02*G75*G03X95000Y289901I0J-49000D01*G01*
X138980Y333729D02*G75*G02X148793Y330535I-2980J-25829D01*G01*
X145798Y335342D02*G75*G02X157052Y330942I-3957J-26708D01*G01*
G54D49*X138100Y307101D02*G75*G02X155054Y305958I-100J-127800D01*G01*
X138100Y307101D02*G75*G03X118649Y304058I0J-63700D01*G01*
G54D47*X144000Y338901D02*G75*G02X159100Y335243I0J-33000D01*G01*
X157000Y294901D02*G75*G03X151442Y314966I-39000J0D01*G01*
G54D49*X146191Y309698D02*G75*G02X154917Y308106I0J-24709D01*G01*
G54D47*X139996Y322856D02*G75*G02X147278Y319144I-996J-10955D01*G01*
X172000Y289901D02*G75*G03X159752Y322685I-50000J0D01*G01*
X157052Y330942D02*G75*G02X170986Y319333I-29052J-49041D01*G01*
X148049Y330915D02*G75*G02X159752Y322685I-24939J-47896D01*G01*
X193000Y281901D02*G75*G03X159122Y335285I-59000J0D01*G01*
X183000Y282901D02*G75*G03X171096Y319429I-62000J0D01*G01*
X117505Y249576D02*G75*G03X127950Y236854I64393J42220D01*G01*
G54D49*X133000Y247901D02*G75*G03X131000Y245901I0J-2000D01*G01*
G75*G02X130761Y243960I-8000J0D01*G01*
X135000Y241901D02*G75*G02X131000Y243901I0J5000D01*G01*
X137000Y249901D02*G75*G03X136000Y248901I0J-1000D01*G01*
G75*G02X135000Y247901I-1000J0D01*G01*
X134000Y244901D02*G75*G03X130464Y243436I0J-5000D01*G01*
G54D47*X144000Y229901D02*G75*G02X127950Y236854I0J22000D01*G01*
G54D49*X144000Y241901D02*G75*G03X136222Y238679I0J-11000D01*G01*
X135000Y241901D02*G75*G03X142761Y247960I0J8000D01*G01*
X134000Y244901D02*G75*G03X137748Y246216I0J6000D01*G01*
X144046Y248642D02*G75*G03X137772Y246178I2954J-16741D01*G01*
X144000Y248901D02*G75*G03X142796Y247952I0J-1239D01*G01*
X141000Y249901D02*G75*G02X143572Y249188I0J-5000D01*G01*
G54D47*X111257Y262991D02*G75*G03X117524Y249588I70743J24909D01*G01*
X104242Y281002D02*G75*G03X110984Y262716I19758J-3102D01*G01*
G54D49*X115500Y266401D02*G75*G02X110297Y268718I0J7000D01*G01*
X117500Y273401D02*G75*G03X110072Y268372I0J-8000D01*G01*
G54D48*X113577Y271426D02*G75*G03X116423Y272375I1423J474D01*G01*
G54D47*X138000Y295901D02*G75*G03X104274Y281635I0J-47000D01*G01*
G54D49*X140500Y284401D02*G75*G03X132387Y278436I0J-8500D01*G01*
G54D48*X138077Y281426D02*G75*G03X140923Y282375I1423J474D01*G01*
G54D47*X138000Y295901D02*G75*G02X166288Y277582I0J-31000D01*G01*
G54D49*X140500Y284401D02*G75*G02X146159Y283292I0J-15000D01*G01*
X140500Y282901D02*G75*G02X145761Y281488I0J-10500D01*G01*
G54D48*X157000Y294901D02*G75*G03X160807Y288088I8000J0D01*G01*
G54D47*X144000Y229901D02*G75*G03X161190Y237620I0J23000D01*G01*
X90000Y268901D02*G75*G02X106420Y263466I0J-27524D01*G01*
G54D49*X136000Y256401D02*G75*G03X137000Y257401I0J1000D01*G01*
G75*G03X135543Y259973I-3000J0D01*G01*
X134000Y255401D02*G75*G03X136475Y256426I0J3500D01*G01*
G54D47*X102000Y228901D02*G75*G02X115625Y224862I0J-25000D01*G01*
G54D49*X119054Y275795D02*G75*G03X108177Y271134I-1554J-11395D01*G01*
G54D48*X115000Y229401D02*G75*G03X116500Y230901I0J1500D01*G01*
G54D47*X183000Y282901D02*G75*G02X178608Y233148I-284000J0D01*G01*
G54D49*X140500Y282901D02*G75*G03X134000Y276401I0J-6500D01*G01*
X140000D02*G75*G03X145926Y281462I0J6000D01*G01*
G54D48*X165500Y270401D02*G75*G03X169768Y256584I24500J0D01*G01*
X165500Y270401D02*G75*G02X166659Y277024I19500J0D01*G01*
X173492Y263017D02*G75*G02X180546Y248112I-24870J-20891D01*G01*
G54D49*X140000Y276401D02*G75*G02X134525Y277941I0J10500D01*G01*
X115500Y266401D02*G75*G03X120500Y271401I0J5000D01*G01*
X117500Y273401D02*G75*G02X121036Y271936I0J-5000D01*G01*
G54D48*X114476Y223794D02*G75*G03X109475Y221413I-976J-4393D01*G01*
X115173Y223827D02*G75*G02X127487Y215389I-13173J-32426D01*G01*
X137500Y228401D02*G75*G03X133000Y223901I0J-4500D01*G01*
G75*G02X129435Y216483I-9500J0D01*G01*
X137721Y228339D02*G75*G03X151235Y231079I3779J16061D01*G01*
G54D49*X109115Y222131D02*G75*G03X86003Y219637I-9615J-19230D01*G01*
G54D54*X151706Y297377D02*G75*G03X100062Y280841I-10706J-55476D01*G01*
G54D48*X152467Y297386D02*G75*G03X159496Y289395I16033J7014D01*G01*
X169337Y275016D02*G75*G03X161522Y287478I-10837J1885D01*G01*
G54D49*X146191Y309698D02*G75*G03X95061Y288241I609J-73097D01*G01*
G54D50*X113343Y375886D02*G75*G03X104999Y375886I-4172J-4172D01*G01*
X103585Y366128D02*G75*G03X114757Y366128I5586J5586D01*G01*
X104999Y367542D02*G75*G03X113343Y367542I4172J4172D01*G01*
X114757Y377300D02*G75*G03X103585Y377300I-5586J-5586D01*G01*
X166185Y367542D02*G75*G03X174528Y367542I4172J4172D01*G01*
X174528Y375886D02*G75*G03X166185Y375886I-4172J-4172D01*G01*
X164770Y366128D02*G75*G03X175943Y366128I5586J5586D01*G01*
X175943Y377300D02*G75*G03X164770Y377300I-5586J-5586D01*G01*
X215685Y331578D02*G75*G03X224028Y331578I4172J4172D01*G01*
X224028Y339922D02*G75*G03X215685Y339922I-4172J-4172D01*G01*
X214270Y330164D02*G75*G03X225443Y330164I5586J5586D01*G01*
X225443Y341336D02*G75*G03X214270Y341336I-5586J-5586D01*G01*
G54D47*X193000Y281901D02*G75*G02X188136Y227466I-307000J0D01*G01*
G54D50*X242936Y281731D02*G75*G03X234592Y281731I-4172J-4172D01*G01*
X225443Y224954D02*G75*G03X214270Y224954I-5586J-5586D01*G01*
X234592Y273387D02*G75*G03X242936Y273387I4172J4172D01*G01*
X244350Y283145D02*G75*G03X233178Y283145I-5586J-5586D01*G01*
G54D49*X185205Y245392D02*G75*G02X182133Y212167I-332705J14009D01*G01*
G54D50*X233178Y271973D02*G75*G03X244350Y271973I5586J5586D01*G01*
G54D53*X62945Y352875D02*G75*G02X223246Y205134I80055J-73975D01*G01*
G54D47*X210087Y213742D02*G75*G03X192008Y209886I-3087J-29841D01*G01*
G54D50*X215685Y215196D02*G75*G03X224028Y215196I4172J4172D01*G01*
X224028Y223540D02*G75*G03X215685Y223540I-4172J-4172D01*G01*
X214270Y213782D02*G75*G03X225443Y213782I5586J5586D01*G01*
G54D52*X274682Y367037D02*G75*G02X300129Y328803I-23622J-43307D01*G01*
X286991Y292227D02*G75*G02X295335Y302450I15250J-3930D01*G01*
X299588Y280883D02*G75*G02X304004Y295971I2653J7414D01*G01*
X297447Y273296D02*G75*G02X286991Y284367I4794J15001D01*G01*
X339280Y279655D02*G75*G02X326484Y326250I69261J44075D01*G01*
X331302Y277591D02*G75*G02X321918Y299419I77238J46139D01*G01*
X312549Y277591D02*G75*G03X321934Y299419I-77238J46139D01*G01*
X304572Y279655D02*G75*G03X317368Y326250I-69261J44075D01*G01*
X344264Y280883D02*G75*G03X339847Y295971I-2653J7414D01*G01*
X356861Y292227D02*G75*G03X348517Y302450I-15250J-3930D01*G01*
X346405Y273296D02*G75*G03X356861Y284367I-4794J15001D01*G01*
X325863Y260738D02*G75*G02X334449Y270147I9449J0D01*G01*
X335706Y260738D02*G75*G03X334434Y270143I-35433J0D01*G01*
X343580Y260738D02*G75*G03X342050Y272146I-43307J0D01*G01*
X321940Y271750D02*G75*G02X331296Y277589I13372J-11012D01*G01*
X321932Y221128D02*G75*G02X326420Y226213I13774J-7635D01*G01*
X321920Y221128D02*G75*G03X317432Y226213I-13774J-7635D01*G01*
X325873Y236240D02*G75*G03X334821Y252868I-25600J24498D01*G01*
X326419Y226214D02*G75*G03X342858Y252866I-26146J34524D01*G01*
X317989Y260738D02*G75*G03X309403Y270147I-9449J0D01*G01*
X317979Y236240D02*G75*G02X309031Y252868I25600J24498D01*G01*
X317433Y226214D02*G75*G02X300994Y252866I26146J34524D01*G01*
X321912Y271750D02*G75*G03X312556Y277589I-13372J-11012D01*G01*
X308146Y260738D02*G75*G02X309418Y270143I35433J0D01*G01*
X300272Y260738D02*G75*G02X301802Y272146I43307J0D01*G01*
X282564Y350677D02*G75*G02X292306Y327902I-31504J-26947D01*G01*
X369170Y367037D02*G75*G03X343723Y328803I23622J-43307D01*G01*
X361288Y350677D02*G75*G03X351546Y327902I31504J-26947D01*G01*
X327754Y361183D02*G75*G03X321918Y378733I-23544J1917D01*G01*
X316098Y361183D02*G75*G02X321933Y378733I23544J1917D01*G01*
G54D48*X160396Y203425D02*G75*G02X164945Y215669I51104J-12025D01*G01*
G54D47*X243739Y187836D02*G75*G03X194027Y179876I-19739J-35936D01*G01*
G54D50*X297000Y140701D02*G75*G03X307000Y140701I5000J0D01*G01*
X365000Y67795D02*G75*G03X365000Y79606I0J5906D01*G01*
G75*G03X365000Y67795I0J-5906D01*G01*
X335354Y33701D02*G75*G03X384961Y33701I24803J0D01*G01*
G75*G03X335354Y33701I-24803J0D01*G01*
G54D47*X214870Y210361D02*G75*G03X186903Y183247I11130J-39460D01*G01*
X188023Y175891D02*G75*G02X199043Y193866I73977J-32990D01*G01*
X214000Y148901D02*G75*G02X216863Y175714I127000J0D01*G01*
X184135Y174122D02*G75*G02X167032Y139670I-89135J22779D01*G01*
G54D49*X210048Y168987D02*G75*G02X214551Y180134I60863J-18108D01*G01*
G54D47*X184000Y131901D02*G75*G02X219489Y192802I70000J0D01*G01*
X215148Y163248D02*G75*G03X216245Y133700I65852J-12347D01*G01*
G54D49*X169500Y131401D02*G75*G02X174000Y126901I0J-4500D01*G01*
X169500Y131401D02*G75*G03X165205Y130150I0J-8000D01*G01*
X172524Y132008D02*G75*G02X180816Y127189I-3524J-15607D01*G01*
X162000Y134901D02*G75*G02X172518Y131997I0J-20500D01*G01*
X165000Y127901D02*G75*G02X163500Y129401I0J1500D01*G01*
G54D48*X153000Y202401D02*G75*G03X160369Y203512I0J25000D01*G01*
X153000Y202401D02*G75*G02X136536Y206961I0J32000D01*G01*
X146000Y181401D02*G75*G03X141235Y189342I-9000J0D01*G01*
X139019Y197477D02*G75*G03X162113Y199119I8981J36923D01*G01*
G54D49*X180055Y201160D02*G75*G02X170551Y173873I-90555J16241D01*G01*
G54D48*X146000Y181401D02*G75*G02X144344Y169445I-44000J0D01*G01*
X145500Y172401D02*G75*G03X152655Y176823I0J8000D01*G01*
G54D49*X150538Y146427D02*G75*G03X170551Y173873I-51091J58274D01*G01*
G54D47*X166511Y174119D02*G75*G02X148068Y156244I-38511J21282D01*G01*
G54D49*X166386Y108115D02*G75*G02X167500Y113901I1114J2785D01*G01*
X163000Y116901D02*G75*G02X165500Y119401I2500J0D01*G01*
X156000Y126401D02*G75*G02X158152Y131232I6500J0D01*G01*
X156500Y123901D02*G75*G03X163345Y129434I0J7000D01*G01*
G54D48*X150297Y117267D02*G75*G03X136957Y126729I-18797J-12366D01*G01*
G54D49*X163000Y116901D02*G75*G03X165500Y114401I2500J0D01*G01*
X192290Y119049D02*G75*G02X197998Y116897I-6790J-26649D01*G01*
X180963Y127259D02*G75*G02X192303Y119100I-4963J-18858D01*G01*
G54D47*X198000Y120901D02*G75*G02X212147Y180827I134000J0D01*G01*
X196000Y132901D02*G75*G02X202992Y157281I46000J0D01*G01*
X220000Y179901D02*G75*G03X224031Y172955I8000J0D01*G01*
X242025Y152225D02*G75*G02X237804Y132072I-20025J-6324D01*G01*
X189000Y125901D02*G75*G03X196000Y132901I0J7000D01*G01*
G54D49*X205500Y120901D02*G75*G02X210048Y168987I256500J0D01*G01*
X251917Y107022D02*G75*G03X239150Y175475I-275537J-15973D01*G01*
X252891Y141783D02*G75*G03X244650Y173975I-271012J-52235D01*G01*
G54D47*X230968Y187880D02*G75*G02X229192Y171708I-10968J-6979D01*G01*
G54D49*X239150Y175475D02*G75*G03X234949Y185634I-60561J-19096D01*G01*
G54D47*X145000Y102901D02*G75*G03X101976Y89962I0J-78000D01*G01*
G54D49*X94500Y90901D02*G75*G02X92385Y87085I-4500J0D01*G01*
X97736Y84783D02*G75*G03X94000Y87901I-2236J1118D01*G01*
G54D47*X159000Y92901D02*G75*G03X92893Y70037I0J-107000D01*G01*
X100000Y67901D02*G75*G03X110359Y72483I0J14000D01*G01*
G54D49*X100500Y79901D02*G75*G03X98500Y81901I-2000J0D01*G01*
X100500Y79901D02*G75*G02X98068Y74372I-7500J0D01*G01*
X92500Y100901D02*G75*G03X97415Y103460I0J6000D01*G01*
X97500Y103401D02*G75*G03X94500Y106401I-3000J0D01*G01*
X95000D02*G75*G02X92525Y107426I0J3500D01*G01*
G54D47*X157000Y69901D02*G75*G03X112956Y51946I0J-63000D01*G01*
X145000Y102901D02*G75*G02X154218Y101968I0J-46000D01*G01*
G54D48*X156500Y61901D02*G75*G03X115798Y45613I0J-59000D01*G01*
G54D49*X167000Y100401D02*G75*G03X170000Y97401I3000J0D01*G01*
X166500Y104401D02*G75*G03X169500Y101401I3000J0D01*G01*
X167143Y92628D02*G75*G02X176243Y101346I22357J-14227D01*G01*
G54D48*X163577Y100455D02*G75*G03X165077Y101955I0J1500D01*G01*
G54D47*X159000Y92901D02*G75*G02X194470Y77241I0J-48000D01*G01*
G54D49*X193010Y78302D02*G75*G03X181315Y101682I-49010J-9901D01*G01*
G54D48*X163244Y99955D02*G75*G02X169368Y96692I-18744J-42555D01*G01*
G54D47*X157000Y69901D02*G75*G02X191177Y50684I0J-40000D01*G01*
G54D49*X187420Y93820D02*G75*G03X201884Y102913I-4420J23081D01*G01*
X167000Y100401D02*G75*G02X167829Y101742I1500J0D01*G01*
G54D48*X197000Y65401D02*G75*G03X194496Y77399I-30000J0D01*G01*
G54D47*X250000Y43901D02*G75*G03X241909Y85502I-111000J0D01*G01*
G54D48*X197000Y65401D02*G75*G02X191170Y50680I-21500J0D01*G01*
G54D47*X259472Y42468D02*G75*G03X244237Y90533I-151472J-21567D01*G01*
X251976Y45072D02*G75*G03X246071Y72923I-151976J-17672D01*G01*
G54D49*X207797Y77573D02*G75*G03X225538Y88867I-11297J37328D01*G01*
G54D48*X260927Y46246D02*G75*G03X243983Y91295I-130427J-23345D01*G01*
G54D49*X207500Y102901D02*G75*G02X203099Y86842I-31500J0D01*G01*
G54D48*X156500Y61901D02*G75*G02X182738Y53222I0J-44000D01*G01*
X187802Y34230D02*G75*G03X182789Y53189I-18802J5171D01*G01*
X165077Y101955D02*G75*G03X164346Y104261I-4000J0D01*G01*
G54D47*X265000Y97901D02*G75*G03X263357Y112757I-68000J0D01*G01*
X265000Y97901D02*G75*G02X264834Y93915I-48000J0D01*G01*
X146000Y113901D02*G75*G02X147000Y112901I0J-1000D01*G01*
G54D49*X166500Y104401D02*G75*G02X166901Y107345I11000J0D01*G01*
G54D48*X164346Y104261D02*G75*G02X150297Y117267I38369J55534D01*G01*
G54D49*X169000Y113901D02*G75*G03X185246Y117348I0J40000D01*G01*
G54D48*X252109Y107394D02*G75*G02X199580Y118910I27391J250507D01*G01*
G54D49*X204436Y102748D02*G75*G03X198203Y119604I-21436J1653D01*G01*
X207500Y102901D02*G75*G03X203034Y117923I-27500J0D01*G01*
X216603Y113937D02*G75*G03X223300Y104801I18397J6464D01*G01*
X202531Y103613D02*G75*G03X196234Y118816I-21500J0D01*G01*
G54D47*X144000Y107901D02*G75*G03X146121Y108779I0J3000D01*G01*
G54D48*X135000Y113901D02*G75*G02X132000Y116901I0J3000D01*G01*
G54D47*X112956Y51914D02*G75*G02X88260Y61183I-956J34987D01*G01*
G54D48*X111000Y30401D02*G75*G02X116136Y45915I26000J0D01*G01*
G54D47*X113000Y159901D02*G75*G03X105484Y157712I0J-14000D01*G01*
G54D49*X97062Y148627D02*G75*G02X105761Y146945I2438J-10726D01*G01*
X115000Y174901D02*G75*G02X126684Y171712I0J-23000D01*G01*
X115000Y174901D02*G75*G03X102520Y165541I0J-13000D01*G01*
G54D47*X112373Y126435D02*G75*G03X109923Y138631I-4373J5466D01*G01*
X115000Y141901D02*G75*G03X110200Y139501I0J-6000D01*G01*
G54D49*X96562Y146627D02*G75*G02X105440Y144818I2438J-10726D01*G01*
X105500Y176901D02*G75*G03X100692Y174072I0J-5500D01*G01*
G54D47*X100000Y67901D02*G75*G02X86565Y73466I0J19000D01*G01*
X115000Y125901D02*G75*G03X97062Y117846I0J-24000D01*G01*
X115000Y125901D02*G75*G03X131545Y129053I0J45000D01*G01*
G54D49*X94500Y90901D02*G75*G03X91007Y93860I-3000J0D01*G01*
X88000Y98901D02*G75*G03X91524Y94508I4500J0D01*G01*
X87887Y109573D02*G75*G02X92535Y107430I0J-6113D01*G01*
X91007Y93860D02*G75*G03X83714Y91893I0J-14507D01*G01*
X84000Y152901D02*G75*G02X88569Y149931I0J-5000D01*G01*
X93500Y159901D02*G75*G03X90135Y157362I0J-3500D01*G01*
X93500Y159901D02*G75*G02X95561Y159662I0J-9000D01*G01*
X96984Y155812D02*G75*G03X91192Y153072I-984J-5411D01*G01*
X98500Y163401D02*G75*G03X94964Y161936I0J-5000D01*G01*
X83500Y103401D02*G75*G02X88000Y98901I0J-4500D01*G01*
X84500Y144901D02*G75*G03X88769Y147978I0J4500D01*G01*
X95000Y150401D02*G75*G03X96510Y146449I2000J-1500D01*G01*
X91500Y180401D02*G75*G02X92626Y182743I3000J0D01*G01*
X91500Y180401D02*G75*G03X92626Y178058I3000J0D01*G01*
X93752Y180401D02*G75*G02X92626Y178058I-3000J0D01*G01*
X93752Y180401D02*G75*G03X92626Y182743I-3000J0D01*G01*
X92500Y100901D02*G75*G02X84853Y102996I0J15000D01*G01*
G54D48*X132000Y116901D02*G75*G02X132729Y123957I34500J0D01*G01*
G54D47*X82000Y59901D02*G75*G03X89802Y29791I62000J0D01*G01*
X82000Y59901D02*G75*G02X84355Y71754I31000J0D01*G01*
X87993Y61188D02*G75*G03X86252Y72982I-35993J713D01*G01*
X86020Y38901D02*G75*G02X88162Y61583I99980J2000D01*G01*
X59866Y169867D02*G75*G02X65162Y194774I28134J7034D01*G01*
X53900Y155936D02*G75*G02X60368Y166861I31100J-11036D01*G01*
X44318Y144492D02*G75*G02X56072Y161818I38682J-13591D01*G01*
X44985Y140147D02*G75*G02X62947Y163003I34015J-8246D01*G01*
X41194Y135882D02*G75*G02X60455Y166784I40806J-3981D01*G01*
X45000Y142549D02*G75*G02X55009Y158892I39000J-12649D01*G01*
X64000Y136901D02*G75*G02X70291Y165685I69000J0D01*G01*
X20319Y120256D02*G75*G02X58592Y179756I222181J-100855D01*G01*
X11000Y86901D02*G75*G02X14643Y109353I71000J0D01*G01*
X44008Y146901D02*G75*G03X49521Y122325I61992J1000D01*G01*
X31932Y128183D02*G75*G03X22400Y123701I6068J-25282D01*G01*
X16660Y112948D02*G75*G02X29465Y122178I26340J-23048D01*G01*
X37995Y122832D02*G75*G03X29573Y122180I-1995J-28931D01*G01*
X45404Y134980D02*G75*G02X55661Y158348I45596J-6080D01*G01*
X64000Y136901D02*G75*G03X71726Y111385I46000J0D01*G01*
X55000Y110901D02*G75*G03X62000Y117901I0J7000D01*G01*
X57000Y131901D02*G75*G03X76001Y111926I20000J0D01*G01*
X67150Y156951D02*G75*G03X77649Y110706I84850J-5051D01*G01*
X68000Y139901D02*G75*G03X74850Y112060I60000J0D01*G01*
X56000Y130901D02*G75*G03X76000Y110901I20000J0D01*G01*
G54D49*X67500Y75901D02*G75*G02X87887Y109573I38000J0D01*G01*
X83500Y103401D02*G75*G03X80500Y100401I0J-3000D01*G01*
G75*G03X80799Y91922I120500J0D01*G01*
X84000Y152901D02*G75*G03X80527Y150885I0J-4000D01*G01*
X84500Y144901D02*G75*G02X81000Y148401I0J3500D01*G01*
X67500Y74901D02*G75*G03X75021Y64465I11000J0D01*G01*
X76797Y160084D02*G75*G02X87203Y160084I5203J-4683D01*G01*
G54D47*X55000Y134901D02*G75*G03X57751Y118714I49000J0D01*G01*
X59000Y105901D02*G75*G02X42000Y122901I0J17000D01*G01*
X55000Y110901D02*G75*G02X42000Y123901I0J13000D01*G01*
X37000Y50901D02*G75*G03X42394Y30310I42000J0D01*G01*
X37000Y50901D02*G75*G02X39888Y81733I166000J0D01*G01*
X51932Y62898D02*G75*G02X48452Y30307I-116932J-3998D01*G01*
X47165Y73924D02*G75*G02X44110Y36176I-86165J-12023D01*G01*
X51987Y59910D02*G75*G02X46253Y30304I-86987J1491D01*G01*
X42366Y43849D02*G75*G02X47352Y87109I111634J9051D01*G01*
X42122Y55907D02*G75*G02X50702Y102125I101878J4994D01*G01*
X59171Y103987D02*G75*G03X47352Y87109I20632J-27024D01*G01*
G54D49*X29500Y61401D02*G75*G02X43366Y101008I63500J0D01*G01*
G54D47*X55000Y134901D02*G75*G02X60378Y150392I25000J0D01*G01*
X57000Y131901D02*G75*G02X60588Y150307I49000J0D01*G01*
X55000Y84901D02*G75*G02X61931Y102963I27000J0D01*G01*
X224605Y203505D02*G75*G03X199014Y193889I-4605J-26604D01*G01*
X177000Y219901D02*G75*G02X168200Y193501I-44000J0D01*G01*
G54D48*X244048Y187889D02*G75*G03X188306Y227048I-203548J-230488D01*G01*
G54D55*X38331Y15280D02*Y14473D01*
X39138Y13667D01*
X40751D01*
X42363Y14473D01*
Y16892D01*
X41557Y18505D01*
X39944Y20937D01*
Y22550D01*
X41557Y24175D01*
Y16892D02*X39944Y20131D01*
X40751Y13667D02*X41557Y14473D01*
Y16086D01*
X39944Y18505D01*
X39138Y20131D01*
Y21743D01*
X39944Y23356D01*
X41557Y24175D01*
X43989D01*
X45602Y23356D01*
X47214Y21743D01*
X48021Y19324D01*
Y14473D01*
X47214Y12054D01*
X46408Y10441D01*
X44795Y8816D01*
X42363Y7203D01*
X41557Y8009D01*
X39944D01*
X38331Y7203D01*
X46408Y21743D02*X47214Y20131D01*
Y14473D01*
X46408Y12054D01*
X45602Y10441D01*
X44795Y9622D01*
X43182Y8009D02*X41557Y8816D01*
X39944D01*
X43989Y24175D02*X45602Y22550D01*
X46408Y20131D01*
Y14473D01*
X45602Y11248D01*
X43989Y8816D01*
X42363Y9622D01*
X40751D01*
X38331Y7203D01*
X47214Y22550D02*X48021Y23356D01*
X49634Y24175D01*
X51246D01*
X52872Y23356D01*
X53678Y22550D01*
X54485Y20937D01*
X55291Y20131D01*
X52872Y22550D02*X53678Y20937D01*
X51246Y24175D02*X52065Y23356D01*
X52872Y20937D01*
X53678Y20131D01*
X55291D01*
X52872Y18505D01*
X52065Y17699D01*
X51246Y15280D01*
Y12860D01*
X52065Y9622D01*
X53678Y7203D01*
X56097Y9622D01*
X52872Y17699D02*X52065Y16086D01*
Y12860D01*
X52872Y10441D01*
X54485Y8009D01*
X55291Y20131D02*X53678Y18505D01*
X52872Y16892D01*
Y13667D01*
X53678Y10441D01*
X55291Y8816D01*
X59098Y14473D02*X73638D01*
X89566Y13667D02*X88759Y12860D01*
X86327D01*
X85521Y13667D01*
Y15280D01*
X86327Y16892D01*
X87953Y19324D01*
X88759Y20937D01*
Y22550D01*
X86327Y15280D02*Y16086D01*
X88759Y19324D01*
Y20131D01*
X87134Y12860D02*X86327Y13667D01*
Y14473D01*
X87134Y16086D01*
X88759Y17699D01*
X89566Y19324D01*
Y20937D01*
X88759Y22550D01*
X87953Y23356D01*
X85521Y24175D01*
X81489D01*
X79070Y23356D01*
X78251Y22550D01*
X77444Y20937D01*
Y19324D01*
X78251Y17699D01*
X79876Y15280D01*
X80683Y13667D01*
Y12860D01*
X79876Y11248D01*
X78251Y20131D02*Y19324D01*
X80683Y15280D01*
Y14473D01*
X78251Y22550D02*Y20937D01*
X79070Y19324D01*
X80683Y16892D01*
X81489Y15280D01*
Y13667D01*
X80683Y12054D01*
X79070Y10441D01*
X76638Y8816D01*
X79070Y10441D02*X80683D01*
X83102Y8816D01*
X85521Y8009D01*
X87953D01*
X89566Y8816D01*
X79876Y9622D02*X80683D01*
X83908Y8009D01*
X84715D01*
X76638Y8816D02*X78251Y9622D01*
X79070D01*
X82295Y8009D01*
X84715Y7203D01*
X86327D01*
X88759Y8009D01*
X89566Y8816D01*
X90372Y10441D01*
X99017Y18505D02*X96598Y17699D01*
X94985Y16892D01*
X94178Y16086D01*
X93372Y13667D01*
Y11248D01*
X94178Y8816D01*
X94985Y7203D01*
X99823Y9622D01*
X94178Y11248D02*X94985Y8816D01*
X95791Y8009D01*
X96598Y17699D02*X94985Y16086D01*
X94178Y13667D01*
Y12054D01*
X94985Y9622D01*
X96598Y8009D01*
X97404Y17699D02*X98210Y16892D01*
X99823Y16086D01*
Y8816D01*
X101436Y7203D01*
X103868Y9622D01*
X98210Y17699D02*X100630Y16086D01*
Y9622D01*
X102255Y8009D01*
X99017Y18505D02*X99823Y17699D01*
X101436Y16892D01*
X102255D01*
X101436Y16086D02*X102255Y16892D01*
X101436Y16086D02*Y9622D01*
X102255Y8816D01*
X103061D01*
X108481Y20131D02*X106868Y18505D01*
Y16892D01*
X107674Y14473D01*
Y9622D01*
X106868Y8816D01*
X108481Y7203D01*
X107674Y17699D02*Y16892D01*
X108481Y14473D01*
Y9622D01*
X107674Y8816D01*
X108481Y8009D01*
X109287Y8816D01*
X108481Y9622D01*
X107674Y19324D02*Y18505D01*
X108481Y16892D01*
X109287Y14473D01*
Y9622D01*
X110106Y8816D01*
X108481Y7203D01*
X111719Y17699D02*X113332Y16892D01*
X114138Y15280D01*
Y9622D01*
X113332Y8816D01*
Y17699D02*X114138Y16892D01*
X114944Y15280D01*
Y9622D01*
X117364Y8009D01*
X109287Y16086D02*X111719Y17699D01*
X113332Y18505D01*
X114944Y17699D01*
X115751Y16086D01*
Y9622D01*
X117364Y8816D01*
X118170Y8009D01*
X113332Y8816D02*X114138D01*
X115751Y8009D01*
X116557Y7203D01*
X118989Y8009D01*
X115751Y16086D02*X120602Y18505D01*
X121408Y16892D01*
X122215Y14473D01*
Y12860D01*
X121408Y9622D01*
X120602Y8816D01*
X118989Y8009D01*
X119795Y17699D02*X120602Y16892D01*
X121408Y15280D01*
X118989Y17699D02*X120602Y16086D01*
X121408Y13667D01*
Y12054D01*
X120602Y9622D01*
X118989Y8009D01*
X131215Y15280D02*Y14473D01*
X132021Y13667D01*
X133646D01*
X135259Y14473D01*
Y16892D01*
X134453Y18505D01*
X132840Y20937D01*
Y22550D01*
X134453Y24175D01*
Y16892D02*X132840Y20131D01*
X133646Y13667D02*X134453Y14473D01*
Y16086D01*
X132840Y18505D01*
X132021Y20131D01*
Y21743D01*
X132840Y23356D01*
X134453Y24175D01*
X136872D01*
X138497Y23356D01*
X139304Y22550D01*
X140110Y20937D01*
Y17699D01*
X139304Y15280D01*
X137691Y12860D01*
X136066Y11248D01*
X138497Y22550D02*X139304Y20937D01*
Y16892D01*
X138497Y14473D01*
X136872Y24175D02*X137691Y23356D01*
X138497Y20937D01*
Y16892D01*
X137691Y13667D01*
X136066Y11248D01*
X138497Y23356D02*X140110Y24175D01*
X142529D01*
X144142Y23356D01*
X145755Y24175D02*X143336Y23356D01*
X142529Y21743D01*
Y18505D01*
X143336Y16086D01*
X144949Y13667D01*
X145755Y12054D01*
Y10441D01*
X144949Y8816D01*
X143336Y18505D02*Y17699D01*
X145755Y13667D01*
Y12860D01*
Y24175D02*X144142Y23356D01*
X143336Y21743D01*
Y19324D01*
X144142Y17699D01*
X145755Y15280D01*
X146574Y12860D01*
Y11248D01*
X145755Y9622D01*
X144142Y8009D01*
X142529Y7203D01*
X139304D01*
X137691Y8009D01*
X136066Y9622D01*
X134453Y10441D01*
X132840D01*
X132021Y9622D01*
X138497Y8009D02*X136066Y10441D01*
X135259D01*
X140917Y7203D02*X139304Y8009D01*
X136872Y10441D01*
X135259Y11248D01*
X132840D01*
X132021Y9622D01*
Y8009D01*
X132840Y7203D01*
X133646Y8009D01*
X132840Y8816D01*
X145755Y24175D02*X148187D01*
X149800Y23356D01*
X151425Y20937D01*
X152231Y20131D01*
X149800Y22550D02*X150606Y20937D01*
X148187Y24175D02*X148993Y23356D01*
X149800Y20937D01*
X150606Y20131D01*
X152231D02*X148993D01*
X148187Y19324D01*
Y17699D01*
X148993Y16086D01*
X151425Y14473D01*
X152231Y12860D01*
X148993Y16892D02*X151425Y15280D01*
X148187Y18505D02*X148993Y17699D01*
X151425Y16086D01*
X152231Y14473D01*
Y10441D01*
X151425Y8816D01*
X150606Y8009D01*
X148993Y7203D01*
X146574D01*
X144142Y8009D01*
X147380D02*X146574D01*
X144949Y8816D01*
X151425D02*X149800Y8009D01*
X148187D01*
X146574Y8816D01*
X145755Y9622D01*
X156844Y12054D02*X161683Y15280D01*
X159263Y18505D01*
X156038Y16086D01*
X155231Y14473D01*
Y10441D01*
X156038Y8816D01*
X157651Y7203D01*
X160876Y8816D01*
Y15280D02*X158457Y17699D01*
X156844Y16086D02*X156038Y14473D01*
Y10441D01*
X156844Y8816D01*
X157651Y8009D01*
X160070Y14473D02*X158457Y16892D01*
X157651D01*
X156844Y15280D01*
Y11248D01*
X157651Y9622D01*
X159263Y8009D01*
X176102Y17699D02*X174489Y18505D01*
X173683Y20131D01*
Y21743D01*
X174489Y23356D01*
X176921Y24175D01*
X180953D01*
X183372Y23356D01*
X186610Y20937D01*
X188223D01*
X189029Y21743D01*
X174489Y22550D02*X176102Y23356D01*
X180953D01*
X183372Y22550D01*
X185804Y20937D01*
X173683Y20131D02*X174489Y21743D01*
X176102Y22550D01*
X180953D01*
X183372Y21743D01*
X186610Y20131D01*
X188223D01*
X189029Y21743D01*
Y23356D01*
X188223Y24175D01*
X187417Y23356D01*
X188223Y22550D01*
X183372Y21743D02*X180953Y19324D01*
X180146Y17699D01*
Y16086D01*
X181759Y12860D01*
Y11248D01*
X180953Y16892D02*Y16086D01*
X181759Y14473D01*
Y13667D01*
X180953Y19324D02*Y17699D01*
X182566Y14473D01*
Y12860D01*
X181759Y11248D01*
X180953Y10441D01*
X179340D01*
X178534Y11248D01*
Y12860D01*
X174489Y8816D02*X175295Y8009D01*
X174489Y7203D01*
X173683Y8009D01*
Y9622D01*
X174489Y11248D01*
X176102D01*
X178534Y10441D01*
X181759Y8816D01*
X184178Y8009D01*
X186610D01*
X188223Y8816D01*
X176102Y10441D02*X176921D01*
X181759Y8009D01*
X183372D01*
X173683Y9622D02*X174489Y10441D01*
X175295D01*
X176921Y9622D01*
X180146Y8009D01*
X182566Y7203D01*
X184985D01*
X187417Y8009D01*
X189029Y9622D01*
X192836Y16892D02*X193642D01*
X194449Y16086D01*
Y9622D01*
X193642Y8816D01*
Y17699D02*X195255Y16086D01*
Y8816D01*
X196868Y8009D01*
X192029Y16086D02*X194449Y18505D01*
X196061Y16892D01*
Y9622D01*
X196868Y8816D01*
X197674D01*
X193642D02*X195255Y8009D01*
X196061Y7203D01*
X198481Y9622D01*
X197674Y17699D02*X198481Y16086D01*
X200093Y16892D01*
X199287Y18505D01*
X196061Y16892D01*
X198481Y17699D02*X199287Y16892D01*
X203900D02*X204706D01*
X205525Y16086D01*
Y9622D01*
X204706Y8816D01*
Y17699D02*X206332Y16086D01*
Y9622D01*
X207944Y8009D01*
X203093Y16086D02*X205525Y18505D01*
X207138Y16892D01*
Y9622D01*
X208751Y8816D01*
X209557Y8009D01*
X204706Y8816D02*X205525D01*
X207138Y8009D01*
X207944Y7203D01*
X209557Y8009D01*
X211976Y9622D01*
X212783Y18505D02*X211170Y16892D01*
X211976Y16086D01*
Y8816D01*
X213589Y7203D01*
X216021Y9622D01*
X212783Y16086D02*X213589Y16892D01*
X212783Y17699D01*
X211976Y16892D01*
X212783Y16086D01*
Y9622D01*
X214408Y8009D01*
X212783Y18505D02*X214408Y16892D01*
X213589Y16086D01*
Y9622D01*
X214408Y8816D01*
X215215D01*
X219840Y16892D02*Y13667D01*
X221453Y12860D01*
X226291D01*
X227904Y12054D01*
Y8816D01*
X220646Y16892D02*Y13667D01*
X227098Y12054D02*Y8816D01*
X222259Y17699D02*X221453Y16892D01*
Y13667D01*
X223066Y12860D01*
X224678D02*X226291Y12054D01*
Y8816D01*
X225485Y8009D01*
X219840Y16892D02*X222259Y17699D01*
X223872Y18505D01*
X225485Y17699D01*
X227098D01*
X227904Y18505D01*
X223066Y17699D02*X224678D01*
X222259D02*X223872Y16892D01*
X225485D01*
X227098Y17699D01*
X227904Y8816D02*X225485Y8009D01*
X223872Y7203D01*
X222259Y8009D01*
X220646D01*
X219021Y7203D01*
X224678Y8009D02*X223066D01*
X225485D02*X223872Y8816D01*
X221453D01*
X219021Y7203D01*
X227904Y18505D02*X227098Y16892D01*
X225485Y14473D01*
X221453Y10441D01*
X219021Y7203D01*
X234130Y21743D02*X233323Y19324D01*
X232517Y17699D01*
X231710Y16892D01*
X230098Y16086D01*
X234130Y21743D02*Y16892D01*
X236549D01*
Y16086D01*
X230098D02*X232517D01*
X234130D02*X236549D01*
X232517D02*Y9622D01*
X231710Y8816D01*
X233323Y16892D02*X232517D01*
X233323Y18505D01*
Y9622D01*
X234936Y8009D01*
X234130Y16086D02*Y9622D01*
X234936Y8816D01*
X235742D01*
X231710D02*X233323Y8009D01*
X234130Y7203D01*
X236549Y9622D01*
G54D56*X289700Y87701D02*X291000D01*
X289000Y88401D02*X289700Y87701D01*
X289000Y91001D02*Y88401D01*
Y91001D02*X289700Y91701D01*
X291000D01*
X292200Y90901D02*X293000Y91701D01*
Y87701D01*
X292200D02*X293700D01*
G54D57*X272654Y171865D02*X274654D01*
X285029Y191865D01*
X272654D02*X278426Y179137D01*
X290029Y185200D02*Y171870D01*
Y178365D02*X292029D01*
X299029Y185365D01*
X292529Y178365D02*X293029D01*
X299529Y171865D01*
X304529Y165365D02*Y185200D01*
X309529Y172200D02*G75*G02X304812Y174870I0J5500D01*G01*
X309529Y185200D02*G75*G03X304721Y182371I0J-5500D01*G01*
X309529Y172200D02*G75*G03X309529Y185200I0J6500D01*G01*
X324219Y172014D02*X326533D01*
X324857Y178685D02*X331203D01*
X331383Y180865D02*Y171865D01*
X323883Y185365D02*X326883D01*
X331383Y180865D02*G75*G03X326883Y185365I-4500J0D01*G01*
X321314Y182481D02*G75*G02X324125Y185292I2811J0D01*G01*
X326533Y172014D02*G75*G03X331357Y173819I0J7350D01*G01*
X324857Y178685D02*G75*G03X323908Y172044I-474J-3320D01*G01*
X323908Y172044D02*G75*G03X324219Y172014I474J3320D01*G01*
X338883Y185365D02*Y171865D01*
X336383Y190365D03*
X341383D03*
X346383Y185200D02*Y171870D01*
X356858Y185200D02*Y171870D01*
Y178365D02*X346383D01*
X361858Y185200D02*Y171870D01*
Y190365D03*
G54D56*X283000Y146685D02*Y143185D01*
X283500Y142685D01*
X284500D01*
X285000Y143185D01*
Y146685D02*Y143185D01*
X286200Y145885D02*X287000Y146685D01*
Y142685D01*
X286200D02*X287700D01*
X336000Y114701D02*Y116701D01*
X336500Y117201D01*
X337500D01*
X338000Y116701D02*X337500Y117201D01*
X338000Y115201D02*Y116701D01*
X336000Y115201D02*X340000D01*
X338000Y116001D02*X340000Y117201D01*
X336800Y118401D02*X336000Y119201D01*
X340000D01*
Y118401D02*Y119901D01*
X346000Y114701D02*Y116701D01*
X346500Y117201D01*
X347500D01*
X348000Y116701D02*X347500Y117201D01*
X348000Y115201D02*Y116701D01*
X346000Y115201D02*X350000D01*
X348000Y116001D02*X350000Y117201D01*
X346500Y118401D02*X346000Y118901D01*
Y120401D01*
X346500Y120901D01*
X347500D01*
X350000Y118401D02*X347500Y120901D01*
X350000Y118401D02*Y120901D01*
X356000Y114701D02*Y116701D01*
X356500Y117201D01*
X357500D01*
X358000Y116701D02*X357500Y117201D01*
X358000Y115201D02*Y116701D01*
X356000Y115201D02*X360000D01*
X358000Y116001D02*X360000Y117201D01*
X356500Y118401D02*X356000Y118901D01*
Y119901D01*
X356500Y120401D01*
X360000Y119901D02*X359500Y120401D01*
X360000Y118901D02*Y119901D01*
X359500Y118401D02*X360000Y118901D01*
X357800D02*Y119901D01*
X356500Y120401D02*X357300D01*
X358300D02*X359500D01*
X358300D02*X357800Y119901D01*
X357300Y120401D02*X357800Y119901D01*
X376000Y114701D02*Y116701D01*
X376500Y117201D01*
X377500D01*
X378000Y116701D02*X377500Y117201D01*
X378000Y115201D02*Y116701D01*
X376000Y115201D02*X380000D01*
X378000Y116001D02*X380000Y117201D01*
X376000Y118401D02*Y120401D01*
Y118401D02*X378000D01*
X377500Y118901D01*
Y119901D01*
X378000Y120401D01*
X379500D01*
X380000Y119901D02*X379500Y120401D01*
X380000Y118901D02*Y119901D01*
X379500Y118401D02*X380000Y118901D01*
X351909Y91969D02*X352409Y91469D01*
X350409Y91969D02*X351909D01*
X349909Y91469D02*X350409Y91969D01*
X349909Y91469D02*Y90469D01*
X350409Y89969D01*
X351909D01*
X352409Y89469D01*
Y88469D01*
X351909Y87969D02*X352409Y88469D01*
X350409Y87969D02*X351909D01*
X349909Y88469D02*X350409Y87969D01*
X353609Y91969D02*Y89969D01*
X354109Y87969D01*
X355109Y89969D01*
X356109Y87969D01*
X356609Y89969D01*
Y91969D01*
X357809Y91169D02*X358609Y91969D01*
Y87969D01*
X357809D02*X359309D01*
X366000Y114701D02*Y116701D01*
X366500Y117201D01*
X367500D01*
X368000Y116701D02*X367500Y117201D01*
X368000Y115201D02*Y116701D01*
X366000Y115201D02*X370000D01*
X368000Y116001D02*X370000Y117201D01*
X368500Y118401D02*X366000Y120401D01*
X368500Y118401D02*Y120901D01*
X366000Y120401D02*X370000D01*
X329535Y58291D02*Y54291D01*
X329035Y58291D02*X331035D01*
X331535Y57791D01*
Y56791D01*
X331035Y56291D02*X331535Y56791D01*
X329535Y56291D02*X331035D01*
X332735Y58291D02*X333735D01*
X333235D02*Y54291D01*
X332735D02*X333735D01*
X334935Y56491D02*X336435D01*
X334935Y54291D02*X336935D01*
X334935Y58291D02*Y54291D01*
Y58291D02*X336935D01*
X338135D02*X340635D01*
X338135Y54291D02*X340635Y58291D01*
X338135Y54291D02*X340635D01*
X341835Y57791D02*Y54791D01*
Y57791D02*X342335Y58291D01*
X343335D01*
X343835Y57791D01*
Y54791D01*
X343335Y54291D02*X343835Y54791D01*
X342335Y54291D02*X343335D01*
X341835Y54791D02*X342335Y54291D01*
G54D57*X284465Y209376D02*Y203296D01*
X298178Y201313D02*G75*G02X284465Y203296I-6713J1983D01*G01*
X298155Y211435D02*G75*G03X284465Y209376I-6690J-2059D01*G01*
X313678Y209711D02*X305438D01*
X313678D02*X313677Y196378D01*
X305178Y209711D02*Y204876D01*
X304678Y201876D01*
X303178Y196380D01*
X321868Y196526D02*X324182D01*
X322506Y203197D02*X328852D01*
X329032Y205376D02*Y196376D01*
X321532Y209876D02*X324532D01*
X329032Y205376D02*G75*G03X324532Y209876I-4500J0D01*G01*
X318963Y206993D02*G75*G02X321774Y209804I2811J0D01*G01*
X324182Y196526D02*G75*G03X329006Y198331I0J7350D01*G01*
X322506Y203197D02*G75*G03X321558Y196556I-474J-3320D01*G01*
X321558Y196556D02*G75*G03X321868Y196526I474J3320D01*G01*
X334032Y196381D02*Y209711D01*
X334197D02*X340367D01*
X340507Y203711D02*X334197D01*
X334032Y196376D02*X340532D01*
G75*G03X342097Y203007I0J3500D01*G01*
X340507Y203711D02*G75*G03X340535Y209711I0J3000D01*G01*
X352223Y196526D02*X354536D01*
X352860Y203197D02*X359206D01*
X359386Y205376D02*Y196376D01*
X351886Y209876D02*X354886D01*
X359386Y205376D02*G75*G03X354886Y209876I-4500J0D01*G01*
X349318Y206993D02*G75*G02X352128Y209804I2811J0D01*G01*
X354536Y196526D02*G75*G03X359360Y198331I0J7350D01*G01*
X352860Y203197D02*G75*G03X351912Y196556I-474J-3320D01*G01*
X351912Y196556D02*G75*G03X352223Y196526I474J3320D01*G01*
X372063Y174452D02*Y172077D01*
Y191077D02*Y179202D01*
M02*
