G04 start of page 2 for group 10 layer_idx 1 *
G04 Title: (unknown), bottom_copper *
G04 Creator: pcb-rnd 3.1.4-dev *
G04 CreationDate: 2024-02-11 13:06:30 UTC *
G04 For: STEM4ukraine *
G04 Format: Gerber/RS-274X *
G04 PCB-Dimensions: 393701 393701 *
G04 PCB-Coordinate-Origin: lower left *
%MOIN*%
%FSLAX25Y25*%
%LNBOTTOM_COPPER_NONE_10*%
%ADD45C,0.0350*%
%ADD44C,0.0362*%
%ADD43C,0.0906*%
%ADD42C,0.0338*%
%ADD41C,0.0394*%
%ADD40C,0.0315*%
%ADD39C,0.0430*%
%ADD38C,0.1220*%
%ADD37C,0.0827*%
%ADD36C,0.1535*%
%ADD35C,0.0636*%
%ADD34C,0.0800*%
%ADD33C,0.0787*%
%ADD32C,0.0650*%
%ADD31C,0.0200*%
%ADD30C,0.0001*%
G54D30*G36*
X389764Y389764D02*Y3937D01*
X383122D01*
Y60386D01*
X383208Y60526D01*
X383358Y60890D01*
X383450Y61272D01*
X383481Y61665D01*
X383473Y61763D01*
Y67923D01*
X383481Y68020D01*
X383450Y68413D01*
X383450Y68413D01*
X383358Y68795D01*
X383208Y69159D01*
X383122Y69299D01*
Y89689D01*
X383275Y89868D01*
X383809Y90741D01*
X384201Y91686D01*
X384440Y92681D01*
X384500Y93701D01*
X384440Y94721D01*
X384201Y95716D01*
X383809Y96661D01*
X383275Y97533D01*
X383122Y97713D01*
Y99459D01*
X383138Y99466D01*
X383474Y99672D01*
X383773Y99928D01*
X384029Y100227D01*
X384234Y100562D01*
X384385Y100926D01*
X384477Y101308D01*
X384508Y101701D01*
X384500Y101799D01*
Y109603D01*
X384508Y109701D01*
X384477Y110093D01*
X384477Y110093D01*
X384385Y110476D01*
X384234Y110839D01*
X384029Y111175D01*
X383773Y111474D01*
X383474Y111730D01*
X383138Y111935D01*
X383122Y111942D01*
Y132859D01*
X383203Y132866D01*
X383394Y132913D01*
X383576Y132989D01*
X383743Y133092D01*
X383892Y133221D01*
X384019Y133371D01*
X384121Y133539D01*
X384192Y133723D01*
X384348Y134275D01*
X384449Y134841D01*
X384500Y135413D01*
Y135988D01*
X384449Y136560D01*
X384348Y137126D01*
X384198Y137681D01*
X384125Y137864D01*
X384022Y138033D01*
X383895Y138183D01*
X383745Y138312D01*
X383578Y138416D01*
X383396Y138493D01*
X383204Y138540D01*
X383122Y138547D01*
Y389764D01*
X389764D01*
G37*
G36*
X382610Y98311D02*X381832Y98976D01*
X381465Y99201D01*
X381902D01*
X382000Y99193D01*
X382392Y99224D01*
X382392Y99224D01*
X382775Y99316D01*
X383122Y99459D01*
Y97713D01*
X382610Y98311D01*
G37*
G36*
X383002Y69494D02*X382746Y69794D01*
X382447Y70049D01*
X382112Y70255D01*
X381748Y70405D01*
X381366Y70497D01*
X380973Y70528D01*
X380875Y70520D01*
X379219D01*
Y78627D01*
X379698Y78825D01*
X380259Y79169D01*
X380759Y79596D01*
X381186Y80096D01*
X381529Y80656D01*
X381781Y81264D01*
X381935Y81903D01*
X381973Y82559D01*
X381935Y83215D01*
X381781Y83854D01*
X381529Y84462D01*
X381186Y85022D01*
X380759Y85522D01*
X380259Y85950D01*
X379698Y86293D01*
X379219Y86491D01*
Y87309D01*
X380015Y87500D01*
X380960Y87891D01*
X381832Y88426D01*
X382610Y89090D01*
X383122Y89689D01*
Y69299D01*
X383002Y69494D01*
G37*
G36*
X379219Y3937D02*Y29284D01*
X379314Y29365D01*
X379685Y29755D01*
X380020Y30176D01*
X380316Y30625D01*
X380571Y31099D01*
X380782Y31594D01*
X380948Y32106D01*
X381067Y32630D01*
X381139Y33163D01*
X381163Y33701D01*
X381139Y34238D01*
X381067Y34771D01*
X380948Y35296D01*
X380782Y35808D01*
X380571Y36303D01*
X380316Y36776D01*
X380020Y37226D01*
X379685Y37647D01*
X379314Y38036D01*
X379219Y38119D01*
Y59165D01*
X380875D01*
X380973Y59157D01*
X381365Y59188D01*
X381366Y59188D01*
X381748Y59280D01*
X382112Y59430D01*
X382447Y59636D01*
X382746Y59891D01*
X383002Y60191D01*
X383122Y60386D01*
Y3937D01*
X379219D01*
G37*
G36*
X383122Y389764D02*Y138547D01*
X383007Y138556D01*
X382810Y138542D01*
X382618Y138497D01*
X382436Y138422D01*
X382267Y138320D01*
X382116Y138192D01*
X381987Y138043D01*
X381883Y137875D01*
X381807Y137693D01*
X381760Y137501D01*
X381743Y137305D01*
X381758Y137108D01*
X381807Y136917D01*
X381903Y136577D01*
X381965Y136229D01*
X381996Y135877D01*
Y135524D01*
X381965Y135172D01*
X381903Y134825D01*
X381810Y134484D01*
X381762Y134293D01*
X381747Y134097D01*
X381764Y133901D01*
X381810Y133710D01*
X381887Y133528D01*
X381990Y133361D01*
X382119Y133212D01*
X382269Y133085D01*
X382437Y132983D01*
X382619Y132909D01*
X382811Y132864D01*
X383007Y132849D01*
X383122Y132859D01*
Y111942D01*
X382775Y112086D01*
X382392Y112178D01*
X382000Y112208D01*
X381902Y112201D01*
X379219D01*
Y129316D01*
X379425Y129352D01*
X379980Y129503D01*
X380163Y129576D01*
X380332Y129679D01*
X380483Y129806D01*
X380611Y129955D01*
X380715Y130123D01*
X380792Y130305D01*
X380839Y130497D01*
X380855Y130694D01*
X380841Y130890D01*
X380796Y131083D01*
X380721Y131265D01*
X380619Y131434D01*
X380491Y131585D01*
X380342Y131714D01*
X380174Y131818D01*
X379992Y131894D01*
X379801Y131941D01*
X379604Y131958D01*
X379407Y131943D01*
X379219Y131895D01*
Y139511D01*
X379408Y139462D01*
X379604Y139448D01*
X379800Y139464D01*
X379991Y139511D01*
X380172Y139587D01*
X380340Y139691D01*
X380489Y139820D01*
X380616Y139970D01*
X380718Y140138D01*
X380792Y140320D01*
X380837Y140512D01*
X380851Y140708D01*
X380835Y140904D01*
X380788Y141095D01*
X380712Y141277D01*
X380608Y141444D01*
X380480Y141593D01*
X380330Y141720D01*
X380161Y141822D01*
X379978Y141893D01*
X379425Y142049D01*
X379219Y142086D01*
Y389764D01*
X383122D01*
G37*
G36*
X374715Y70520D02*X374617Y70528D01*
X374225Y70497D01*
X374225Y70497D01*
X373842Y70405D01*
X373479Y70255D01*
X373143Y70049D01*
X372844Y69794D01*
X372589Y69494D01*
X372579Y69478D01*
Y87269D01*
X372775Y87316D01*
X373138Y87466D01*
X373474Y87672D01*
X373773Y87928D01*
X374029Y88227D01*
X374157Y88435D01*
X374168Y88426D01*
X375040Y87891D01*
X375985Y87500D01*
X376980Y87261D01*
X378000Y87181D01*
X379020Y87261D01*
X379219Y87309D01*
Y86491D01*
X379090Y86545D01*
X378451Y86698D01*
X377795Y86750D01*
X377140Y86698D01*
X376500Y86545D01*
X375893Y86293D01*
X375332Y85950D01*
X374832Y85522D01*
X374405Y85022D01*
X374061Y84462D01*
X373810Y83854D01*
X373656Y83215D01*
X373604Y82559D01*
X373656Y81903D01*
X373810Y81264D01*
X374061Y80656D01*
X374405Y80096D01*
X374832Y79596D01*
X375332Y79169D01*
X375893Y78825D01*
X376500Y78573D01*
X377140Y78420D01*
X377795Y78368D01*
X378451Y78420D01*
X379090Y78573D01*
X379219Y78627D01*
Y70520D01*
X374715D01*
G37*
G36*
X372579Y3937D02*Y27701D01*
X373657D01*
X373814Y27710D01*
X373967Y27747D01*
X374113Y27807D01*
X374247Y27889D01*
X374367Y27991D01*
X374469Y28111D01*
X374551Y28245D01*
X374611Y28391D01*
X374648Y28544D01*
X374661Y28701D01*
X374648Y28858D01*
X374611Y29011D01*
X374551Y29156D01*
X374469Y29290D01*
X374367Y29410D01*
X374247Y29512D01*
X374113Y29595D01*
X373967Y29655D01*
X373814Y29692D01*
X373657Y29701D01*
X372579D01*
Y37701D01*
X373657D01*
X373814Y37710D01*
X373967Y37747D01*
X374113Y37807D01*
X374247Y37889D01*
X374367Y37991D01*
X374469Y38111D01*
X374551Y38245D01*
X374611Y38391D01*
X374648Y38544D01*
X374661Y38701D01*
X374648Y38858D01*
X374611Y39011D01*
X374551Y39156D01*
X374469Y39290D01*
X374367Y39410D01*
X374247Y39512D01*
X374113Y39595D01*
X373967Y39655D01*
X373814Y39692D01*
X373657Y39701D01*
X372579D01*
Y60207D01*
X372589Y60191D01*
X372844Y59891D01*
X373143Y59636D01*
X373479Y59430D01*
X373842Y59280D01*
X374225Y59188D01*
X374617Y59157D01*
X374715Y59165D01*
X379219D01*
Y38119D01*
X378909Y38391D01*
X378779Y38480D01*
X378636Y38547D01*
X378484Y38591D01*
X378328Y38611D01*
X378170Y38606D01*
X378014Y38576D01*
X377866Y38523D01*
X377727Y38446D01*
X377603Y38350D01*
X377494Y38234D01*
X377406Y38104D01*
X377339Y37960D01*
X377295Y37809D01*
X377275Y37652D01*
X377280Y37494D01*
X377310Y37339D01*
X377363Y37190D01*
X377440Y37052D01*
X377536Y36927D01*
X377654Y36821D01*
X377926Y36588D01*
X378173Y36329D01*
X378396Y36048D01*
X378593Y35749D01*
X378763Y35434D01*
X378903Y35104D01*
X379014Y34763D01*
X379093Y34414D01*
X379141Y34059D01*
X379157Y33701D01*
X379141Y33343D01*
X379093Y32988D01*
X379014Y32638D01*
X378903Y32298D01*
X378763Y31968D01*
X378593Y31652D01*
X378396Y31353D01*
X378173Y31073D01*
X377926Y30813D01*
X377656Y30577D01*
X377539Y30472D01*
X377443Y30348D01*
X377367Y30210D01*
X377314Y30062D01*
X377284Y29907D01*
X377279Y29750D01*
X377299Y29594D01*
X377342Y29443D01*
X377409Y29300D01*
X377498Y29170D01*
X377605Y29055D01*
X377730Y28958D01*
X377867Y28883D01*
X378016Y28829D01*
X378170Y28800D01*
X378327Y28794D01*
X378484Y28814D01*
X378635Y28858D01*
X378777Y28925D01*
X378906Y29016D01*
X379219Y29284D01*
Y3937D01*
X372579D01*
G37*
G36*
X379219Y389764D02*Y142086D01*
X378860Y142150D01*
X378287Y142201D01*
X377713D01*
X377140Y142150D01*
X376575Y142049D01*
X376020Y141899D01*
X375837Y141825D01*
X375668Y141723D01*
X375517Y141596D01*
X375389Y141446D01*
X375285Y141278D01*
X375208Y141096D01*
X375161Y140905D01*
X375145Y140708D01*
X375159Y140511D01*
X375204Y140319D01*
X375279Y140136D01*
X375381Y139968D01*
X375509Y139817D01*
X375658Y139688D01*
X375826Y139584D01*
X376008Y139508D01*
X376199Y139461D01*
X376396Y139444D01*
X376593Y139459D01*
X376784Y139507D01*
X377124Y139604D01*
X377471Y139666D01*
X377823Y139697D01*
X378177D01*
X378529Y139666D01*
X378876Y139604D01*
X379217Y139511D01*
X379219Y139511D01*
Y131895D01*
X379216Y131894D01*
X378876Y131798D01*
X378529Y131736D01*
X378177Y131705D01*
X377823D01*
X377471Y131736D01*
X377124Y131798D01*
X376783Y131890D01*
X376592Y131939D01*
X376396Y131954D01*
X376200Y131937D01*
X376009Y131890D01*
X375828Y131814D01*
X375660Y131710D01*
X375511Y131582D01*
X375384Y131432D01*
X375282Y131263D01*
X375208Y131081D01*
X375163Y130890D01*
X375149Y130694D01*
X375165Y130497D01*
X375212Y130306D01*
X375288Y130125D01*
X375392Y129958D01*
X375520Y129809D01*
X375670Y129682D01*
X375839Y129580D01*
X376022Y129509D01*
X376575Y129352D01*
X377140Y129251D01*
X377713Y129201D01*
X378287D01*
X378860Y129251D01*
X379219Y129316D01*
Y112201D01*
X374098D01*
X374000Y112208D01*
X373608Y112178D01*
X373608Y112178D01*
X373225Y112086D01*
X372862Y111935D01*
X372579Y111762D01*
Y129269D01*
X372775Y129316D01*
X373138Y129466D01*
X373474Y129672D01*
X373773Y129928D01*
X374029Y130227D01*
X374234Y130562D01*
X374385Y130926D01*
X374477Y131308D01*
X374508Y131701D01*
X374500Y131799D01*
Y139603D01*
X374508Y139701D01*
X374477Y140093D01*
X374477Y140093D01*
X374385Y140476D01*
X374234Y140839D01*
X374029Y141175D01*
X373773Y141474D01*
X373474Y141730D01*
X373138Y141935D01*
X372775Y142086D01*
X372579Y142133D01*
Y389764D01*
X379219D01*
G37*
G36*
X372526Y111730D02*X372227Y111474D01*
X371971Y111175D01*
X371843Y110966D01*
X371832Y110976D01*
X370960Y111510D01*
X370015Y111902D01*
X369020Y112141D01*
X368000Y112221D01*
X366980Y112141D01*
X365985Y111902D01*
X365040Y111510D01*
X364168Y110976D01*
X364157Y110966D01*
X364029Y111175D01*
X363773Y111474D01*
X363474Y111730D01*
X363138Y111935D01*
X362775Y112086D01*
X362392Y112178D01*
X362000Y112208D01*
X361902Y112201D01*
X354098D01*
X354000Y112208D01*
X353608Y112178D01*
X353608Y112178D01*
X353225Y112086D01*
X353000Y111993D01*
X352775Y112086D01*
X352392Y112178D01*
X352000Y112208D01*
X351902Y112201D01*
X344098D01*
X344000Y112208D01*
X343608Y112178D01*
X343608Y112178D01*
X343225Y112086D01*
X343000Y111993D01*
X342775Y112086D01*
X342392Y112178D01*
X342000Y112208D01*
X341902Y112201D01*
X335743D01*
X340038Y116496D01*
X340128Y116573D01*
X340434Y116932D01*
X340435Y116932D01*
X340681Y117335D01*
X340862Y117771D01*
X340972Y118230D01*
X341009Y118701D01*
X341000Y118818D01*
Y129916D01*
X341832Y130426D01*
X342610Y131090D01*
X343000Y131547D01*
X343390Y131090D01*
X344168Y130426D01*
X345040Y129891D01*
X345985Y129500D01*
X346980Y129261D01*
X348000Y129181D01*
X349020Y129261D01*
X350015Y129500D01*
X350960Y129891D01*
X351832Y130426D01*
X352610Y131090D01*
X353000Y131547D01*
X353390Y131090D01*
X354168Y130426D01*
X355040Y129891D01*
X355985Y129500D01*
X356980Y129261D01*
X358000Y129181D01*
X359020Y129261D01*
X360015Y129500D01*
X360960Y129891D01*
X361832Y130426D01*
X361843Y130435D01*
X361971Y130227D01*
X362227Y129928D01*
X362526Y129672D01*
X362862Y129466D01*
X363225Y129316D01*
X363608Y129224D01*
X364000Y129193D01*
X364098Y129201D01*
X371902D01*
X372000Y129193D01*
X372392Y129224D01*
X372392Y129224D01*
X372579Y129269D01*
Y111762D01*
X372526Y111730D01*
G37*
G36*
X371902Y87201D02*X372000Y87193D01*
X372392Y87224D01*
X372392Y87224D01*
X372579Y87269D01*
Y69478D01*
X372383Y69159D01*
X372232Y68795D01*
X372140Y68413D01*
X372110Y68020D01*
X372117Y67922D01*
Y61763D01*
X372110Y61665D01*
X372140Y61272D01*
X372140Y61272D01*
X372232Y60890D01*
X372383Y60526D01*
X372579Y60207D01*
Y39701D01*
X371500D01*
X371343Y39692D01*
X371190Y39655D01*
X371045Y39595D01*
X370910Y39512D01*
X370791Y39410D01*
X370688Y39290D01*
X370606Y39156D01*
X370546Y39011D01*
X370509Y38858D01*
X370497Y38701D01*
X370509Y38544D01*
X370546Y38391D01*
X370606Y38245D01*
X370688Y38111D01*
X370791Y37992D01*
X370910Y37889D01*
X371045Y37807D01*
X371190Y37747D01*
X371343Y37710D01*
X371500Y37701D01*
X372579D01*
Y29701D01*
X371500D01*
X371343Y29692D01*
X371190Y29655D01*
X371045Y29595D01*
X370910Y29512D01*
X370791Y29410D01*
X370688Y29290D01*
X370606Y29156D01*
X370546Y29011D01*
X370509Y28858D01*
X370497Y28701D01*
X370509Y28544D01*
X370546Y28391D01*
X370606Y28245D01*
X370688Y28111D01*
X370791Y27992D01*
X370910Y27889D01*
X371045Y27807D01*
X371190Y27747D01*
X371343Y27710D01*
X371500Y27701D01*
X372579D01*
Y3937D01*
X365938D01*
Y29282D01*
X366248Y29011D01*
X366378Y28921D01*
X366521Y28854D01*
X366673Y28810D01*
X366830Y28790D01*
X366988Y28795D01*
X367143Y28825D01*
X367292Y28879D01*
X367430Y28955D01*
X367555Y29052D01*
X367663Y29167D01*
X367752Y29298D01*
X367819Y29441D01*
X367863Y29593D01*
X367883Y29750D01*
X367877Y29908D01*
X367848Y30063D01*
X367794Y30212D01*
X367718Y30350D01*
X367621Y30475D01*
X367504Y30580D01*
X367232Y30813D01*
X366984Y31073D01*
X366761Y31353D01*
X366564Y31652D01*
X366395Y31968D01*
X366254Y32298D01*
X366144Y32638D01*
X366064Y32988D01*
X366016Y33343D01*
X366000Y33701D01*
X366016Y34059D01*
X366064Y34414D01*
X366144Y34763D01*
X366254Y35104D01*
X366395Y35434D01*
X366564Y35749D01*
X366761Y36048D01*
X366984Y36329D01*
X367232Y36588D01*
X367501Y36824D01*
X367618Y36930D01*
X367715Y37054D01*
X367790Y37192D01*
X367844Y37340D01*
X367873Y37494D01*
X367879Y37652D01*
X367859Y37808D01*
X367815Y37959D01*
X367748Y38102D01*
X367660Y38232D01*
X367552Y38347D01*
X367428Y38443D01*
X367290Y38519D01*
X367142Y38572D01*
X366987Y38602D01*
X366830Y38607D01*
X366674Y38588D01*
X366523Y38544D01*
X366380Y38477D01*
X366252Y38386D01*
X365938Y38117D01*
Y87201D01*
X371902D01*
G37*
G36*
X372579Y389764D02*Y142133D01*
X372392Y142178D01*
X372000Y142208D01*
X371902Y142201D01*
X365938D01*
Y389764D01*
X372579D01*
G37*
G36*
X352392Y99224D02*X352392Y99224D01*
X352775Y99316D01*
X353000Y99409D01*
X353225Y99316D01*
X353608Y99224D01*
X354000Y99193D01*
X354098Y99201D01*
X361902D01*
X361988Y99194D01*
X361971Y99175D01*
X361766Y98839D01*
X361615Y98476D01*
X361523Y98093D01*
X361492Y97701D01*
X361500Y97603D01*
Y89799D01*
X361492Y89701D01*
X361523Y89309D01*
X361523Y89308D01*
X361615Y88926D01*
X361766Y88562D01*
X361971Y88227D01*
X362227Y87928D01*
X362526Y87672D01*
X362862Y87466D01*
X363225Y87316D01*
X363608Y87224D01*
X364000Y87193D01*
X364098Y87201D01*
X365938D01*
Y38117D01*
X365843Y38036D01*
X365472Y37647D01*
X365137Y37226D01*
X364841Y36776D01*
X364587Y36303D01*
X364376Y35808D01*
X364210Y35296D01*
X364090Y34771D01*
X364018Y34238D01*
X363994Y33701D01*
X364018Y33163D01*
X364090Y32630D01*
X364210Y32106D01*
X364376Y31594D01*
X364587Y31099D01*
X364841Y30625D01*
X365137Y30176D01*
X365472Y29755D01*
X365843Y29365D01*
X365938Y29282D01*
Y3937D01*
X352198D01*
Y27201D01*
X354260D01*
X354358Y27193D01*
X354749Y27224D01*
X354750Y27224D01*
X355132Y27316D01*
X355496Y27466D01*
X355832Y27672D01*
X356131Y27928D01*
X356386Y28227D01*
X356592Y28562D01*
X356743Y28926D01*
X356834Y29308D01*
X356865Y29701D01*
X356858Y29799D01*
Y37603D01*
X356865Y37701D01*
X356834Y38093D01*
X356743Y38476D01*
X356592Y38839D01*
X356386Y39175D01*
X356131Y39474D01*
X355832Y39730D01*
X355496Y39935D01*
X355132Y40086D01*
X354750Y40178D01*
X354358Y40208D01*
X354260Y40201D01*
X352198D01*
Y60652D01*
X352205Y60652D01*
X352860Y60703D01*
X353500Y60857D01*
X354107Y61108D01*
X354668Y61452D01*
X355168Y61879D01*
X355595Y62379D01*
X355939Y62940D01*
X356190Y63547D01*
X356344Y64187D01*
X356383Y64843D01*
X356344Y65498D01*
X356190Y66138D01*
X355939Y66745D01*
X355595Y67306D01*
X355168Y67806D01*
X354668Y68233D01*
X354107Y68577D01*
X353500Y68828D01*
X352860Y68982D01*
X352205Y69033D01*
X352198Y69033D01*
Y78369D01*
X352205Y78368D01*
X352860Y78420D01*
X353500Y78573D01*
X354107Y78825D01*
X354668Y79169D01*
X355168Y79596D01*
X355595Y80096D01*
X355939Y80656D01*
X356190Y81264D01*
X356344Y81903D01*
X356383Y82559D01*
X356344Y83215D01*
X356190Y83854D01*
X355939Y84462D01*
X355595Y85022D01*
X355168Y85522D01*
X354668Y85950D01*
X354107Y86293D01*
X353500Y86545D01*
X352860Y86698D01*
X352205Y86750D01*
X352198Y86749D01*
Y99209D01*
X352392Y99224D01*
G37*
G36*
X347758Y3937D02*Y27201D01*
X352198D01*
Y3937D01*
X347758D01*
G37*
G36*
X350038Y98551D02*X350128Y98628D01*
X350434Y98987D01*
X350435Y98987D01*
X350565Y99201D01*
X351902D01*
X352000Y99193D01*
X352198Y99209D01*
Y86749D01*
X351549Y86698D01*
X350910Y86545D01*
X350302Y86293D01*
X349741Y85950D01*
X349241Y85522D01*
X348814Y85022D01*
X348471Y84462D01*
X348219Y83854D01*
X348065Y83215D01*
X348014Y82559D01*
X348065Y81903D01*
X348219Y81264D01*
X348471Y80656D01*
X348814Y80096D01*
X349241Y79596D01*
X349741Y79169D01*
X350302Y78825D01*
X350910Y78573D01*
X351549Y78420D01*
X352198Y78369D01*
Y69033D01*
X351549Y68982D01*
X350910Y68828D01*
X350302Y68577D01*
X349741Y68233D01*
X349241Y67806D01*
X348814Y67306D01*
X348471Y66745D01*
X348219Y66138D01*
X348065Y65498D01*
X348014Y64843D01*
X348065Y64187D01*
X348219Y63547D01*
X348471Y62940D01*
X348814Y62379D01*
X349241Y61879D01*
X349741Y61452D01*
X350302Y61108D01*
X350910Y60857D01*
X351549Y60703D01*
X352198Y60652D01*
Y40201D01*
X347758D01*
Y96271D01*
X350038Y98551D01*
G37*
G36*
X348296Y148395D02*X349160Y148037D01*
X350068Y147819D01*
X351000Y147745D01*
X351932Y147819D01*
X352502Y147956D01*
X355000Y145458D01*
Y141486D01*
X354168Y140976D01*
X353390Y140311D01*
X353000Y139855D01*
X352610Y140311D01*
X351832Y140976D01*
X350960Y141510D01*
X350015Y141902D01*
X349020Y142141D01*
X348264Y142200D01*
X347758Y143279D01*
Y148725D01*
X348296Y148395D01*
G37*
G36*
X365938Y389764D02*Y142201D01*
X364098D01*
X364000Y142208D01*
X363608Y142178D01*
X363608Y142178D01*
X363225Y142086D01*
X362862Y141935D01*
X362526Y141730D01*
X362227Y141474D01*
X361971Y141175D01*
X361843Y140966D01*
X361832Y140976D01*
X361000Y141486D01*
Y146583D01*
X361009Y146701D01*
X360972Y147171D01*
X360972Y147172D01*
X360862Y147631D01*
X360681Y148067D01*
X360435Y148470D01*
X360128Y148829D01*
X360038Y148905D01*
X356745Y152198D01*
X356882Y152769D01*
X356937Y153701D01*
X356882Y154632D01*
X356664Y155541D01*
X356306Y156404D01*
X355818Y157201D01*
X355211Y157912D01*
X354500Y158519D01*
X353704Y159007D01*
X352840Y159365D01*
X351932Y159583D01*
X351000Y159656D01*
X350068Y159583D01*
X349160Y159365D01*
X348296Y159007D01*
X347758Y158677D01*
Y389764D01*
X365938D01*
G37*
G36*
X323000Y140077D02*Y138201D01*
X322809Y138661D01*
X322275Y139533D01*
X321610Y140311D01*
X320832Y140976D01*
X320377Y141255D01*
Y146111D01*
X323000Y140077D01*
G37*
G36*
X345158Y95031D02*X345276Y95022D01*
X345746Y95059D01*
X345746Y95059D01*
X346206Y95170D01*
X346642Y95350D01*
X347044Y95597D01*
X347403Y95904D01*
X347480Y95993D01*
X347758Y96271D01*
Y40201D01*
X341255D01*
X341158Y40208D01*
X340766Y40178D01*
X340765Y40178D01*
X340383Y40086D01*
X340019Y39935D01*
X339684Y39730D01*
X339384Y39474D01*
X339129Y39175D01*
X338923Y38839D01*
X338773Y38476D01*
X338681Y38093D01*
X338650Y37701D01*
X338658Y37603D01*
Y29799D01*
X338650Y29701D01*
X338681Y29308D01*
X338773Y28926D01*
X338923Y28562D01*
X339129Y28227D01*
X339384Y27928D01*
X339684Y27672D01*
X340019Y27466D01*
X340383Y27316D01*
X340765Y27224D01*
X341158Y27193D01*
X341255Y27201D01*
X347758D01*
Y3937D01*
X337104D01*
Y16208D01*
X337253Y16293D01*
X337407Y16415D01*
X337540Y16561D01*
X337645Y16727D01*
X338070Y17560D01*
X338406Y18433D01*
X338660Y19334D01*
X338831Y20254D01*
X338917Y21186D01*
Y22121D01*
X338831Y23053D01*
X338660Y23973D01*
X338406Y24874D01*
X338070Y25747D01*
X337655Y26586D01*
X337547Y26752D01*
X337413Y26898D01*
X337258Y27021D01*
X337104Y27108D01*
Y95031D01*
X345158D01*
G37*
G36*
X335896Y77355D02*X335986Y77431D01*
X336293Y77790D01*
X336293Y77790D01*
X336540Y78193D01*
X336720Y78629D01*
X336830Y79088D01*
X336868Y79559D01*
X336858Y79677D01*
Y94820D01*
X337069Y95031D01*
X337104D01*
Y27108D01*
X337086Y27119D01*
X336900Y27188D01*
X336706Y27228D01*
X336508Y27237D01*
X336312Y27214D01*
X336121Y27162D01*
X335941Y27080D01*
X335775Y26970D01*
X335629Y26837D01*
X335506Y26682D01*
X335408Y26510D01*
X335339Y26324D01*
X335299Y26130D01*
X335290Y25932D01*
X335312Y25736D01*
X335365Y25545D01*
X335451Y25366D01*
X335770Y24738D01*
X336024Y24080D01*
X336216Y23402D01*
X336345Y22708D01*
X336409Y22006D01*
Y21301D01*
X336345Y20599D01*
X336216Y19906D01*
X336024Y19227D01*
X335770Y18569D01*
X335458Y17937D01*
X335373Y17760D01*
X335320Y17570D01*
X335298Y17375D01*
X335307Y17178D01*
X335346Y16985D01*
X335416Y16801D01*
X335513Y16630D01*
X335635Y16476D01*
X335780Y16343D01*
X335944Y16235D01*
X336124Y16153D01*
X336313Y16101D01*
X336509Y16079D01*
X336705Y16087D01*
X336898Y16127D01*
X337082Y16196D01*
X337104Y16208D01*
Y3937D01*
X328736D01*
Y11476D01*
X329208D01*
X330140Y11562D01*
X331060Y11733D01*
X331960Y11988D01*
X332834Y12324D01*
X333672Y12739D01*
X333838Y12847D01*
X333984Y12981D01*
X334108Y13136D01*
X334205Y13308D01*
X334275Y13493D01*
X334314Y13687D01*
X334323Y13885D01*
X334301Y14082D01*
X334248Y14273D01*
X334166Y14453D01*
X334057Y14618D01*
X333923Y14765D01*
X333768Y14888D01*
X333596Y14986D01*
X333411Y15055D01*
X333217Y15095D01*
X333019Y15103D01*
X332822Y15081D01*
X332631Y15028D01*
X332453Y14943D01*
X331825Y14623D01*
X331167Y14370D01*
X330488Y14178D01*
X329795Y14049D01*
X329093Y13984D01*
X328736D01*
Y29323D01*
X329093D01*
X329795Y29258D01*
X330488Y29129D01*
X331167Y28937D01*
X331825Y28684D01*
X332457Y28371D01*
X332634Y28286D01*
X332824Y28234D01*
X333019Y28212D01*
X333216Y28220D01*
X333409Y28260D01*
X333593Y28329D01*
X333764Y28426D01*
X333918Y28549D01*
X334051Y28694D01*
X334159Y28858D01*
X334241Y29037D01*
X334293Y29227D01*
X334315Y29422D01*
X334306Y29619D01*
X334267Y29811D01*
X334198Y29996D01*
X334101Y30167D01*
X333978Y30321D01*
X333833Y30453D01*
X333667Y30559D01*
X332834Y30983D01*
X331960Y31319D01*
X331060Y31574D01*
X330140Y31745D01*
X329208Y31831D01*
X328736D01*
Y70194D01*
X335896Y77355D01*
G37*
G36*
X328736Y70194D02*Y31831D01*
X328272D01*
X327340Y31745D01*
X326420Y31574D01*
X325520Y31319D01*
X324647Y30983D01*
X323808Y30568D01*
X323642Y30460D01*
X323496Y30326D01*
X323373Y30171D01*
X323275Y29999D01*
X323206Y29814D01*
X323166Y29620D01*
X323157Y29422D01*
X323179Y29225D01*
X323232Y29034D01*
X323314Y28854D01*
X323423Y28689D01*
X323557Y28543D01*
X323712Y28419D01*
X323884Y28322D01*
X324070Y28252D01*
X324264Y28212D01*
X324461Y28204D01*
X324658Y28226D01*
X324849Y28279D01*
X325027Y28364D01*
X325656Y28684D01*
X326314Y28937D01*
X326992Y29129D01*
X327685Y29258D01*
X328388Y29323D01*
X328736D01*
Y13984D01*
X328388D01*
X327685Y14049D01*
X326992Y14178D01*
X326314Y14370D01*
X325656Y14623D01*
X325024Y14936D01*
X324846Y15021D01*
X324657Y15073D01*
X324461Y15095D01*
X324265Y15087D01*
X324072Y15047D01*
X323888Y14978D01*
X323716Y14881D01*
X323563Y14759D01*
X323430Y14613D01*
X323321Y14449D01*
X323240Y14270D01*
X323187Y14081D01*
X323165Y13885D01*
X323174Y13688D01*
X323213Y13496D01*
X323282Y13311D01*
X323379Y13140D01*
X323502Y12986D01*
X323647Y12854D01*
X323813Y12749D01*
X324647Y12324D01*
X325520Y11988D01*
X326420Y11733D01*
X327340Y11562D01*
X328272Y11476D01*
X328736D01*
Y3937D01*
X320377D01*
Y16199D01*
X320395Y16188D01*
X320580Y16119D01*
X320774Y16079D01*
X320972Y16071D01*
X321169Y16093D01*
X321360Y16146D01*
X321540Y16228D01*
X321705Y16337D01*
X321851Y16470D01*
X321975Y16625D01*
X322072Y16798D01*
X322142Y16983D01*
X322181Y17177D01*
X322190Y17375D01*
X322168Y17572D01*
X322115Y17762D01*
X322030Y17941D01*
X321710Y18569D01*
X321457Y19227D01*
X321265Y19906D01*
X321136Y20599D01*
X321071Y21301D01*
Y22006D01*
X321136Y22708D01*
X321265Y23402D01*
X321457Y24080D01*
X321710Y24738D01*
X322023Y25370D01*
X322107Y25547D01*
X322160Y25737D01*
X322182Y25933D01*
X322173Y26129D01*
X322134Y26322D01*
X322065Y26506D01*
X321968Y26677D01*
X321845Y26831D01*
X321700Y26964D01*
X321536Y27072D01*
X321357Y27154D01*
X321167Y27206D01*
X320972Y27228D01*
X320775Y27220D01*
X320582Y27180D01*
X320398Y27111D01*
X320377Y27099D01*
Y61835D01*
X328736Y70194D01*
G37*
G36*
X342464Y140436D02*X341832Y140976D01*
X340960Y141510D01*
X340015Y141902D01*
X339020Y142141D01*
X338000Y142221D01*
X336980Y142141D01*
X335985Y141902D01*
X335040Y141510D01*
X334168Y140976D01*
X333390Y140311D01*
X332725Y139533D01*
X332191Y138661D01*
X331799Y137716D01*
X331560Y136721D01*
X331480Y135701D01*
X331560Y134681D01*
X331799Y133686D01*
X332191Y132741D01*
X332725Y131868D01*
X333390Y131090D01*
X334168Y130426D01*
X335000Y129916D01*
Y119943D01*
X326962Y111905D01*
X326872Y111829D01*
X326565Y111470D01*
X326319Y111067D01*
X326138Y110631D01*
X326028Y110172D01*
X326028Y110171D01*
X325991Y109701D01*
X326000Y109583D01*
Y82943D01*
X320377Y77320D01*
Y100147D01*
X320832Y100426D01*
X321610Y101090D01*
X322275Y101868D01*
X322809Y102741D01*
X323201Y103686D01*
X323440Y104681D01*
X323500Y105701D01*
X323440Y106721D01*
X323201Y107716D01*
X322809Y108661D01*
X322275Y109533D01*
X321610Y110311D01*
X321154Y110701D01*
X321610Y111090D01*
X322275Y111868D01*
X322809Y112741D01*
X323201Y113686D01*
X323440Y114681D01*
X323500Y115701D01*
X323440Y116721D01*
X323201Y117716D01*
X322809Y118661D01*
X322275Y119533D01*
X321610Y120311D01*
X321154Y120701D01*
X321610Y121090D01*
X322275Y121868D01*
X322809Y122741D01*
X323179Y123633D01*
X323204Y123663D01*
X328038Y128496D01*
X328128Y128573D01*
X328434Y128932D01*
X328435Y128932D01*
X328681Y129335D01*
X328862Y129771D01*
X328972Y130230D01*
X329009Y130701D01*
X329000Y130818D01*
Y140491D01*
X329004Y140517D01*
X328995Y140989D01*
X328977Y141095D01*
X328972Y141172D01*
X328938Y141312D01*
X328913Y141454D01*
X328887Y141526D01*
X328862Y141631D01*
X328681Y142067D01*
X328668Y142089D01*
X320377Y161159D01*
Y187504D01*
X342464Y140436D01*
G37*
G36*
X347758Y389764D02*Y158677D01*
X347500Y158519D01*
X346789Y157912D01*
X346182Y157201D01*
X345694Y156404D01*
X345336Y155541D01*
X345118Y154632D01*
X345045Y153701D01*
X345118Y152769D01*
X345336Y151860D01*
X345694Y150997D01*
X346182Y150200D01*
X346789Y149490D01*
X347500Y148883D01*
X347758Y148725D01*
Y143279D01*
X320377Y201627D01*
Y389764D01*
X347758D01*
G37*
G36*
X309961Y24359D02*X310923Y24435D01*
X311862Y24660D01*
X312754Y25030D01*
X313577Y25534D01*
X314311Y26161D01*
X314938Y26895D01*
X315443Y27719D01*
X315812Y28610D01*
X316038Y29549D01*
X316094Y30512D01*
X316038Y31474D01*
X315812Y32413D01*
X315443Y33305D01*
X314938Y34128D01*
X314311Y34862D01*
X313577Y35490D01*
X312754Y35994D01*
X311862Y36363D01*
X310923Y36589D01*
X309961Y36665D01*
X309951Y36664D01*
Y58701D01*
X315882D01*
X316000Y58692D01*
X316471Y58729D01*
X316471Y58729D01*
X316930Y58839D01*
X317366Y59020D01*
X317769Y59266D01*
X318128Y59573D01*
X318204Y59663D01*
X320377Y61835D01*
Y27099D01*
X320227Y27014D01*
X320073Y26892D01*
X319940Y26746D01*
X319835Y26580D01*
X319411Y25747D01*
X319075Y24874D01*
X318820Y23973D01*
X318649Y23053D01*
X318563Y22121D01*
Y21186D01*
X318649Y20254D01*
X318820Y19334D01*
X319075Y18433D01*
X319411Y17560D01*
X319826Y16721D01*
X319934Y16556D01*
X320067Y16409D01*
X320222Y16286D01*
X320377Y16199D01*
Y3937D01*
X309951D01*
Y11761D01*
X309961Y11761D01*
X310923Y11836D01*
X311862Y12062D01*
X312754Y12431D01*
X313577Y12936D01*
X314311Y13563D01*
X314938Y14297D01*
X315443Y15120D01*
X315812Y16012D01*
X316038Y16951D01*
X316094Y17913D01*
X316038Y18876D01*
X315812Y19815D01*
X315443Y20707D01*
X314938Y21530D01*
X314311Y22264D01*
X313577Y22891D01*
X312754Y23396D01*
X311862Y23765D01*
X310923Y23990D01*
X309961Y24066D01*
X309951Y24065D01*
Y24360D01*
X309961Y24359D01*
G37*
G36*
X308998Y36589D02*X308059Y36363D01*
X307167Y35994D01*
X306344Y35490D01*
X305610Y34862D01*
X305039Y34194D01*
X304469Y34862D01*
X303735Y35490D01*
X303118Y35867D01*
Y46988D01*
X303832Y47426D01*
X304610Y48090D01*
X305275Y48868D01*
X305809Y49741D01*
X306201Y50686D01*
X306440Y51681D01*
X306500Y52701D01*
X306440Y53721D01*
X306201Y54716D01*
X305809Y55661D01*
X305275Y56533D01*
X304610Y57311D01*
X303832Y57976D01*
X302960Y58510D01*
X302500Y58701D01*
X309951D01*
Y36664D01*
X308998Y36589D01*
G37*
G36*
X301081Y24435D02*X302019Y24660D01*
X302911Y25030D01*
X303735Y25534D01*
X304469Y26161D01*
X305039Y26829D01*
X305610Y26161D01*
X306344Y25534D01*
X307167Y25030D01*
X308059Y24660D01*
X308998Y24435D01*
X309951Y24360D01*
Y24065D01*
X308998Y23990D01*
X308059Y23765D01*
X307167Y23396D01*
X306344Y22891D01*
X305610Y22264D01*
X304983Y21530D01*
X304570Y20856D01*
X304467Y20822D01*
X304326Y20750D01*
X304199Y20657D01*
X304087Y20545D01*
X303995Y20416D01*
X303923Y20275D01*
X303875Y20125D01*
X303851Y19969D01*
X303851Y19811D01*
X303876Y19655D01*
X303929Y19506D01*
X303994Y19334D01*
X303884Y18876D01*
X303808Y17913D01*
X303884Y16951D01*
X303995Y16489D01*
X303932Y16319D01*
X303880Y16171D01*
X303855Y16016D01*
X303855Y15858D01*
X303879Y15703D01*
X303927Y15553D01*
X303998Y15412D01*
X304090Y15285D01*
X304201Y15173D01*
X304328Y15080D01*
X304468Y15008D01*
X304567Y14976D01*
X304983Y14297D01*
X305610Y13563D01*
X306344Y12936D01*
X307167Y12431D01*
X308059Y12062D01*
X308998Y11836D01*
X309951Y11761D01*
Y3937D01*
X300120D01*
Y11780D01*
X300388D01*
X300926Y11827D01*
X301457Y11921D01*
X301979Y12062D01*
X302485Y12248D01*
X302626Y12319D01*
X302754Y12413D01*
X302865Y12525D01*
X302958Y12653D01*
X303029Y12794D01*
X303078Y12944D01*
X303102Y13101D01*
X303101Y13259D01*
X303076Y13415D01*
X303027Y13565D01*
X302955Y13705D01*
X302861Y13833D01*
X302749Y13944D01*
X302621Y14037D01*
X302480Y14108D01*
X302330Y14156D01*
X302173Y14181D01*
X302015Y14180D01*
X301859Y14155D01*
X301710Y14103D01*
X301371Y13974D01*
X301020Y13879D01*
X300662Y13815D01*
X300300Y13784D01*
X300120D01*
Y22043D01*
X300300D01*
X300662Y22011D01*
X301020Y21948D01*
X301371Y21853D01*
X301712Y21728D01*
X301860Y21676D01*
X302016Y21651D01*
X302173Y21650D01*
X302329Y21674D01*
X302479Y21722D01*
X302619Y21793D01*
X302747Y21886D01*
X302858Y21996D01*
X302951Y22124D01*
X303023Y22264D01*
X303072Y22413D01*
X303097Y22568D01*
X303098Y22726D01*
X303074Y22881D01*
X303026Y23031D01*
X302954Y23172D01*
X302862Y23299D01*
X302751Y23411D01*
X302624Y23504D01*
X302483Y23573D01*
X301979Y23764D01*
X301457Y23905D01*
X300926Y24000D01*
X300388Y24047D01*
X300120D01*
Y24359D01*
X301081Y24435D01*
G37*
G36*
X295767Y26161D02*X296502Y25534D01*
X297325Y25030D01*
X298217Y24660D01*
X299156Y24435D01*
X300118Y24359D01*
X300120Y24359D01*
Y24047D01*
X299848D01*
X299310Y24000D01*
X298779Y23905D01*
X298258Y23764D01*
X297751Y23578D01*
X297610Y23507D01*
X297482Y23414D01*
X297371Y23302D01*
X297278Y23174D01*
X297207Y23033D01*
X297159Y22882D01*
X297134Y22726D01*
X297135Y22568D01*
X297160Y22412D01*
X297209Y22262D01*
X297282Y22121D01*
X297375Y21994D01*
X297487Y21882D01*
X297615Y21790D01*
X297756Y21719D01*
X297907Y21670D01*
X298063Y21646D01*
X298221Y21647D01*
X298377Y21672D01*
X298526Y21724D01*
X298865Y21853D01*
X299216Y21948D01*
X299574Y22011D01*
X299936Y22043D01*
X300120D01*
Y13784D01*
X299936D01*
X299574Y13815D01*
X299216Y13879D01*
X298865Y13974D01*
X298524Y14099D01*
X298376Y14151D01*
X298220Y14176D01*
X298063Y14177D01*
X297908Y14153D01*
X297758Y14104D01*
X297617Y14033D01*
X297490Y13941D01*
X297378Y13830D01*
X297285Y13703D01*
X297213Y13563D01*
X297164Y13414D01*
X297139Y13258D01*
X297138Y13101D01*
X297163Y12945D01*
X297211Y12796D01*
X297282Y12655D01*
X297374Y12527D01*
X297485Y12416D01*
X297612Y12323D01*
X297753Y12254D01*
X298258Y12062D01*
X298779Y11921D01*
X299310Y11827D01*
X299848Y11780D01*
X300120D01*
Y3937D01*
X295185D01*
Y14948D01*
X295305Y14930D01*
X295463Y14930D01*
X295619Y14955D01*
X295770Y15005D01*
X295910Y15077D01*
X296038Y15170D01*
X296149Y15282D01*
X296242Y15410D01*
X296313Y15551D01*
X296361Y15702D01*
X296385Y15858D01*
X296385Y16016D01*
X296360Y16172D01*
X296308Y16321D01*
X296179Y16661D01*
X296084Y17012D01*
X296020Y17370D01*
X295988Y17732D01*
Y18095D01*
X296020Y18457D01*
X296084Y18815D01*
X296179Y19166D01*
X296304Y19507D01*
X296356Y19656D01*
X296381Y19811D01*
X296381Y19968D01*
X296357Y20124D01*
X296309Y20274D01*
X296238Y20414D01*
X296146Y20542D01*
X296035Y20654D01*
X295908Y20746D01*
X295768Y20818D01*
X295618Y20867D01*
X295463Y20893D01*
X295306Y20893D01*
X295185Y20874D01*
Y26843D01*
X295767Y26161D01*
G37*
G36*
X295390Y48090D02*X296168Y47426D01*
X297040Y46891D01*
X297118Y46859D01*
Y35867D01*
X296502Y35490D01*
X295767Y34862D01*
X295185Y34180D01*
Y48330D01*
X295390Y48090D01*
G37*
G36*
X297500Y58701D02*X297040Y58510D01*
X296168Y57976D01*
X295390Y57311D01*
X295185Y57071D01*
Y58701D01*
X297500D01*
G37*
G36*
X289714Y58775D02*X289907Y58729D01*
X289940Y58727D01*
X289981Y58718D01*
X290452Y58692D01*
X290533Y58701D01*
X295185D01*
Y57071D01*
X294725Y56533D01*
X294191Y55661D01*
X293799Y54716D01*
X293560Y53721D01*
X293480Y52701D01*
X293560Y51681D01*
X293799Y50686D01*
X294191Y49741D01*
X294725Y48868D01*
X295185Y48330D01*
Y34180D01*
X295140Y34128D01*
X294636Y33305D01*
X294266Y32413D01*
X294041Y31474D01*
X293965Y30512D01*
X294041Y29549D01*
X294266Y28610D01*
X294636Y27719D01*
X295140Y26895D01*
X295185Y26843D01*
Y20874D01*
X295150Y20869D01*
X295000Y20821D01*
X294860Y20750D01*
X294732Y20658D01*
X294621Y20547D01*
X294528Y20420D01*
X294459Y20278D01*
X294267Y19774D01*
X294126Y19253D01*
X294032Y18721D01*
X293984Y18183D01*
Y17643D01*
X294032Y17106D01*
X294126Y16574D01*
X294267Y16053D01*
X294453Y15546D01*
X294524Y15405D01*
X294617Y15277D01*
X294730Y15166D01*
X294858Y15074D01*
X294999Y15002D01*
X295149Y14954D01*
X295185Y14948D01*
Y3937D01*
X289702D01*
Y16208D01*
X289852Y16293D01*
X290006Y16415D01*
X290139Y16561D01*
X290244Y16727D01*
X290668Y17560D01*
X291004Y18433D01*
X291259Y19334D01*
X291430Y20254D01*
X291516Y21186D01*
Y22121D01*
X291430Y23053D01*
X291259Y23973D01*
X291004Y24874D01*
X290668Y25747D01*
X290253Y26586D01*
X290145Y26752D01*
X290011Y26898D01*
X289856Y27021D01*
X289702Y27108D01*
Y58778D01*
X289714Y58775D01*
G37*
G36*
X288548Y59319D02*X288609Y59266D01*
X289012Y59020D01*
X289051Y59004D01*
X289078Y58987D01*
X289264Y58915D01*
X289448Y58839D01*
X289484Y58830D01*
X289519Y58817D01*
X289702Y58778D01*
Y27108D01*
X289684Y27119D01*
X289499Y27188D01*
X289305Y27228D01*
X289107Y27237D01*
X288910Y27214D01*
X288719Y27162D01*
X288539Y27080D01*
X288374Y26970D01*
X288228Y26837D01*
X288104Y26682D01*
X288007Y26510D01*
X287937Y26324D01*
X287897Y26130D01*
X287889Y25932D01*
X287911Y25736D01*
X287964Y25545D01*
X288049Y25366D01*
X288369Y24738D01*
X288622Y24080D01*
X288814Y23402D01*
X288943Y22708D01*
X289008Y22006D01*
Y21301D01*
X288943Y20599D01*
X288814Y19906D01*
X288622Y19227D01*
X288369Y18569D01*
X288056Y17937D01*
X287971Y17760D01*
X287919Y17570D01*
X287897Y17375D01*
X287906Y17178D01*
X287945Y16985D01*
X288014Y16801D01*
X288111Y16630D01*
X288234Y16476D01*
X288379Y16343D01*
X288543Y16235D01*
X288722Y16153D01*
X288912Y16101D01*
X289107Y16079D01*
X289304Y16087D01*
X289496Y16127D01*
X289681Y16196D01*
X289702Y16208D01*
Y3937D01*
X281343D01*
Y11476D01*
X281806D01*
X282738Y11562D01*
X283658Y11733D01*
X284559Y11988D01*
X285432Y12324D01*
X286271Y12739D01*
X286437Y12847D01*
X286583Y12981D01*
X286706Y13136D01*
X286804Y13308D01*
X286873Y13493D01*
X286913Y13687D01*
X286922Y13885D01*
X286899Y14082D01*
X286847Y14273D01*
X286765Y14453D01*
X286655Y14618D01*
X286522Y14765D01*
X286367Y14888D01*
X286195Y14986D01*
X286009Y15055D01*
X285815Y15095D01*
X285617Y15103D01*
X285421Y15081D01*
X285230Y15028D01*
X285051Y14943D01*
X284423Y14623D01*
X283765Y14370D01*
X283087Y14178D01*
X282393Y14049D01*
X281691Y13984D01*
X281343D01*
Y29323D01*
X281691D01*
X282393Y29258D01*
X283087Y29129D01*
X283765Y28937D01*
X284423Y28684D01*
X285055Y28371D01*
X285232Y28286D01*
X285422Y28234D01*
X285618Y28212D01*
X285814Y28220D01*
X286007Y28260D01*
X286191Y28329D01*
X286362Y28426D01*
X286516Y28549D01*
X286649Y28694D01*
X286757Y28858D01*
X286839Y29037D01*
X286891Y29227D01*
X286913Y29422D01*
X286905Y29619D01*
X286865Y29811D01*
X286796Y29996D01*
X286699Y30167D01*
X286577Y30321D01*
X286432Y30453D01*
X286266Y30559D01*
X285432Y30983D01*
X284559Y31319D01*
X283658Y31574D01*
X282738Y31745D01*
X281806Y31831D01*
X281343D01*
Y64288D01*
X288548Y59319D01*
G37*
G36*
X281343Y64288D02*Y31831D01*
X280871D01*
X279939Y31745D01*
X279019Y31574D01*
X278118Y31319D01*
X277245Y30983D01*
X276406Y30568D01*
X276241Y30460D01*
X276095Y30326D01*
X275971Y30171D01*
X275873Y29999D01*
X275804Y29814D01*
X275764Y29620D01*
X275756Y29422D01*
X275778Y29225D01*
X275831Y29034D01*
X275913Y28854D01*
X276022Y28689D01*
X276155Y28543D01*
X276310Y28419D01*
X276483Y28322D01*
X276668Y28252D01*
X276862Y28212D01*
X277060Y28204D01*
X277257Y28226D01*
X277447Y28279D01*
X277626Y28364D01*
X278254Y28684D01*
X278912Y28937D01*
X279591Y29129D01*
X280284Y29258D01*
X280986Y29323D01*
X281343D01*
Y13984D01*
X280986D01*
X280284Y14049D01*
X279591Y14178D01*
X278912Y14370D01*
X278254Y14623D01*
X277622Y14936D01*
X277445Y15021D01*
X277255Y15073D01*
X277060Y15095D01*
X276863Y15087D01*
X276670Y15047D01*
X276486Y14978D01*
X276315Y14881D01*
X276161Y14759D01*
X276028Y14613D01*
X275920Y14449D01*
X275838Y14270D01*
X275786Y14081D01*
X275764Y13885D01*
X275772Y13688D01*
X275812Y13496D01*
X275881Y13311D01*
X275978Y13140D01*
X276100Y12986D01*
X276246Y12854D01*
X276412Y12749D01*
X277245Y12324D01*
X278118Y11988D01*
X279019Y11733D01*
X279939Y11562D01*
X280871Y11476D01*
X281343D01*
Y3937D01*
X272975D01*
Y16199D01*
X272993Y16188D01*
X273178Y16119D01*
X273372Y16079D01*
X273570Y16071D01*
X273767Y16093D01*
X273958Y16146D01*
X274138Y16228D01*
X274303Y16337D01*
X274450Y16470D01*
X274573Y16625D01*
X274671Y16798D01*
X274740Y16983D01*
X274780Y17177D01*
X274789Y17375D01*
X274766Y17572D01*
X274714Y17762D01*
X274628Y17941D01*
X274308Y18569D01*
X274055Y19227D01*
X273863Y19906D01*
X273734Y20599D01*
X273670Y21301D01*
Y22006D01*
X273734Y22708D01*
X273863Y23402D01*
X274055Y24080D01*
X274308Y24738D01*
X274621Y25370D01*
X274706Y25547D01*
X274758Y25737D01*
X274780Y25933D01*
X274772Y26129D01*
X274732Y26322D01*
X274663Y26506D01*
X274566Y26677D01*
X274444Y26831D01*
X274298Y26964D01*
X274134Y27072D01*
X273955Y27154D01*
X273766Y27206D01*
X273570Y27228D01*
X273373Y27220D01*
X273181Y27180D01*
X272996Y27111D01*
X272975Y27099D01*
Y70058D01*
X281343Y64288D01*
G37*
G36*
X272975Y70058D02*Y27099D01*
X272825Y27014D01*
X272671Y26892D01*
X272539Y26746D01*
X272434Y26580D01*
X272009Y25747D01*
X271673Y24874D01*
X271418Y23973D01*
X271247Y23053D01*
X271161Y22121D01*
Y21186D01*
X271247Y20254D01*
X271418Y19334D01*
X271673Y18433D01*
X272009Y17560D01*
X272424Y16721D01*
X272532Y16556D01*
X272666Y16409D01*
X272821Y16286D01*
X272975Y16199D01*
Y3937D01*
X201462D01*
Y119375D01*
X272975Y70058D01*
G37*
G36*
X317000Y99181D02*X318020Y99261D01*
X319015Y99500D01*
X319960Y99891D01*
X320377Y100147D01*
Y77320D01*
X316153Y73096D01*
Y77939D01*
X316182Y77968D01*
X316228Y78031D01*
X316464Y78437D01*
X316657Y78865D01*
X316808Y79310D01*
X316918Y79767D01*
X316983Y80232D01*
X317006Y80701D01*
X316983Y81170D01*
X316918Y81635D01*
X316808Y82092D01*
X316657Y82536D01*
X316464Y82965D01*
X316232Y83373D01*
X316185Y83437D01*
X316153Y83469D01*
Y99247D01*
X317000Y99181D01*
G37*
G36*
X312390Y101090D02*X313168Y100426D01*
X314040Y99891D01*
X314985Y99500D01*
X315980Y99261D01*
X316153Y99247D01*
Y83469D01*
X316128Y83492D01*
X316064Y83538D01*
X315992Y83573D01*
X315917Y83597D01*
X315838Y83608D01*
X315759Y83607D01*
X315680Y83594D01*
X315605Y83568D01*
X315535Y83531D01*
X315471Y83484D01*
X315416Y83427D01*
X315370Y83362D01*
X315335Y83291D01*
X315312Y83215D01*
X315300Y83136D01*
X315301Y83057D01*
X315315Y82979D01*
X315340Y82903D01*
X315379Y82834D01*
X315568Y82510D01*
X315721Y82168D01*
X315842Y81812D01*
X315930Y81447D01*
X315982Y81076D01*
X316000Y80701D01*
X315982Y80326D01*
X315930Y79954D01*
X315842Y79589D01*
X315721Y79234D01*
X315568Y78892D01*
X315382Y78565D01*
X315344Y78496D01*
X315319Y78422D01*
X315306Y78344D01*
X315305Y78266D01*
X315316Y78188D01*
X315339Y78113D01*
X315374Y78042D01*
X315419Y77978D01*
X315474Y77921D01*
X315537Y77874D01*
X315607Y77838D01*
X315681Y77812D01*
X315759Y77799D01*
X315838Y77798D01*
X315916Y77809D01*
X315991Y77832D01*
X316061Y77867D01*
X316126Y77913D01*
X316153Y77939D01*
Y73096D01*
X313293Y70236D01*
X312002D01*
Y75695D01*
X312469Y75717D01*
X312934Y75783D01*
X313391Y75892D01*
X313835Y76044D01*
X314264Y76236D01*
X314672Y76468D01*
X314736Y76515D01*
X314792Y76572D01*
X314837Y76637D01*
X314872Y76708D01*
X314896Y76784D01*
X314907Y76863D01*
X314906Y76942D01*
X314893Y77020D01*
X314867Y77096D01*
X314830Y77166D01*
X314783Y77229D01*
X314726Y77285D01*
X314661Y77331D01*
X314590Y77366D01*
X314514Y77389D01*
X314435Y77401D01*
X314356Y77400D01*
X314278Y77386D01*
X314203Y77361D01*
X314133Y77322D01*
X313809Y77133D01*
X313467Y76979D01*
X313112Y76858D01*
X312746Y76771D01*
X312375Y76718D01*
X312002Y76701D01*
Y84701D01*
X312375Y84683D01*
X312746Y84631D01*
X313112Y84543D01*
X313467Y84422D01*
X313809Y84268D01*
X314135Y84083D01*
X314204Y84045D01*
X314279Y84020D01*
X314356Y84006D01*
X314435Y84005D01*
X314513Y84017D01*
X314588Y84040D01*
X314659Y84075D01*
X314723Y84120D01*
X314779Y84175D01*
X314827Y84238D01*
X314863Y84308D01*
X314888Y84382D01*
X314902Y84460D01*
X314903Y84538D01*
X314892Y84616D01*
X314868Y84692D01*
X314834Y84762D01*
X314788Y84826D01*
X314733Y84883D01*
X314669Y84929D01*
X314264Y85165D01*
X313835Y85358D01*
X313391Y85509D01*
X312934Y85618D01*
X312469Y85684D01*
X312002Y85706D01*
Y101544D01*
X312390Y101090D01*
G37*
G36*
Y111090D02*X312846Y110701D01*
X312390Y110311D01*
X312002Y109858D01*
Y111544D01*
X312390Y111090D01*
G37*
G36*
Y121090D02*X312846Y120701D01*
X312390Y120311D01*
X312002Y119858D01*
Y121544D01*
X312390Y121090D01*
G37*
G36*
Y131090D02*X312846Y130701D01*
X312390Y130311D01*
X312002Y129858D01*
Y131544D01*
X312390Y131090D01*
G37*
G36*
X309038Y93496D02*X309128Y93573D01*
X309434Y93932D01*
X309435Y93932D01*
X309681Y94335D01*
X309862Y94771D01*
X309972Y95230D01*
X310009Y95701D01*
X310000Y95818D01*
Y131458D01*
X311226Y132684D01*
X311725Y131868D01*
X312002Y131544D01*
Y129858D01*
X311725Y129533D01*
X311191Y128661D01*
X310799Y127716D01*
X310560Y126721D01*
X310480Y125701D01*
X310560Y124681D01*
X310799Y123686D01*
X311191Y122741D01*
X311725Y121868D01*
X312002Y121544D01*
Y119858D01*
X311725Y119533D01*
X311191Y118661D01*
X310799Y117716D01*
X310560Y116721D01*
X310480Y115701D01*
X310560Y114681D01*
X310799Y113686D01*
X311191Y112741D01*
X311725Y111868D01*
X312002Y111544D01*
Y109858D01*
X311725Y109533D01*
X311191Y108661D01*
X310799Y107716D01*
X310560Y106721D01*
X310480Y105701D01*
X310560Y104681D01*
X310799Y103686D01*
X311191Y102741D01*
X311725Y101868D01*
X312002Y101544D01*
Y85706D01*
X312000Y85706D01*
X311531Y85684D01*
X311066Y85618D01*
X310609Y85509D01*
X310165Y85358D01*
X309736Y85165D01*
X309328Y84933D01*
X309264Y84886D01*
X309208Y84829D01*
X309163Y84764D01*
X309128Y84693D01*
X309104Y84617D01*
X309093Y84539D01*
X309094Y84459D01*
X309107Y84381D01*
X309133Y84306D01*
X309170Y84236D01*
X309217Y84172D01*
X309274Y84117D01*
X309339Y84071D01*
X309410Y84036D01*
X309486Y84012D01*
X309565Y84001D01*
X309644Y84002D01*
X309722Y84015D01*
X309797Y84041D01*
X309867Y84079D01*
X310191Y84268D01*
X310533Y84422D01*
X310888Y84543D01*
X311254Y84631D01*
X311625Y84683D01*
X312000Y84701D01*
X312002Y84701D01*
Y76701D01*
X312000Y76701D01*
X311625Y76718D01*
X311254Y76771D01*
X310888Y76858D01*
X310533Y76979D01*
X310191Y77133D01*
X309864Y77319D01*
X309796Y77356D01*
X309721Y77382D01*
X309644Y77395D01*
X309565Y77396D01*
X309487Y77385D01*
X309412Y77362D01*
X309341Y77327D01*
X309277Y77281D01*
X309221Y77227D01*
X309173Y77164D01*
X309137Y77094D01*
X309112Y77019D01*
X309098Y76942D01*
X309097Y76863D01*
X309108Y76785D01*
X309132Y76710D01*
X309166Y76639D01*
X309212Y76575D01*
X309267Y76519D01*
X309331Y76473D01*
X309736Y76236D01*
X310165Y76044D01*
X310609Y75892D01*
X311066Y75783D01*
X311531Y75717D01*
X312000Y75695D01*
X312002Y75695D01*
Y70236D01*
X307847D01*
Y77933D01*
X307872Y77909D01*
X307936Y77863D01*
X308008Y77828D01*
X308083Y77805D01*
X308162Y77793D01*
X308241Y77795D01*
X308320Y77808D01*
X308395Y77834D01*
X308465Y77871D01*
X308529Y77918D01*
X308584Y77975D01*
X308630Y78040D01*
X308665Y78111D01*
X308688Y78187D01*
X308700Y78265D01*
X308699Y78345D01*
X308685Y78423D01*
X308660Y78498D01*
X308621Y78568D01*
X308432Y78892D01*
X308279Y79234D01*
X308158Y79589D01*
X308070Y79954D01*
X308018Y80326D01*
X308000Y80701D01*
X308018Y81076D01*
X308070Y81447D01*
X308158Y81812D01*
X308279Y82168D01*
X308432Y82510D01*
X308618Y82836D01*
X308656Y82905D01*
X308681Y82980D01*
X308694Y83057D01*
X308695Y83136D01*
X308684Y83214D01*
X308661Y83289D01*
X308626Y83360D01*
X308581Y83424D01*
X308526Y83480D01*
X308463Y83527D01*
X308393Y83564D01*
X308319Y83589D01*
X308241Y83603D01*
X308162Y83604D01*
X308084Y83592D01*
X308009Y83569D01*
X307939Y83534D01*
X307874Y83489D01*
X307847Y83462D01*
Y92305D01*
X309038Y93496D01*
G37*
G36*
X287046Y79916D02*X287230Y79151D01*
X287531Y78424D01*
X287942Y77753D01*
X288454Y77154D01*
X289052Y76643D01*
X289723Y76232D01*
X290450Y75931D01*
X291215Y75747D01*
X292000Y75685D01*
X292785Y75747D01*
X293550Y75931D01*
X294277Y76232D01*
X294948Y76643D01*
X295546Y77154D01*
X296058Y77753D01*
X296469Y78424D01*
X296770Y79151D01*
X296954Y79916D01*
X297000Y80701D01*
X296958Y81416D01*
X307847Y92305D01*
Y83462D01*
X307818Y83434D01*
X307772Y83370D01*
X307536Y82965D01*
X307343Y82536D01*
X307192Y82092D01*
X307082Y81635D01*
X307017Y81170D01*
X306994Y80701D01*
X307017Y80232D01*
X307082Y79767D01*
X307192Y79310D01*
X307343Y78865D01*
X307536Y78437D01*
X307768Y78028D01*
X307815Y77965D01*
X307847Y77933D01*
Y70236D01*
X292935D01*
X287002Y74331D01*
Y80480D01*
X287046Y79916D01*
G37*
G36*
X320377Y146111D02*Y141255D01*
X319960Y141510D01*
X319015Y141902D01*
X318020Y142141D01*
X317000Y142221D01*
X315980Y142141D01*
X314985Y141902D01*
X314040Y141510D01*
X313168Y140976D01*
X312390Y140311D01*
X311725Y139533D01*
X311215Y138701D01*
X310118D01*
X310000Y138710D01*
X309529Y138673D01*
X309070Y138563D01*
X308634Y138382D01*
X308231Y138135D01*
X308231Y138135D01*
X307872Y137829D01*
X307796Y137739D01*
X304962Y134905D01*
X304872Y134829D01*
X304565Y134470D01*
X304319Y134067D01*
X304138Y133631D01*
X304028Y133172D01*
X304028Y133171D01*
X303991Y132701D01*
X304000Y132583D01*
Y96943D01*
X292716Y85660D01*
X292122Y85707D01*
Y102859D01*
X292203Y102866D01*
X292394Y102913D01*
X292576Y102989D01*
X292743Y103092D01*
X292892Y103221D01*
X293019Y103371D01*
X293121Y103539D01*
X293192Y103723D01*
X293348Y104275D01*
X293449Y104841D01*
X293500Y105413D01*
Y105988D01*
X293449Y106560D01*
X293348Y107126D01*
X293198Y107681D01*
X293125Y107864D01*
X293022Y108033D01*
X292895Y108183D01*
X292745Y108312D01*
X292578Y108416D01*
X292396Y108493D01*
X292204Y108540D01*
X292122Y108547D01*
Y111689D01*
X292275Y111868D01*
X292809Y112741D01*
X293201Y113686D01*
X293440Y114681D01*
X293500Y115701D01*
X293440Y116721D01*
X293201Y117716D01*
X292809Y118661D01*
X292275Y119533D01*
X292122Y119713D01*
Y121689D01*
X292275Y121868D01*
X292809Y122741D01*
X293201Y123686D01*
X293440Y124681D01*
X293500Y125701D01*
X293440Y126721D01*
X293201Y127716D01*
X292809Y128661D01*
X292275Y129533D01*
X292265Y129544D01*
X292474Y129672D01*
X292773Y129928D01*
X293029Y130227D01*
X293234Y130562D01*
X293385Y130926D01*
X293477Y131308D01*
X293508Y131701D01*
X293500Y131799D01*
Y139603D01*
X293508Y139701D01*
X293477Y140093D01*
X293477Y140093D01*
X293385Y140476D01*
X293234Y140839D01*
X293029Y141175D01*
X292773Y141474D01*
X292474Y141730D01*
X292138Y141935D01*
X292122Y141942D01*
Y158009D01*
X297208Y146231D01*
X297182Y146201D01*
X296694Y145404D01*
X296336Y144541D01*
X296118Y143632D01*
X296045Y142701D01*
X296118Y141769D01*
X296336Y140860D01*
X296694Y139997D01*
X297182Y139200D01*
X297789Y138490D01*
X298500Y137883D01*
X299296Y137395D01*
X300160Y137037D01*
X301068Y136819D01*
X302000Y136745D01*
X302932Y136819D01*
X303840Y137037D01*
X304704Y137395D01*
X305500Y137883D01*
X306211Y138490D01*
X306818Y139200D01*
X307306Y139997D01*
X307664Y140860D01*
X307882Y141769D01*
X307937Y142701D01*
X307882Y143632D01*
X307664Y144541D01*
X307306Y145404D01*
X306818Y146201D01*
X306211Y146912D01*
X305500Y147519D01*
X304704Y148007D01*
X303840Y148365D01*
X302932Y148583D01*
X302721Y148599D01*
X292122Y173143D01*
Y211097D01*
X320377Y146111D01*
G37*
G36*
X291775Y142086D02*X291392Y142178D01*
X291000Y142208D01*
X290902Y142201D01*
X287002D01*
Y148104D01*
X287704Y148395D01*
X288500Y148883D01*
X289211Y149490D01*
X289818Y150200D01*
X290306Y150997D01*
X290664Y151860D01*
X290882Y152769D01*
X290937Y153701D01*
X290882Y154632D01*
X290664Y155541D01*
X290306Y156404D01*
X289818Y157201D01*
X289211Y157912D01*
X288500Y158519D01*
X287704Y159007D01*
X287002Y159298D01*
Y169865D01*
X292122Y158009D01*
Y141942D01*
X291775Y142086D01*
G37*
G36*
X291610Y120311D02*X291154Y120701D01*
X291610Y121090D01*
X292122Y121689D01*
Y119713D01*
X291610Y120311D01*
G37*
G36*
X292000Y85716D02*X291215Y85654D01*
X290450Y85471D01*
X289723Y85170D01*
X289052Y84758D01*
X288454Y84247D01*
X287942Y83649D01*
X287531Y82978D01*
X287230Y82251D01*
X287046Y81485D01*
X287002Y80922D01*
Y99201D01*
X287287D01*
X287860Y99251D01*
X288425Y99352D01*
X288980Y99503D01*
X289163Y99576D01*
X289332Y99679D01*
X289483Y99806D01*
X289611Y99955D01*
X289715Y100123D01*
X289792Y100305D01*
X289839Y100497D01*
X289855Y100694D01*
X289841Y100890D01*
X289796Y101083D01*
X289721Y101265D01*
X289619Y101434D01*
X289491Y101585D01*
X289342Y101714D01*
X289174Y101818D01*
X288992Y101894D01*
X288801Y101941D01*
X288604Y101958D01*
X288407Y101943D01*
X288216Y101894D01*
X287876Y101798D01*
X287529Y101736D01*
X287177Y101705D01*
X287002D01*
Y109181D01*
X288020Y109261D01*
X289015Y109500D01*
X289960Y109891D01*
X290832Y110426D01*
X291610Y111090D01*
X292122Y111689D01*
Y108547D01*
X292007Y108556D01*
X291810Y108542D01*
X291618Y108497D01*
X291436Y108422D01*
X291267Y108320D01*
X291116Y108192D01*
X290987Y108043D01*
X290883Y107875D01*
X290807Y107693D01*
X290760Y107501D01*
X290743Y107305D01*
X290758Y107108D01*
X290807Y106917D01*
X290903Y106577D01*
X290965Y106229D01*
X290996Y105877D01*
Y105524D01*
X290965Y105172D01*
X290903Y104825D01*
X290810Y104484D01*
X290762Y104293D01*
X290747Y104097D01*
X290764Y103901D01*
X290810Y103710D01*
X290887Y103528D01*
X290990Y103361D01*
X291119Y103212D01*
X291269Y103085D01*
X291437Y102983D01*
X291619Y102909D01*
X291811Y102864D01*
X292007Y102849D01*
X292122Y102859D01*
Y85707D01*
X292000Y85716D01*
G37*
G36*
X292122Y211097D02*Y173143D01*
X287002Y184999D01*
Y222872D01*
X292122Y211097D01*
G37*
G36*
X286840Y159365D02*X285932Y159583D01*
X285000Y159656D01*
X284068Y159583D01*
X283751Y159507D01*
X273473Y170728D01*
Y201194D01*
X287002Y169865D01*
Y159298D01*
X286840Y159365D01*
G37*
G36*
X283098Y142201D02*X283000Y142208D01*
X282608Y142178D01*
X282608Y142178D01*
X282225Y142086D01*
X281862Y141935D01*
X281526Y141730D01*
X281227Y141474D01*
X280971Y141175D01*
X280766Y140839D01*
X280615Y140476D01*
X280523Y140093D01*
X280492Y139701D01*
X280500Y139603D01*
Y131799D01*
X280492Y131701D01*
X280523Y131309D01*
X280523Y131308D01*
X280615Y130926D01*
X280766Y130562D01*
X280971Y130227D01*
X281227Y129928D01*
X281526Y129672D01*
X281735Y129544D01*
X281725Y129533D01*
X281215Y128701D01*
X279596D01*
X273473Y137791D01*
Y161845D01*
X279318Y155463D01*
X279118Y154632D01*
X279045Y153701D01*
X279118Y152769D01*
X279336Y151860D01*
X279694Y150997D01*
X280182Y150200D01*
X280789Y149490D01*
X281500Y148883D01*
X282296Y148395D01*
X283160Y148037D01*
X284068Y147819D01*
X285000Y147745D01*
X285932Y147819D01*
X286840Y148037D01*
X287002Y148104D01*
Y142201D01*
X283098D01*
G37*
G36*
X282390Y121090D02*X282846Y120701D01*
X282390Y120311D01*
X281878Y119713D01*
Y121689D01*
X282390Y121090D01*
G37*
G36*
X286985Y80701D02*X287002Y80480D01*
Y74331D01*
X281878Y77867D01*
Y102855D01*
X281993Y102845D01*
X282190Y102860D01*
X282382Y102905D01*
X282564Y102980D01*
X282733Y103082D01*
X282884Y103209D01*
X283013Y103359D01*
X283117Y103527D01*
X283193Y103709D01*
X283240Y103900D01*
X283257Y104097D01*
X283242Y104294D01*
X283193Y104485D01*
X283097Y104825D01*
X283035Y105172D01*
X283004Y105524D01*
Y105877D01*
X283035Y106229D01*
X283097Y106577D01*
X283190Y106918D01*
X283238Y107108D01*
X283253Y107305D01*
X283236Y107501D01*
X283190Y107692D01*
X283113Y107873D01*
X283010Y108040D01*
X282881Y108189D01*
X282731Y108316D01*
X282563Y108418D01*
X282381Y108493D01*
X282189Y108538D01*
X281993Y108552D01*
X281878Y108543D01*
Y111689D01*
X282390Y111090D01*
X283168Y110426D01*
X284040Y109891D01*
X284985Y109500D01*
X285980Y109261D01*
X287000Y109181D01*
X287002Y109181D01*
Y101705D01*
X286823D01*
X286471Y101736D01*
X286124Y101798D01*
X285783Y101890D01*
X285592Y101939D01*
X285396Y101954D01*
X285200Y101937D01*
X285009Y101890D01*
X284828Y101814D01*
X284660Y101710D01*
X284511Y101582D01*
X284384Y101432D01*
X284282Y101263D01*
X284208Y101081D01*
X284163Y100890D01*
X284149Y100694D01*
X284165Y100498D01*
X284212Y100306D01*
X284288Y100125D01*
X284392Y99958D01*
X284520Y99809D01*
X284670Y99682D01*
X284839Y99580D01*
X285022Y99509D01*
X285575Y99352D01*
X286140Y99251D01*
X286713Y99201D01*
X287002D01*
Y80922D01*
X286985Y80701D01*
G37*
G36*
X273473Y83668D02*Y127051D01*
X275476Y124078D01*
X275565Y123932D01*
X275726Y123744D01*
X275798Y123650D01*
X275837Y123614D01*
X275872Y123573D01*
X276011Y123454D01*
X276146Y123331D01*
X276191Y123301D01*
X276231Y123266D01*
X276387Y123171D01*
X276539Y123070D01*
X276588Y123047D01*
X276634Y123020D01*
X276803Y122950D01*
X276969Y122874D01*
X277021Y122859D01*
X277070Y122839D01*
X277248Y122796D01*
X277424Y122747D01*
X277477Y122741D01*
X277529Y122729D01*
X277647Y122722D01*
X277893Y122693D01*
X278064Y122701D01*
X281215D01*
X281725Y121868D01*
X281878Y121689D01*
Y119713D01*
X281725Y119533D01*
X281191Y118661D01*
X280799Y117716D01*
X280560Y116721D01*
X280480Y115701D01*
X280560Y114681D01*
X280799Y113686D01*
X281191Y112741D01*
X281725Y111868D01*
X281878Y111689D01*
Y108543D01*
X281797Y108536D01*
X281606Y108489D01*
X281424Y108413D01*
X281257Y108309D01*
X281108Y108181D01*
X280981Y108030D01*
X280879Y107862D01*
X280808Y107679D01*
X280652Y107126D01*
X280551Y106560D01*
X280500Y105988D01*
Y105413D01*
X280551Y104841D01*
X280652Y104275D01*
X280802Y103721D01*
X280875Y103538D01*
X280978Y103369D01*
X281105Y103218D01*
X281255Y103089D01*
X281422Y102985D01*
X281604Y102909D01*
X281796Y102862D01*
X281878Y102855D01*
Y77867D01*
X273473Y83668D01*
G37*
G36*
X287002Y222872D02*Y184999D01*
X273473Y216328D01*
Y253989D01*
X287002Y222872D01*
G37*
G36*
X277507Y278856D02*X320377Y187504D01*
Y161159D01*
X273473Y269037D01*
Y282891D01*
X277507Y278856D01*
G37*
G36*
X201462Y133369D02*Y337349D01*
X210106Y334261D01*
Y332559D01*
X210102Y332500D01*
X210120Y332265D01*
X210120Y332264D01*
X210175Y332035D01*
X210266Y331817D01*
X210389Y331615D01*
X210543Y331436D01*
X210722Y331283D01*
X210923Y331159D01*
X211142Y331069D01*
X211371Y331014D01*
X211606Y330995D01*
X211665Y331000D01*
X211998D01*
X211862Y224118D01*
X211665D01*
X211606Y224123D01*
X211371Y224104D01*
X211371Y224104D01*
X211142Y224049D01*
X210923Y223959D01*
X210722Y223836D01*
X210543Y223682D01*
X210389Y223503D01*
X210266Y223301D01*
X210175Y223083D01*
X210120Y222854D01*
X210102Y222618D01*
X210106Y222559D01*
Y216177D01*
X210102Y216118D01*
X210120Y215883D01*
X210120Y215883D01*
X210175Y215653D01*
X210266Y215435D01*
X210389Y215234D01*
X210543Y215054D01*
X210722Y214901D01*
X210923Y214778D01*
X211142Y214687D01*
X211371Y214632D01*
X211606Y214614D01*
X211665Y214618D01*
X214486D01*
X273473Y127051D01*
Y83668D01*
X201462Y133369D01*
G37*
G36*
X221856Y340982D02*Y339434D01*
X221487Y339119D01*
X221002Y338550D01*
X220611Y337913D01*
X220325Y337222D01*
X220150Y336495D01*
X220092Y335750D01*
X220150Y335004D01*
X220325Y334277D01*
X220611Y333587D01*
X221002Y332949D01*
X221487Y332381D01*
X222056Y331895D01*
X222693Y331504D01*
X223384Y331218D01*
X224111Y331044D01*
X224856Y330985D01*
X225340Y331023D01*
X273473Y282891D01*
Y269037D01*
X270802Y275181D01*
X270818Y275200D01*
X271306Y275997D01*
X271664Y276860D01*
X271882Y277769D01*
X271937Y278701D01*
X271882Y279632D01*
X271664Y280541D01*
X271306Y281404D01*
X270818Y282201D01*
X270211Y282912D01*
X269500Y283519D01*
X268704Y284007D01*
X267840Y284365D01*
X266932Y284583D01*
X266000Y284656D01*
X265068Y284583D01*
X264160Y284365D01*
X263296Y284007D01*
X262500Y283519D01*
X261789Y282912D01*
X261182Y282201D01*
X260694Y281404D01*
X260336Y280541D01*
X260118Y279632D01*
X260045Y278701D01*
X260118Y277769D01*
X260336Y276860D01*
X260694Y275997D01*
X261182Y275200D01*
X261789Y274490D01*
X262500Y273883D01*
X263296Y273395D01*
X264160Y273037D01*
X265068Y272819D01*
X265294Y272801D01*
X273473Y253989D01*
Y216328D01*
X248506Y274146D01*
X248518Y274309D01*
X248514Y274368D01*
Y280750D01*
X248518Y280809D01*
X248500Y281044D01*
X248500Y281044D01*
X248445Y281274D01*
X248354Y281492D01*
X248231Y281693D01*
X248078Y281873D01*
X247898Y282026D01*
X247697Y282150D01*
X247479Y282240D01*
X247249Y282295D01*
X247014Y282314D01*
X246955Y282309D01*
X240573D01*
X240514Y282314D01*
X240279Y282295D01*
X240278Y282295D01*
X240049Y282240D01*
X239831Y282150D01*
X239629Y282026D01*
X239450Y281873D01*
X239297Y281693D01*
X239173Y281492D01*
X239083Y281274D01*
X239028Y281044D01*
X239009Y280809D01*
X239014Y280750D01*
Y274368D01*
X239009Y274309D01*
X239028Y274074D01*
X239028Y274074D01*
X239083Y273844D01*
X239173Y273626D01*
X239297Y273425D01*
X239450Y273245D01*
X239629Y273092D01*
X239831Y272968D01*
X240049Y272878D01*
X240278Y272823D01*
X240514Y272804D01*
X240573Y272809D01*
X242547D01*
X273473Y201194D01*
Y170728D01*
X229565Y218669D01*
X229606Y219368D01*
X229562Y220114D01*
X229388Y220841D01*
X229102Y221531D01*
X228711Y222169D01*
X228380Y222557D01*
X236172Y273464D01*
X236564Y273704D01*
X237133Y274190D01*
X237618Y274758D01*
X238009Y275396D01*
X238295Y276087D01*
X238470Y276814D01*
X238514Y277559D01*
X238470Y278304D01*
X238295Y279031D01*
X238009Y279722D01*
X237618Y280360D01*
X237133Y280928D01*
X236564Y281414D01*
X235927Y281804D01*
X235236Y282091D01*
X234509Y282265D01*
X233764Y282324D01*
X233018Y282265D01*
X232291Y282091D01*
X231601Y281804D01*
X230963Y281414D01*
X230395Y280928D01*
X229909Y280360D01*
X229518Y279722D01*
X229232Y279031D01*
X229058Y278304D01*
X228999Y277559D01*
X229058Y276814D01*
X229232Y276087D01*
X229518Y275396D01*
X229909Y274758D01*
X230241Y274370D01*
X222448Y223464D01*
X222056Y223223D01*
X221487Y222737D01*
X221002Y222169D01*
X220611Y221531D01*
X220325Y220841D01*
X220150Y220114D01*
X220092Y219368D01*
X220150Y218623D01*
X220325Y217896D01*
X220611Y217205D01*
X221002Y216568D01*
X221487Y215999D01*
X222056Y215514D01*
X222693Y215123D01*
X223384Y214837D01*
X224111Y214662D01*
X224856Y214604D01*
X225132Y214625D01*
X273473Y161845D01*
Y137791D01*
X219606Y217756D01*
Y222560D01*
X219611Y222618D01*
X219593Y222853D01*
X219593Y222854D01*
X219537Y223083D01*
X219447Y223301D01*
X219324Y223503D01*
X219170Y223682D01*
X218991Y223836D01*
X218790Y223959D01*
X218571Y224049D01*
X218342Y224104D01*
X218106Y224123D01*
X218048Y224118D01*
X217862D01*
X217998Y331000D01*
X218048D01*
X218106Y330995D01*
X218342Y331014D01*
X218342Y331014D01*
X218571Y331069D01*
X218790Y331159D01*
X218991Y331283D01*
X219170Y331436D01*
X219324Y331615D01*
X219447Y331817D01*
X219537Y332035D01*
X219593Y332264D01*
X219611Y332500D01*
X219606Y332559D01*
Y338941D01*
X219611Y339000D01*
X219593Y339235D01*
X219593Y339235D01*
X219537Y339465D01*
X219447Y339683D01*
X219324Y339884D01*
X219170Y340064D01*
X218991Y340217D01*
X218790Y340340D01*
X218571Y340431D01*
X218342Y340486D01*
X218106Y340504D01*
X218048Y340500D01*
X211665D01*
X211606Y340504D01*
X211371Y340486D01*
X211371Y340486D01*
X211142Y340431D01*
X210923Y340340D01*
X210923Y340340D01*
X201462Y343720D01*
Y352933D01*
X221856Y340982D01*
G37*
G36*
X320377Y389764D02*Y201627D01*
X282716Y281881D01*
X282491Y282295D01*
X282196Y282664D01*
X282073Y282776D01*
X229578Y335271D01*
X229606Y335750D01*
X229562Y336495D01*
X229388Y337222D01*
X229102Y337913D01*
X228711Y338550D01*
X228226Y339119D01*
X227856Y339434D01*
Y342495D01*
X227861Y342524D01*
X227856Y342729D01*
Y342844D01*
X227853Y342902D01*
X227851Y342996D01*
X227846Y343027D01*
X227829Y343315D01*
X227718Y343774D01*
X227538Y344210D01*
X227291Y344613D01*
X226984Y344972D01*
X226625Y345279D01*
X226223Y345526D01*
X225786Y345706D01*
X225575Y345757D01*
X201462Y359887D01*
Y365507D01*
X226068Y348391D01*
X260255Y314203D01*
X260118Y313632D01*
X260045Y312701D01*
X260118Y311769D01*
X260336Y310860D01*
X260694Y309997D01*
X261182Y309200D01*
X261789Y308490D01*
X262500Y307883D01*
X263296Y307395D01*
X264160Y307037D01*
X265068Y306819D01*
X266000Y306745D01*
X266932Y306819D01*
X267840Y307037D01*
X268704Y307395D01*
X269500Y307883D01*
X270211Y308490D01*
X270818Y309200D01*
X271306Y309997D01*
X271664Y310860D01*
X271882Y311769D01*
X271937Y312701D01*
X271882Y313632D01*
X271664Y314541D01*
X271306Y315404D01*
X270818Y316201D01*
X270211Y316912D01*
X269500Y317519D01*
X268704Y318007D01*
X267840Y318365D01*
X266932Y318583D01*
X266000Y318656D01*
X265068Y318583D01*
X264498Y318446D01*
X230183Y352761D01*
X230084Y352872D01*
X229922Y352999D01*
X229769Y353135D01*
X229642Y353213D01*
X201462Y372816D01*
Y389764D01*
X320377D01*
G37*
G36*
X201462D02*Y372816D01*
X183835Y385079D01*
X183769Y385135D01*
X183366Y385382D01*
X183334Y385395D01*
X183311Y385410D01*
X183120Y385484D01*
X182930Y385563D01*
X182900Y385570D01*
X182871Y385581D01*
X182671Y385625D01*
X182471Y385673D01*
X182444Y385675D01*
X182410Y385682D01*
X181938Y385709D01*
X181852Y385701D01*
X165118D01*
X165000Y385710D01*
X164882Y385701D01*
X101004D01*
X100781Y385702D01*
X100629Y385679D01*
X100529Y385673D01*
X100422Y385647D01*
X100314Y385631D01*
X100193Y385592D01*
X100070Y385563D01*
X99969Y385521D01*
X99864Y385487D01*
X99751Y385430D01*
X99634Y385382D01*
X99540Y385325D01*
X99442Y385275D01*
X99339Y385201D01*
X99231Y385135D01*
X99148Y385064D01*
X99058Y385000D01*
X98968Y384911D01*
X98872Y384829D01*
X98801Y384745D01*
X98723Y384668D01*
X98665Y384586D01*
X98565Y384470D01*
X98449Y384280D01*
X35180Y282309D01*
X32573D01*
X32514Y282314D01*
X32279Y282295D01*
X32278Y282295D01*
X32049Y282240D01*
X31831Y282150D01*
X31629Y282026D01*
X31450Y281873D01*
X31297Y281693D01*
X31173Y281492D01*
X31083Y281274D01*
X31028Y281044D01*
X31009Y280809D01*
X31014Y280750D01*
Y274368D01*
X31009Y274309D01*
X31028Y274074D01*
X31028Y274074D01*
X31083Y273844D01*
X31173Y273626D01*
X31297Y273425D01*
X31450Y273245D01*
X31629Y273092D01*
X31831Y272968D01*
X32049Y272878D01*
X32278Y272823D01*
X32514Y272804D01*
X32573Y272809D01*
X38955D01*
X39014Y272804D01*
X39249Y272823D01*
X39249Y272823D01*
X39479Y272878D01*
X39697Y272968D01*
X39898Y273092D01*
X40078Y273245D01*
X40231Y273425D01*
X40354Y273626D01*
X40445Y273844D01*
X40500Y274074D01*
X40518Y274309D01*
X40514Y274368D01*
Y279524D01*
X102669Y379701D01*
X162356D01*
Y376464D01*
X162165D01*
X162106Y376468D01*
X161871Y376450D01*
X161871Y376450D01*
X161642Y376395D01*
X161423Y376304D01*
X161222Y376181D01*
X161043Y376028D01*
X160889Y375848D01*
X160766Y375647D01*
X160675Y375429D01*
X160620Y375199D01*
X160602Y374964D01*
X160606Y374905D01*
Y368522D01*
X160602Y368464D01*
X160620Y368228D01*
X160620Y368228D01*
X160675Y367999D01*
X160766Y367781D01*
X160889Y367579D01*
X161043Y367400D01*
X161222Y367246D01*
X161423Y367123D01*
X161642Y367033D01*
X161871Y366978D01*
X162106Y366959D01*
X162165Y366964D01*
X168548D01*
X168606Y366959D01*
X168842Y366978D01*
X168842Y366978D01*
X169071Y367033D01*
X169290Y367123D01*
X169491Y367246D01*
X169670Y367400D01*
X169824Y367579D01*
X169947Y367781D01*
X170037Y367999D01*
X170093Y368228D01*
X170111Y368464D01*
X170106Y368522D01*
Y374905D01*
X170111Y374964D01*
X170093Y375199D01*
X170093Y375199D01*
X170037Y375429D01*
X169947Y375647D01*
X169824Y375848D01*
X169670Y376028D01*
X169491Y376181D01*
X169290Y376304D01*
X169071Y376395D01*
X168842Y376450D01*
X168606Y376468D01*
X168548Y376464D01*
X168356D01*
Y379701D01*
X181059D01*
X201462Y365507D01*
Y359887D01*
X180064Y372427D01*
X180062Y372459D01*
X179888Y373186D01*
X179602Y373877D01*
X179211Y374514D01*
X178726Y375083D01*
X178157Y375568D01*
X177520Y375959D01*
X176829Y376245D01*
X176102Y376420D01*
X175356Y376478D01*
X174611Y376420D01*
X173884Y376245D01*
X173193Y375959D01*
X172556Y375568D01*
X171987Y375083D01*
X171502Y374514D01*
X171111Y373877D01*
X170825Y373186D01*
X170650Y372459D01*
X170592Y371714D01*
X170650Y370968D01*
X170825Y370241D01*
X171111Y369551D01*
X171502Y368913D01*
X171987Y368345D01*
X172556Y367859D01*
X173193Y367468D01*
X173884Y367182D01*
X174611Y367008D01*
X175356Y366949D01*
X176102Y367008D01*
X176829Y367182D01*
X177015Y367259D01*
X201462Y352933D01*
Y343720D01*
X118921Y373203D01*
Y374905D01*
X118926Y374964D01*
X118907Y375199D01*
X118907Y375199D01*
X118852Y375429D01*
X118762Y375647D01*
X118638Y375848D01*
X118485Y376028D01*
X118305Y376181D01*
X118104Y376304D01*
X117886Y376395D01*
X117656Y376450D01*
X117421Y376468D01*
X117362Y376464D01*
X110980D01*
X110921Y376468D01*
X110686Y376450D01*
X110686Y376450D01*
X110456Y376395D01*
X110238Y376304D01*
X110037Y376181D01*
X109857Y376028D01*
X109704Y375848D01*
X109580Y375647D01*
X109490Y375429D01*
X109435Y375199D01*
X109416Y374964D01*
X109421Y374905D01*
Y368522D01*
X109416Y368464D01*
X109435Y368228D01*
X109435Y368228D01*
X109490Y367999D01*
X109580Y367781D01*
X109704Y367579D01*
X109857Y367400D01*
X110037Y367246D01*
X110238Y367123D01*
X110456Y367033D01*
X110686Y366978D01*
X110921Y366959D01*
X110980Y366964D01*
X117362D01*
X117421Y366959D01*
X117656Y366978D01*
X117656Y366978D01*
X117886Y367033D01*
X118104Y367123D01*
X118104Y367123D01*
X201462Y337349D01*
Y133369D01*
X66163Y226750D01*
X66101Y226803D01*
X65699Y227050D01*
X65661Y227065D01*
X65633Y227082D01*
X65447Y227154D01*
X65262Y227230D01*
X65227Y227239D01*
X65193Y227252D01*
X64998Y227294D01*
X64803Y227341D01*
X64771Y227342D01*
X64731Y227351D01*
X64260Y227377D01*
X64178Y227368D01*
X63355D01*
X63040Y227737D01*
X62472Y228223D01*
X61834Y228614D01*
X61641Y228694D01*
X49602Y274739D01*
X49618Y274758D01*
X50009Y275396D01*
X50295Y276087D01*
X50470Y276814D01*
X50514Y277559D01*
X50470Y278304D01*
X50295Y279031D01*
X50260Y279116D01*
X104775Y366997D01*
X104916Y367008D01*
X105643Y367182D01*
X106334Y367468D01*
X106972Y367859D01*
X107540Y368345D01*
X108026Y368913D01*
X108416Y369551D01*
X108703Y370241D01*
X108877Y370968D01*
X108921Y371714D01*
X108877Y372459D01*
X108703Y373186D01*
X108416Y373877D01*
X108026Y374514D01*
X107540Y375083D01*
X106972Y375568D01*
X106334Y375959D01*
X105643Y376245D01*
X104916Y376420D01*
X104171Y376478D01*
X103426Y376420D01*
X102699Y376245D01*
X102008Y375959D01*
X101371Y375568D01*
X100802Y375083D01*
X100316Y374514D01*
X99926Y373877D01*
X99640Y373186D01*
X99465Y372459D01*
X99406Y371714D01*
X99465Y370968D01*
X99640Y370241D01*
X99675Y370156D01*
X45160Y282276D01*
X45018Y282265D01*
X44291Y282091D01*
X43601Y281804D01*
X42963Y281414D01*
X42395Y280928D01*
X41909Y280360D01*
X41518Y279722D01*
X41232Y279031D01*
X41058Y278304D01*
X40999Y277559D01*
X41058Y276814D01*
X41232Y276087D01*
X41518Y275396D01*
X41909Y274758D01*
X42395Y274190D01*
X42963Y273704D01*
X43601Y273314D01*
X43794Y273234D01*
X55833Y227188D01*
X55816Y227169D01*
X55426Y226531D01*
X55140Y225841D01*
X54965Y225114D01*
X54906Y224368D01*
X54965Y223623D01*
X55140Y222896D01*
X55426Y222205D01*
X55816Y221568D01*
X56302Y220999D01*
X56871Y220514D01*
X57508Y220123D01*
X58199Y219837D01*
X58926Y219662D01*
X59671Y219604D01*
X60416Y219662D01*
X61143Y219837D01*
X61834Y220123D01*
X62472Y220514D01*
X63040Y220999D01*
X63355Y221368D01*
X63398D01*
X69203Y217362D01*
X68926Y217377D01*
X68845Y217368D01*
X64421D01*
Y217560D01*
X64426Y217618D01*
X64407Y217853D01*
X64407Y217854D01*
X64352Y218083D01*
X64262Y218301D01*
X64138Y218503D01*
X63985Y218682D01*
X63805Y218836D01*
X63604Y218959D01*
X63386Y219049D01*
X63156Y219104D01*
X62921Y219123D01*
X62862Y219118D01*
X56480D01*
X56421Y219123D01*
X56186Y219104D01*
X56186Y219104D01*
X55956Y219049D01*
X55738Y218959D01*
X55537Y218836D01*
X55357Y218682D01*
X55204Y218503D01*
X55080Y218301D01*
X54990Y218083D01*
X54935Y217854D01*
X54916Y217618D01*
X54921Y217559D01*
Y211177D01*
X54916Y211118D01*
X54935Y210883D01*
X54935Y210883D01*
X54990Y210653D01*
X55080Y210435D01*
X55204Y210234D01*
X55357Y210054D01*
X55537Y209901D01*
X55738Y209778D01*
X55956Y209687D01*
X56186Y209632D01*
X56421Y209614D01*
X56480Y209618D01*
X62862D01*
X62921Y209614D01*
X63156Y209632D01*
X63156Y209632D01*
X63386Y209687D01*
X63604Y209778D01*
X63805Y209901D01*
X63985Y210054D01*
X64138Y210234D01*
X64262Y210435D01*
X64352Y210653D01*
X64407Y210883D01*
X64426Y211118D01*
X64421Y211177D01*
Y211368D01*
X68066D01*
X201462Y119375D01*
Y3937D01*
X3937D01*
Y389764D01*
X201462D01*
G37*
G54D31*X45764Y277559D02*X104171Y371714D01*
X104101Y371600D01*
X35764Y277559D02*X101000Y382701D01*
X64332Y224368D02*X59671D01*
X266000Y312701D02*X228000Y350701D01*
X224856Y335750D02*Y342844D01*
Y342701D02*X175369Y371701D01*
X175356Y371714D01*
X279953Y280654D02*X224856Y335750D01*
X182000Y382701D02*X228000Y350701D01*
X175356Y371714D02*X174013D01*
X174000Y371701D01*
X165000Y382701D02*X165356Y382344D01*
Y371701D01*
X101000Y382701D02*X182000D01*
X214856Y335750D02*X114171Y371714D01*
X114791Y371492D01*
X215004Y335697D02*X214856Y219368D01*
X214857Y219557D01*
X59671Y224368D02*X45764Y277559D01*
X224856Y219368D02*X233764Y277559D01*
X59671Y214368D02*X69000D01*
X278000Y125701D02*X215000Y219225D01*
X302000Y142701D02*X243764Y277559D01*
X326000Y140701D02*X266000Y278701D01*
X224856Y219368D02*X285000Y153701D01*
X348000Y135701D02*X280000Y280606D01*
X215000Y219225D02*X214856Y219368D01*
X310000Y135701D02*X307000Y132701D01*
X317000Y135701D02*X310000D01*
X292000Y67236D02*X64332Y224368D01*
X287000Y125701D02*X278000D01*
X290378Y61701D02*X69000Y214368D01*
X290378Y61701D02*X316000D01*
X307000Y95701D02*X292000Y80701D01*
X307000Y132701D02*Y95701D01*
X314535Y67236D02*X292000D01*
X314535D02*X311465D01*
X329000Y81701D02*X314535Y67236D01*
X300118Y30512D02*Y52583D01*
X333858Y79559D02*X316000Y61701D01*
X326000Y130701D02*Y140701D01*
X329000Y109701D02*Y81701D01*
X333858Y96063D02*Y79559D01*
X317000Y125701D02*X321000D01*
X326000Y130701D01*
X338000Y135701D02*Y118701D01*
X329000Y109701D01*
X358000Y135701D02*Y146701D01*
X351000Y153701D01*
X348000Y105701D02*Y100756D01*
X335827Y98031D02*X333858Y96063D01*
X348000Y100756D02*X345276Y98031D01*
X335827D01*
G54D30*G36*
X32514Y280809D02*X39014D01*
Y274309D01*
X32514D01*
Y280809D01*
G37*
G54D32*X45764Y277559D03*
G54D30*G36*
X117421Y368464D02*X110921D01*
Y374964D01*
X117421D01*
Y368464D01*
G37*
G54D32*X104171Y371714D03*
G54D33*X266000Y312701D03*
Y278701D03*
G54D30*G36*
X162106Y374964D02*X168606D01*
Y368464D01*
X162106D01*
Y374964D01*
G37*
G54D32*X175356Y371714D03*
G54D30*G36*
X211606Y339000D02*X218106D01*
Y332500D01*
X211606D01*
Y339000D01*
G37*
G54D32*X224856Y335750D03*
G54D30*G36*
X247014Y274309D02*X240514D01*
Y280809D01*
X247014D01*
Y274309D01*
G37*
G54D32*X233764Y277559D03*
G54D33*X285000Y153701D03*
G54D30*G36*
X211606Y222618D02*X218106D01*
Y216118D01*
X211606D01*
Y222618D01*
G37*
G54D32*X224856Y219368D03*
G54D33*X302000Y142701D03*
G54D30*G36*
X283000Y139701D02*X291000D01*
Y131701D01*
X283000D01*
Y139701D01*
G37*
G54D34*X317000Y135701D03*
G54D33*X351000Y153701D03*
G54D34*X338000Y135701D03*
G54D30*G36*
X372000Y139701D02*Y131701D01*
X364000D01*
Y139701D01*
X372000D01*
G37*
G54D34*X378000Y135701D03*
X348000D03*
X358000D03*
X287000Y125701D03*
X317000D03*
X287000Y115701D03*
Y105701D03*
X317000Y115701D03*
Y105701D03*
G54D30*G36*
X334000Y101701D02*Y109701D01*
X342000D01*
Y101701D01*
X334000D01*
G37*
G54D34*X368000Y105701D03*
G54D30*G36*
X344000Y101701D02*Y109701D01*
X352000D01*
Y101701D01*
X344000D01*
G37*
G36*
X354000D02*Y109701D01*
X362000D01*
Y101701D01*
X354000D01*
G37*
G36*
X56421Y211118D02*Y217618D01*
X62921D01*
Y211118D01*
X56421D01*
G37*
G54D32*X59671Y224368D03*
G54D35*X377795Y82559D03*
X352205D03*
G54D30*G36*
X374000Y101701D02*Y109701D01*
X382000D01*
Y101701D01*
X374000D01*
G37*
G36*
X372000Y97701D02*Y89701D01*
X364000D01*
Y97701D01*
X372000D01*
G37*
G54D34*X378000Y93701D03*
G54D30*G36*
X380973Y61665D02*X374617D01*
Y68020D01*
X380973D01*
Y61665D01*
G37*
G54D35*X352205Y64843D03*
G54D34*X370000Y33701D02*X375157D01*
G54D36*X328740Y21654D03*
G54D30*G36*
X341158Y37701D02*X354358D01*
Y29701D01*
X341158D01*
Y37701D01*
G37*
G54D37*X300118Y30512D03*
X309961D03*
G54D34*X292000Y80701D03*
X312000D03*
G54D30*G36*
X306000Y48701D02*Y56701D01*
X314000D01*
Y48701D01*
X306000D01*
G37*
G54D34*X300000Y52701D03*
G54D36*X281339Y21654D03*
G54D37*X300118Y17913D03*
X309961D03*
G54D38*G54D39*G54D40*G54D38*G54D39*G54D40*G54D39*G54D40*G54D41*G54D40*G54D41*G54D38*G54D39*G54D42*G54D41*G54D38*G54D42*G54D43*G54D44*G54D45*G54D41*G54D43*G54D44*M02*
