M48
INCH
T18C0.122
T17C0.035
T16C0.036
T15C0.091
T14C0.034
T13C0.039
T12C0.031
T11C0.043
%
T12
G05
X026600Y031270
X026600Y027870
X028500Y015370
X030200Y014270
X035100Y015370
T14
X037780Y008256
X035220Y008256
X037780Y006484
X035220Y006484
T17
X029200Y008070
X031200Y008070
T16
X030012Y003051
X030996Y003051
X030012Y001791
X030996Y001791
T13
X028700Y013570
X031700Y013570
X033800Y013570
X036800Y013570
X037800Y013570
X034800Y013570
X035800Y013570
X028700Y012570
X031700Y012570
X028700Y011570
X028700Y010570
X031700Y011570
X031700Y010570
X033800Y010570
X036800Y010570
X034800Y010570
X035800Y010570
X037800Y010570
X036800Y009370
X037800Y009370
X031000Y005270
X030000Y005270
T11
X003576Y027756
X004576Y027756
X011417Y037171
X010417Y037171
X016536Y037171
X017536Y037171
X021486Y033575
X022486Y033575
X024376Y027756
X023376Y027756
X021486Y021937
X022486Y021937
X005967Y021437
X005967Y022437
T15
X032874Y002165
X028134Y002165
T18
X000984Y038386
X038386Y038386
X000984Y000984
X038386Y000984
M30
